<?xml version="1.0" encoding="UTF-8"?>
<!-- Generated by Pixelmator Pro 3.3.2 -->
<svg width="49" height="16" viewBox="0 0 49 16" xmlns="http://www.w3.org/2000/svg" xmlns:xlink="http://www.w3.org/1999/xlink">
    <path id="Path" fill="#da2031" fill-rule="evenodd" stroke="none" d="M 1.710694 9.002987 C 9.004022 9.000805 9.004022 9.000805 8.996471 9.01791 C 8.992318 9.027319 8.985181 9.046907 8.98061 9.06144 C 8.97604 9.075972 8.970184 9.101706 8.9676 9.118624 C 8.963544 9.145179 8.962906 9.247042 8.962938 9.863209 C 8.96297 10.474644 8.963639 10.581358 8.967608 10.607208 C 8.970157 10.623806 8.975635 10.648729 8.979782 10.662592 C 8.983931 10.676455 8.991657 10.69752 8.996955 10.709402 C 9.002253 10.721284 9.013642 10.742349 9.022266 10.756212 C 9.03089 10.770075 9.048414 10.792934 9.061209 10.807013 C 9.074003 10.821091 9.095418 10.84076 9.108799 10.850723 C 9.122179 10.860687 9.143989 10.873999 9.157266 10.880304 C 9.170542 10.886611 9.195014 10.895295 9.211648 10.899603 C 9.241891 10.907434 9.241891 10.907434 12.408688 10.90727 C 15.575483 10.907106 15.575483 10.907106 15.605727 10.899271 C 15.622361 10.894962 15.646832 10.886274 15.660108 10.879967 C 15.673383 10.87366 15.695172 10.860357 15.708525 10.850409 C 15.72188 10.840459 15.742574 10.821597 15.75451 10.808493 C 15.766447 10.795389 15.782443 10.775471 15.790055 10.764229 C 15.797669 10.752987 15.809593 10.731738 15.816555 10.71701 C 15.823515 10.70228 15.832788 10.678259 15.837159 10.663629 C 15.84153 10.649 15.847191 10.623449 15.849736 10.606852 C 15.853712 10.580937 15.854361 10.465306 15.854325 9.788563 L 15.854284 9.000452 L 19.75909 9.00025 L 23.663897 9.000047 L 23.663939 9.788157 C 23.663973 10.464901 23.664635 10.580532 23.668612 10.606445 C 23.67116 10.623043 23.676638 10.647966 23.680786 10.661829 C 23.684933 10.675693 23.692661 10.696757 23.697958 10.708639 C 23.703257 10.720521 23.714647 10.741585 23.72327 10.755448 C 23.731895 10.769312 23.749418 10.792171 23.762213 10.80625 C 23.775007 10.820328 23.796423 10.839997 23.809803 10.84996 C 23.823183 10.859924 23.844994 10.873236 23.858269 10.879541 C 23.871546 10.885848 23.896017 10.894532 23.912651 10.89884 C 23.942894 10.906672 23.942894 10.906672 24.558783 10.90664 C 25.141603 10.90661 25.176168 10.906256 25.202518 10.900066 C 25.217833 10.896468 25.241091 10.888803 25.254198 10.883032 C 25.267309 10.877262 25.290041 10.864109 25.304714 10.853804 C 25.319391 10.843496 25.343241 10.822087 25.357714 10.806227 C 25.372189 10.790367 25.391264 10.765142 25.400101 10.750174 C 25.408941 10.735201 25.421059 10.710994 25.427034 10.696373 C 25.433004 10.681755 25.441666 10.654209 25.44628 10.635159 C 25.45467 10.600523 25.45467 10.600523 25.455465 9.800239 L 25.456259 8.999954 L 29.36097 8.999751 L 33.265682 8.999548 L 33.26664 9.803434 C 33.267605 10.607319 33.267605 10.607319 33.274849 10.636126 C 33.278835 10.651968 33.288361 10.680084 33.296021 10.698605 C 33.303677 10.717123 33.316212 10.742239 33.323868 10.754416 C 33.331524 10.766593 33.345661 10.785702 33.355286 10.796885 C 33.364906 10.808065 33.38113 10.824543 33.391331 10.833504 C 33.401539 10.842463 33.419201 10.855636 33.430588 10.862778 C 33.441978 10.869919 33.462563 10.880455 33.476337 10.886191 C 33.490112 10.891928 33.516193 10.899275 33.534298 10.902521 C 33.564671 10.907967 33.811501 10.908322 36.727348 10.907133 C 39.887482 10.905845 39.887482 10.905845 39.917831 10.896268 C 39.934525 10.891001 39.958664 10.881113 39.971474 10.874296 C 39.984283 10.867479 40.005493 10.853647 40.018612 10.843559 C 40.031731 10.83347 40.053833 10.811701 40.06773 10.795181 C 40.081627 10.778661 40.10038 10.751442 40.109413 10.734697 C 40.118443 10.717949 40.129967 10.692008 40.135021 10.677048 C 40.140079 10.662086 40.14679 10.635546 40.149944 10.618069 C 40.155369 10.587978 40.15567 10.547764 40.155636 9.860055 C 40.155598 9.133818 40.155598 9.133818 40.148598 9.098639 C 40.144749 9.079292 40.136005 9.049001 40.129169 9.031325 L 40.116741 8.999189 L 43.703102 8.999905 L 47.289459 9.000622 L 47.375774 9.352577 C 47.423248 9.54615 47.807713 11.11721 48.230137 12.843818 C 48.652569 14.570425 48.999168 15.986624 49.000362 15.990925 C 49.002541 15.998746 49.002541 15.998746 42.428055 15.999087 L 35.853565 15.999428 L 35.853519 15.096376 C 35.853477 14.301525 35.852901 14.190753 35.848694 14.171864 C 35.846062 14.16006 35.838737 14.13825 35.832417 14.123397 C 35.823799 14.103144 35.814541 14.089105 35.795387 14.067249 C 35.776234 14.045394 35.763931 14.034828 35.746181 14.024996 C 35.733166 14.017785 35.714054 14.009431 35.703709 14.006431 C 35.687294 14.00167 35.62035 14.000979 35.177212 14.001002 C 34.726082 14.001026 34.667389 14.001658 34.650402 14.006683 C 34.639889 14.009793 34.622475 14.017241 34.611706 14.023232 C 34.600941 14.029224 34.584091 14.041327 34.574268 14.050127 C 34.564442 14.058928 34.549854 14.076192 34.541847 14.088494 C 34.533844 14.100797 34.523354 14.120659 34.518543 14.132632 C 34.513729 14.144606 34.507545 14.166818 34.504803 14.181993 C 34.500324 14.206724 34.499813 14.302274 34.499855 15.10454 L 34.499901 15.999498 L 32.726566 15.999591 L 30.953232 15.999682 L 30.953173 14.868833 C 30.953119 13.843755 30.952641 13.735559 30.948048 13.712067 C 30.945261 13.697812 30.937664 13.673186 30.931171 13.657344 C 30.924675 13.6415 30.912498 13.618207 30.904114 13.605578 C 30.895727 13.592952 30.879538 13.573812 30.868132 13.563045 C 30.85673 13.552279 30.83604 13.53706 30.822155 13.529223 C 30.80827 13.521388 30.784842 13.511678 30.77009 13.507645 C 30.743494 13.500374 30.737909 13.500321 30.107456 13.501448 C 29.471643 13.502584 29.471643 13.502584 29.4464 13.512695 C 29.432516 13.518257 29.411217 13.52944 29.399071 13.537548 C 29.385944 13.546309 29.366104 13.564859 29.350164 13.583272 C 29.330776 13.605668 29.319687 13.622234 29.310152 13.643044 C 29.302895 13.658876 29.293669 13.683985 29.289644 13.698838 C 29.28233 13.725845 29.28233 13.725845 29.281567 14.862807 L 29.280804 15.999769 L 27.507521 15.999862 L 25.73424 15.999953 L 25.733341 14.238247 C 25.732441 12.476542 25.732441 12.476542 25.723978 12.441593 C 25.719324 12.422371 25.709894 12.392948 25.703018 12.37621 C 25.696142 12.359471 25.684034 12.334335 25.676105 12.320353 C 25.668179 12.30637 25.650629 12.281679 25.637106 12.265483 C 25.623587 12.249288 25.602583 12.227494 25.590435 12.217054 C 25.578287 12.206614 25.557697 12.191552 25.54468 12.183581 C 25.531664 12.175612 25.508228 12.164216 25.492603 12.158258 C 25.476973 12.1523 25.451584 12.144917 25.436178 12.141851 C 25.411362 12.136915 25.311459 12.136285 24.560194 12.136324 C 23.808929 12.136362 23.709023 12.137003 23.684208 12.141943 C 23.668804 12.14501 23.643415 12.152406 23.627789 12.158381 C 23.61216 12.164354 23.588499 12.175856 23.575203 12.183939 C 23.561909 12.192022 23.541573 12.206718 23.530014 12.216599 C 23.518456 12.226478 23.499674 12.245283 23.488279 12.258387 C 23.476883 12.271492 23.460526 12.293556 23.451929 12.307421 C 23.443333 12.321284 23.430754 12.345146 23.423975 12.360446 C 23.417194 12.375747 23.40798 12.40074 23.403496 12.415988 C 23.399012 12.431234 23.393038 12.455175 23.390221 12.469189 C 23.385542 12.492472 23.385025 12.645644 23.384222 14.247372 L 23.383343 16.000076 L 21.611629 16.000168 L 19.839916 16.000259 L 19.839859 14.879073 C 19.839808 13.888964 19.839237 13.754193 19.834972 13.7263 C 19.832315 13.708928 19.825829 13.682886 19.820553 13.668427 C 19.815277 13.65397 19.80415 13.631108 19.795822 13.617624 C 19.787497 13.604139 19.772886 13.584731 19.763361 13.574492 C 19.753834 13.564253 19.738306 13.550232 19.728855 13.543332 C 19.719402 13.536433 19.702602 13.526435 19.691521 13.521112 C 19.680439 13.515791 19.662052 13.509182 19.650661 13.506428 C 19.633375 13.502247 19.526293 13.501413 19.002651 13.501389 C 18.441734 13.501363 18.372948 13.501963 18.35264 13.507066 C 18.340149 13.510204 18.31715 13.519808 18.301531 13.528407 C 18.285912 13.537006 18.264664 13.551886 18.254311 13.561472 C 18.243958 13.571058 18.228092 13.589358 18.219055 13.602139 C 18.21002 13.614919 18.197464 13.637295 18.191153 13.651863 C 18.184841 13.66643 18.176569 13.690786 18.17277 13.705987 C 18.165859 13.733624 18.165859 13.733624 18.165077 14.866985 L 18.164293 16.000347 L 16.392633 16.000439 L 14.620972 16.00053 L 14.620094 15.094021 C 14.619215 14.187512 14.619215 14.187512 14.610567 14.158706 C 14.605812 14.142863 14.596066 14.119419 14.588911 14.10661 C 14.581756 14.093801 14.567547 14.074136 14.557337 14.06291 C 14.546766 14.051292 14.528075 14.036151 14.513942 14.027761 C 14.500287 14.019656 14.480048 14.010585 14.468964 14.007605 C 14.451464 14.002897 14.382185 14.002181 13.942246 14.002158 C 13.500005 14.002134 13.433291 14.002824 13.416872 14.007587 C 13.406529 14.010589 13.387418 14.018945 13.374402 14.026156 C 13.356556 14.036046 13.344495 14.046436 13.325348 14.068416 C 13.308228 14.088067 13.296242 14.10577 13.28855 14.122766 C 13.282277 14.13663 13.274571 14.157695 13.271429 14.169579 C 13.265988 14.190145 13.265672 14.234658 13.264829 15.095892 L 13.263946 16.000601 L 6.631144 16.000944 C -0.001657 16.001289 -0.001657 16.001289 0.000517 15.993468 C 0.001714 15.989167 0.348168 14.572932 0.770416 12.846281 C 1.192663 11.119629 1.576964 9.548531 1.624417 9.354952 L 1.710694 9.002987 Z"/>
    <path id="path1" fill="#da2031" fill-rule="evenodd" stroke="none" d="M 12.131594 9.000642 C 12.133366 7.342794 12.132621 7.02228 12.13028 7.000098 C 12.128403 6.98228 12.123926 6.956615 12.120336 6.943065 C 12.116744 6.929514 12.108563 6.906189 12.102159 6.89123 C 12.095752 6.876269 12.081284 6.850182 12.070005 6.833254 C 12.057711 6.8148 12.03799 6.791395 12.020752 6.774799 C 12.004938 6.759574 11.982697 6.740808 11.971322 6.733093 C 11.959949 6.725379 11.937245 6.712728 11.920868 6.704981 C 11.904491 6.697231 11.877311 6.687239 11.860468 6.682772 C 11.843624 6.678306 11.813059 6.673177 11.792544 6.671374 C 11.769155 6.669321 11.543279 6.6681 11.18685 6.668101 L 10.618454 6.668102 L 10.618423 6.055849 L 10.61839 5.443595 L 11.395982 5.442625 C 12.173573 5.441656 12.173573 5.441656 12.20055 5.434422 C 12.215387 5.430444 12.238187 5.422268 12.251217 5.416254 C 12.264245 5.410241 12.284102 5.399081 12.295344 5.391454 C 12.306584 5.383828 12.325107 5.368275 12.336502 5.356891 C 12.347898 5.345507 12.364446 5.324957 12.373276 5.311225 C 12.382107 5.297494 12.393812 5.274692 12.399287 5.260553 C 12.404765 5.246417 12.411312 5.224055 12.413839 5.210862 C 12.417687 5.190762 12.418427 5.099014 12.418404 4.644787 C 12.41838 4.190559 12.417631 4.098812 12.41378 4.078712 C 12.411252 4.065519 12.404635 4.042948 12.399078 4.028554 C 12.39352 4.014159 12.382979 3.993117 12.375653 3.981792 C 12.368328 3.970469 12.355648 3.953382 12.347476 3.943826 C 12.339304 3.934266 12.322534 3.918567 12.310211 3.908935 C 12.297886 3.899305 12.274488 3.884879 12.258216 3.876879 C 12.241941 3.86888 12.216951 3.859107 12.202681 3.855164 C 12.176869 3.848031 12.175121 3.847988 11.867794 3.846975 L 11.558854 3.845959 L 11.559653 3.396582 L 11.560452 2.947205 L 12.256651 2.94635 L 12.952849 2.945498 L 13.791502 1.780642 L 14.630154 0.615788 L 14.630137 0.308141 L 14.630122 0.000495 L 15.295354 0.000461 C 15.927632 0.000427 15.96047 0.000708 15.95826 0.006096 C 15.95698 0.009213 15.952811 0.027074 15.948996 0.045783 C 15.943 0.075181 15.942059 0.090799 15.942061 0.160794 C 15.942064 0.206855 15.943734 0.252966 15.945934 0.267706 C 15.948062 0.28196 15.953578 0.306744 15.95819 0.322781 C 15.962805 0.338818 15.974528 0.367975 15.984245 0.387574 C 15.99396 0.407174 16.011381 0.435762 16.022953 0.451105 C 16.034527 0.466446 16.055805 0.490094 16.07024 0.503656 C 16.084673 0.517218 16.108608 0.536373 16.12343 0.546223 C 16.13825 0.556071 16.162628 0.569864 16.177605 0.576873 C 16.192577 0.583881 16.21763 0.593321 16.233278 0.597849 C 16.248922 0.602377 16.274456 0.60794 16.290018 0.61021 C 16.312891 0.613548 17.898428 0.614257 24.563227 0.613912 C 32.378056 0.613505 32.809864 0.613189 32.841164 0.607853 C 32.859325 0.604756 32.885445 0.598475 32.899204 0.593896 C 32.912964 0.589316 32.935894 0.579917 32.950169 0.573008 C 32.964439 0.566099 32.986877 0.553227 33.000031 0.544406 C 33.013187 0.535584 33.034691 0.518647 33.047821 0.506766 C 33.060955 0.494887 33.080975 0.473214 33.092316 0.458605 C 33.103657 0.443995 33.118938 0.421837 33.126282 0.409363 C 33.133621 0.396889 33.14415 0.37575 33.149677 0.362386 C 33.155201 0.349021 33.16333 0.324275 33.167744 0.307392 C 33.17215 0.29051 33.177402 0.259166 33.179413 0.237738 C 33.181625 0.214188 33.182289 0.173789 33.181095 0.135601 C 33.179726 0.091811 33.177177 0.063326 33.172787 0.042766 C 33.169304 0.026454 33.165482 0.010053 33.164295 0.006319 C 33.16214 -0.000467 33.16214 -0.000467 33.765621 -0.000498 L 34.369099 -0.00053 L 34.369114 0.307107 L 34.369133 0.614742 L 35.207905 1.779521 L 36.04668 2.944299 L 36.742878 2.945079 L 37.439075 2.945861 L 37.439922 3.395208 L 37.440765 3.844555 L 37.193451 3.845664 C 36.950397 3.846756 36.945686 3.846897 36.920189 3.853903 C 36.905918 3.857823 36.879646 3.868242 36.861809 3.877054 C 36.843971 3.885868 36.8195 3.901247 36.807434 3.911231 C 36.795364 3.921216 36.776722 3.940409 36.766006 3.953884 C 36.755283 3.967358 36.740036 3.991727 36.732117 4.008038 C 36.724201 4.024348 36.715115 4.048607 36.711929 4.061947 C 36.70649 4.084743 36.706142 4.119809 36.706169 4.645367 C 36.706196 5.20453 36.706196 5.20453 36.713577 5.230185 C 36.717632 5.244293 36.726692 5.267501 36.7337 5.281755 C 36.740715 5.296009 36.754284 5.317877 36.763851 5.33035 C 36.773426 5.342823 36.791927 5.36198 36.80497 5.372925 C 36.818012 5.383868 36.841263 5.399413 36.856636 5.407471 C 36.872013 5.415528 36.89481 5.425128 36.907295 5.428805 C 36.919781 5.432483 36.942368 5.43698 36.957481 5.4388 C 36.97541 5.440959 37.227753 5.442097 37.683182 5.442074 L 38.381397 5.442038 L 38.381428 6.054349 L 38.381458 6.666661 L 37.874687 6.666739 C 37.575279 6.666786 37.352654 6.668104 37.330616 6.669964 C 37.310101 6.671694 37.279507 6.676832 37.262623 6.681379 C 37.245735 6.685926 37.218395 6.696049 37.201862 6.703873 C 37.185329 6.711698 37.161152 6.725455 37.148132 6.734446 C 37.135113 6.743436 37.113209 6.762129 37.099453 6.775986 C 37.085693 6.789843 37.066994 6.811384 37.057899 6.823858 C 37.048801 6.836332 37.035 6.859658 37.027222 6.875695 C 37.019444 6.891733 37.009296 6.917974 37.004669 6.934012 C 37.000038 6.950049 36.994736 6.977749 36.992882 6.995568 C 36.990601 7.017484 36.989883 7.346853 36.990662 8.013659 L 36.99181 8.999352 L 36.068478 8.999399 L 35.145145 8.999447 L 35.157791 8.972492 C 35.164745 8.957668 35.173771 8.932518 35.177849 8.916606 C 35.185112 8.888252 35.185261 8.884248 35.185253 8.715948 C 35.185246 8.585554 35.1842 8.539161 35.18092 8.523184 C 35.178539 8.511612 35.171856 8.489506 35.166061 8.47406 C 35.160267 8.458612 35.147617 8.433283 35.137947 8.417772 C 35.128277 8.402261 35.108692 8.37763 35.094421 8.363036 C 35.080147 8.348442 35.059162 8.330219 35.047791 8.322543 C 35.036411 8.314867 35.013725 8.302256 34.997372 8.294521 C 34.981022 8.286785 34.955299 8.277128 34.940216 8.273064 C 34.912788 8.265673 34.912788 8.265673 30.197781 8.265091 L 25.482773 8.264511 L 25.482718 7.228224 C 25.482672 6.331685 25.482021 6.188275 25.477903 6.164784 C 25.475283 6.149852 25.46965 6.127428 25.465385 6.114955 C 25.461123 6.102482 25.452398 6.081905 25.445999 6.069228 C 25.439602 6.056551 25.425316 6.034181 25.414251 6.019515 C 25.403187 6.004849 25.383574 5.983878 25.370668 5.972913 C 25.357761 5.961946 25.335371 5.945861 25.32091 5.937165 C 25.30645 5.928473 25.280153 5.916413 25.262476 5.910368 C 25.244799 5.904323 25.218874 5.897954 25.204865 5.896214 C 25.190331 5.894409 25.026957 5.892497 24.824251 5.891761 C 24.628922 5.891052 24.342859 5.891517 24.188557 5.892794 C 23.908007 5.895113 23.908007 5.895113 23.878817 5.904005 C 23.862762 5.908895 23.837685 5.918648 23.823084 5.925674 C 23.808487 5.932702 23.784922 5.947202 23.770718 5.957893 C 23.756514 5.968586 23.737194 5.985721 23.727785 5.995974 C 23.718374 6.006227 23.702833 6.026604 23.693247 6.041258 C 23.683662 6.055911 23.671463 6.078456 23.666138 6.091354 C 23.660814 6.104254 23.653252 6.125796 23.649332 6.139227 C 23.642206 6.163646 23.642206 6.163646 23.641346 7.214134 L 23.640486 8.264622 L 18.935751 8.264866 C 14.231016 8.26511 14.231016 8.26511 14.198482 8.271736 C 14.180589 8.275378 14.153813 8.283248 14.138983 8.289222 C 14.124152 8.295197 14.099888 8.308002 14.085061 8.317682 C 14.070235 8.32736 14.049854 8.342837 14.03977 8.352075 C 14.029687 8.361312 14.013398 8.379422 14.003572 8.392321 C 13.993748 8.405218 13.980462 8.425388 13.974049 8.43714 C 13.967634 8.448895 13.958609 8.469305 13.953991 8.482498 C 13.949374 8.495691 13.943439 8.516691 13.940802 8.529165 C 13.937314 8.545658 13.935496 8.584534 13.934135 8.671714 C 13.933003 8.744281 13.933647 8.812679 13.935766 8.84504 C 13.938415 8.885464 13.941342 8.905553 13.947781 8.927446 C 13.952461 8.943368 13.961193 8.966331 13.967182 8.978472 L 13.97807 9.000546 L 13.054832 9.000594 L 12.131594 9.000642 Z M 14.977787 7.814565 C 15.302132 7.81471 15.344851 7.814154 15.3605 7.809581 C 15.37019 7.80675 15.385009 7.800063 15.393433 7.794721 C 15.401857 7.789378 15.41317 7.779976 15.418573 7.773827 C 15.423978 7.767679 15.432111 7.755329 15.436649 7.746383 C 15.441397 7.737022 15.446335 7.719536 15.448279 7.705194 C 15.450577 7.688261 15.451294 7.409228 15.450518 6.834699 C 15.449376 5.989125 15.449376 5.989125 15.441802 5.970385 C 15.437277 5.959188 15.427261 5.944127 15.416918 5.932967 C 15.406689 5.921934 15.391871 5.91038 15.380703 5.904734 C 15.361801 5.895177 15.361801 5.895177 14.980709 5.895197 C 14.610548 5.895216 14.599151 5.895398 14.5834 5.901537 C 14.572698 5.905707 14.559915 5.915071 14.545807 5.929076 C 14.530221 5.944546 14.522312 5.955564 14.516619 5.969735 C 14.508807 5.989174 14.508807 5.989174 14.508852 6.851347 C 14.508895 7.680099 14.509128 7.714201 14.514867 7.731063 C 14.51815 7.74071 14.525822 7.755465 14.531915 7.76385 C 14.538008 7.772235 14.549915 7.784202 14.558381 7.790443 C 14.566844 7.796685 14.582526 7.804628 14.593228 7.808098 C 14.612025 7.814187 14.625136 7.814407 14.977787 7.814565 Z M 17.455769 7.814361 C 17.754736 7.814593 17.766697 7.814373 17.790943 7.808178 C 17.80477 7.804644 17.825802 7.797005 17.837679 7.791203 C 17.852694 7.783868 17.867222 7.772746 17.885368 7.754697 C 17.902103 7.738051 17.915388 7.721236 17.922403 7.707817 C 17.928421 7.696308 17.936378 7.678084 17.94009 7.667319 C 17.946836 7.647746 17.946836 7.647746 17.947897 6.871826 C 17.948612 6.350589 17.947861 6.087813 17.945612 6.071253 C 17.943771 6.057693 17.939278 6.038111 17.935627 6.027737 C 17.931976 6.017363 17.924227 6.000809 17.918409 5.990951 C 17.91259 5.981092 17.898174 5.963401 17.886375 5.951635 C 17.87212 5.937421 17.856215 5.925719 17.838974 5.916761 C 17.824703 5.909347 17.803709 5.901085 17.792316 5.898402 C 17.774622 5.894238 17.725498 5.893522 17.455248 5.893496 C 17.183832 5.893469 17.136148 5.894159 17.119562 5.898354 C 17.108932 5.901042 17.089714 5.9085 17.07686 5.914927 C 17.064005 5.921354 17.044592 5.934653 17.033722 5.94448 C 17.02285 5.954309 17.008406 5.970542 17.001623 5.980557 C 16.994841 5.990571 16.986067 6.006054 16.982128 6.014963 C 16.978188 6.023872 16.972889 6.03991 16.970352 6.050601 C 16.966431 6.067127 16.965738 6.187324 16.965731 6.85273 C 16.965725 7.616075 16.965879 7.636027 16.972 7.659926 C 16.975451 7.673404 16.981871 7.691518 16.986265 7.700179 C 16.99066 7.708839 17.001043 7.724944 17.009338 7.735969 C 17.017635 7.746992 17.033476 7.762859 17.044538 7.771229 C 17.055603 7.779598 17.074085 7.790756 17.085613 7.796024 C 17.097141 7.801293 17.115385 7.807521 17.126156 7.809861 C 17.141521 7.813203 17.212509 7.814171 17.455769 7.814361 Z M 19.606106 7.814249 C 20.048742 7.814477 20.059416 7.814339 20.084497 7.807996 C 20.098608 7.804428 20.119402 7.796854 20.130709 7.791165 C 20.142015 7.785476 20.161219 7.771614 20.173386 7.760362 C 20.185553 7.749109 20.201025 7.731596 20.207769 7.721445 C 20.214514 7.711295 20.224499 7.690534 20.229956 7.675307 C 20.239878 7.647627 20.239878 7.647627 20.240944 6.873327 C 20.24164 6.366265 20.240879 6.089387 20.238735 6.071095 C 20.236654 6.053322 20.231815 6.034467 20.225431 6.019259 C 20.219913 6.006114 20.208172 5.985581 20.199337 5.973632 C 20.190502 5.961682 20.175003 5.945421 20.16489 5.937495 C 20.154778 5.929568 20.137451 5.918674 20.126383 5.913284 C 20.115314 5.907894 20.097414 5.901196 20.086607 5.898397 C 20.069197 5.893893 20.014441 5.893315 19.606739 5.893336 C 19.206297 5.893357 19.144011 5.893998 19.127192 5.89827 C 19.11656 5.90097 19.096916 5.908487 19.083536 5.914977 C 19.065296 5.923826 19.052649 5.933332 19.032963 5.952998 C 19.013468 5.972475 19.003641 5.985473 18.99477 6.00352 C 18.988203 6.016884 18.980352 6.035837 18.977325 6.045637 C 18.972235 6.062127 18.971737 6.119729 18.970642 6.818317 C 18.969877 7.306318 18.970612 7.588067 18.972725 7.615295 C 18.975077 7.645633 18.978222 7.663507 18.983973 7.679205 C 18.988363 7.691191 18.998213 7.710587 19.005857 7.722306 C 19.013502 7.734028 19.028658 7.751662 19.039532 7.761497 C 19.050421 7.771339 19.070971 7.78513 19.085257 7.792175 C 19.099527 7.799213 19.120689 7.807007 19.132286 7.809493 C 19.149723 7.813233 19.231617 7.814056 19.606106 7.814249 Z M 21.877775 7.814075 C 22.31584 7.814223 22.393518 7.81356 22.412926 7.809503 C 22.425413 7.806893 22.447985 7.798672 22.463087 7.791234 C 22.484188 7.780843 22.496214 7.772016 22.515026 7.753106 C 22.532393 7.735653 22.543036 7.721439 22.551645 7.704203 C 22.558321 7.690838 22.566326 7.669699 22.569435 7.657225 C 22.574726 7.63598 22.575081 7.585297 22.575043 6.85536 C 22.57501 6.224035 22.574194 6.072185 22.570734 6.055143 C 22.568386 6.043576 22.561817 6.023925 22.556137 6.011474 C 22.550457 5.999022 22.539133 5.980516 22.530973 5.970348 C 22.522814 5.96018 22.508945 5.945881 22.50016 5.938573 C 22.491371 5.931265 22.473965 5.920273 22.461477 5.914145 C 22.44899 5.908019 22.430075 5.900797 22.419443 5.898099 C 22.402565 5.893815 22.333994 5.893201 21.879427 5.893266 C 21.431807 5.893331 21.35589 5.894013 21.338436 5.898124 C 21.327269 5.900755 21.309025 5.907494 21.297895 5.913098 C 21.286766 5.918702 21.269173 5.929939 21.258802 5.938067 C 21.248432 5.946198 21.233574 5.961317 21.225786 5.971667 C 21.217997 5.98202 21.207836 5.998485 21.203209 6.00826 C 21.198582 6.018033 21.192278 6.035617 21.189201 6.047332 C 21.183981 6.067219 21.183611 6.120613 21.183649 6.850034 C 21.183681 7.472262 21.184538 7.635715 21.187847 7.652462 C 21.190134 7.664031 21.197985 7.685761 21.205296 7.700751 C 21.215456 7.721584 21.224415 7.73388 21.243307 7.752923 C 21.262537 7.772307 21.274143 7.780838 21.295593 7.791348 C 21.310757 7.798778 21.332649 7.806891 21.344244 7.809378 C 21.361759 7.813136 21.452024 7.81393 21.877775 7.814075 Z M 27.242262 7.813797 C 27.680325 7.813945 27.758003 7.813281 27.777412 7.809224 C 27.789898 7.806615 27.812471 7.798393 27.827574 7.790956 C 27.848577 7.780612 27.860838 7.771634 27.879734 7.752756 C 27.897697 7.73481 27.907681 7.721471 27.916332 7.703853 C 27.922876 7.690528 27.93078 7.66942 27.933899 7.656946 C 27.939219 7.635668 27.939568 7.586149 27.939531 6.855082 C 27.939497 6.223757 27.938679 6.071906 27.935223 6.054865 C 27.932875 6.043298 27.926306 6.023646 27.920626 6.011195 C 27.914942 5.998744 27.903618 5.980238 27.895458 5.97007 C 27.887299 5.959902 27.873436 5.945602 27.864645 5.938294 C 27.855858 5.930986 27.838203 5.919808 27.825411 5.913454 C 27.81262 5.907099 27.793644 5.8999 27.783247 5.897457 C 27.767641 5.893789 27.673475 5.893019 27.243784 5.893038 C 26.796156 5.89306 26.720383 5.893733 26.702923 5.897845 C 26.691757 5.900476 26.673513 5.907215 26.66238 5.91282 C 26.651251 5.918424 26.633661 5.929661 26.623291 5.937789 C 26.612919 5.945919 26.598061 5.961039 26.590273 5.971389 C 26.582483 5.981742 26.572325 5.998207 26.567696 6.007981 C 26.563068 6.017755 26.556763 6.035338 26.553688 6.047053 C 26.548466 6.06694 26.5481 6.120335 26.548136 6.849755 C 26.548168 7.471984 26.549023 7.635436 26.552334 7.652184 C 26.554621 7.663753 26.562473 7.685483 26.569784 7.700473 C 26.579945 7.721306 26.588902 7.733602 26.607792 7.752645 C 26.627026 7.772029 26.638632 7.78056 26.66008 7.79107 C 26.675243 7.798499 26.697136 7.806613 26.708733 7.809099 C 26.726248 7.812858 26.816509 7.813651 27.242262 7.813797 Z M 29.514223 7.813581 C 29.901667 7.813817 29.969919 7.813169 29.989281 7.809072 C 30.001715 7.806438 30.022146 7.799394 30.034687 7.793413 C 30.047222 7.787433 30.065159 7.776444 30.074539 7.768994 C 30.083921 7.761543 30.098011 7.747283 30.10585 7.737304 C 30.113691 7.727326 30.12464 7.709867 30.130186 7.698509 C 30.135727 7.68715 30.142412 7.668752 30.145039 7.657624 C 30.149174 7.640104 30.149815 7.532097 30.14982 6.851624 C 30.149826 6.160251 30.149239 6.063538 30.144913 6.046548 C 30.142208 6.035929 30.134682 6.016305 30.128185 6.002942 C 30.119328 5.98472 30.10981 5.972088 30.090124 5.952424 C 30.070511 5.932835 30.05772 5.923208 30.039545 5.914356 C 30.026167 5.90784 30.005733 5.900255 29.994139 5.897502 C 29.975529 5.893083 29.918409 5.892612 29.507637 5.89348 C 29.042217 5.894466 29.042217 5.894466 29.017965 5.903309 C 29.004627 5.908173 28.983774 5.918936 28.971624 5.927229 C 28.959478 5.93552 28.942205 5.950495 28.933243 5.960505 C 28.924278 5.970516 28.911144 5.990371 28.90406 6.004625 C 28.896307 6.020225 28.889212 6.040863 28.886238 6.056462 C 28.881878 6.079326 28.88142 6.174767 28.882339 6.866399 C 28.883385 7.650418 28.883385 7.650418 28.89126 7.672649 C 28.89559 7.684877 28.904348 7.703489 28.910721 7.714009 C 28.917095 7.724528 28.931349 7.742229 28.942396 7.753344 C 28.953445 7.764459 28.970331 7.778301 28.979919 7.784104 C 28.989504 7.789908 29.005993 7.79769 29.016556 7.801399 C 29.027119 7.805107 29.041616 7.809302 29.048771 7.810723 C 29.055923 7.812143 29.265379 7.81343 29.514223 7.813581 Z M 31.674288 7.812879 C 31.993757 7.812243 31.993757 7.812243 32.017548 7.803562 C 32.030628 7.798788 32.049385 7.79004 32.059223 7.784122 C 32.069061 7.778204 32.08609 7.764398 32.097057 7.753439 C 32.108025 7.74248 32.121845 7.725474 32.127769 7.715644 C 32.133694 7.705815 32.142452 7.68708 32.147224 7.67401 C 32.155914 7.650248 32.155914 7.650248 32.156986 6.866229 C 32.157944 6.165656 32.157516 6.079452 32.152985 6.056293 C 32.150009 6.041073 32.142609 6.019676 32.135048 6.004457 C 32.127972 5.990203 32.114735 5.970226 32.105637 5.960064 C 32.096535 5.949902 32.078491 5.934507 32.065536 5.925853 C 32.052582 5.917199 32.031109 5.906562 32.017822 5.902215 C 31.993658 5.894314 31.993658 5.894314 31.66608 5.89433 C 31.338503 5.894347 31.338503 5.894347 31.315067 5.902018 C 31.302181 5.906238 31.280754 5.916826 31.267458 5.925548 C 31.254158 5.93427 31.235786 5.949772 31.226633 5.959996 C 31.217478 5.970222 31.204187 5.990252 31.197104 6.004506 C 31.18935 6.020105 31.182253 6.040744 31.179279 6.056343 C 31.174919 6.079206 31.174463 6.174476 31.175383 6.86466 C 31.176426 7.647059 31.176426 7.647059 31.183985 7.669737 C 31.188145 7.68221 31.197163 7.701972 31.204031 7.713653 C 31.21104 7.725581 31.226934 7.74475 31.240286 7.757387 C 31.25429 7.770637 31.273026 7.7844 31.285872 7.79087 C 31.297867 7.796911 31.318287 7.804477 31.331251 7.807683 C 31.353231 7.81312 31.376345 7.81347 31.674288 7.812879 Z M 34.142693 7.81357 C 34.467041 7.813715 34.509758 7.813159 34.525406 7.808586 C 34.535095 7.805756 34.549915 7.799068 34.558342 7.793726 C 34.566761 7.788383 34.578075 7.778981 34.583481 7.772832 C 34.588886 7.766685 34.597019 7.754334 34.601555 7.745388 C 34.6063 7.736032 34.611244 7.718534 34.61319 7.7042 C 34.61549 7.687252 34.616207 7.408732 34.615425 6.833704 C 34.614285 5.988131 34.614285 5.988131 34.606709 5.96939 C 34.6022 5.958231 34.592178 5.943144 34.581936 5.932095 C 34.570644 5.919914 34.557766 5.910212 34.54446 5.903859 C 34.524189 5.894182 34.524189 5.894182 34.144356 5.894202 C 33.777832 5.894221 33.763954 5.89444 33.748306 5.900432 C 33.737392 5.904612 33.725101 5.913618 33.710712 5.927971 C 33.69519 5.943458 33.687195 5.954628 33.681522 5.96874 C 33.673714 5.988179 33.673714 5.988179 33.673759 6.850352 C 33.673801 7.679104 33.674034 7.713206 33.679775 7.730068 C 33.683056 7.739716 33.690727 7.75447 33.696819 7.762856 C 33.702915 7.77124 33.714825 7.783207 33.723286 7.789449 C 33.73175 7.795691 33.747433 7.803634 33.758137 7.807103 C 33.776932 7.813192 33.790043 7.813413 34.142693 7.81357 Z M 24.557646 5.319353 C 25.042854 5.319532 25.256292 5.318551 25.272297 5.31607 C 25.284847 5.314125 25.305508 5.309002 25.318209 5.304686 C 25.33091 5.30037 25.351395 5.290847 25.363735 5.283524 C 25.376074 5.2762 25.396 5.260547 25.408016 5.248737 C 25.420033 5.236929 25.435722 5.21819 25.442886 5.207098 C 25.45005 5.196005 25.459614 5.17769 25.46414 5.166396 C 25.468666 5.155103 25.474672 5.134718 25.477488 5.121094 C 25.482058 5.098989 25.482605 5.023526 25.482573 4.418946 C 25.482542 3.814366 25.481987 3.738905 25.477415 3.7168 C 25.474598 3.703176 25.468588 3.682793 25.464062 3.671499 C 25.459536 3.660206 25.450006 3.641964 25.442886 3.63096 C 25.435766 3.619958 25.420973 3.602073 25.410017 3.591215 C 25.399057 3.580359 25.380655 3.565367 25.36912 3.557901 C 25.35758 3.550435 25.336275 3.540038 25.321775 3.534799 C 25.307276 3.529556 25.284134 3.523703 25.270353 3.52179 C 25.253136 3.519399 25.031292 3.51832 24.561417 3.518345 C 24.101986 3.518369 23.869514 3.519496 23.853085 3.521779 C 23.839632 3.523648 23.818052 3.528771 23.805126 3.533164 C 23.792202 3.537556 23.771358 3.547191 23.758808 3.554576 C 23.746061 3.562075 23.725252 3.578919 23.711666 3.59274 C 23.698288 3.606345 23.682446 3.625757 23.676462 3.635876 C 23.670479 3.645995 23.661991 3.663157 23.657602 3.674013 C 23.653212 3.68487 23.647552 3.703501 23.645027 3.715414 C 23.641146 3.733712 23.640436 3.842954 23.640467 4.419043 C 23.640497 4.995131 23.641216 5.104372 23.6451 5.12267 C 23.647627 5.134583 23.653288 5.153213 23.657679 5.164069 C 23.662069 5.174926 23.670559 5.191915 23.676544 5.201825 C 23.682528 5.211734 23.69533 5.228588 23.70499 5.239279 C 23.714651 5.24997 23.732616 5.265774 23.744913 5.2744 C 23.75721 5.283025 23.778013 5.294548 23.791145 5.300007 C 23.804276 5.305467 23.826447 5.311996 23.840414 5.314517 C 23.861761 5.318367 23.976217 5.319139 24.557646 5.319353 Z"/>
</svg>