<svg xmlns="http://www.w3.org/2000/svg" width="19" height="19" viewBox="-29.339 0 58.678 58.678">
  <path fill="#001f50" d="M-29.35 0h58.7v58.7h-58.7z"/>
  <path fill="#fff" d="M.007 6.745c1.711.013 3.111 2.532 3.111 4.24v10.338s17.106 15.435 17.358 15.666a1.15 1.15 0 0 1 .488 1.152v2.833c0 .65-.45.61-.695.467-.334-.12-17.15-8.863-17.15-8.863-.005 1.458-.798 9.006-1.327 13.304 0 0 4.61 2.457 4.7 2.52.333.269.351.36.351.853v2c0 .478-.352.429-.51.325L.64 49.659a2.6 2.6 0 0 0-.633-.127 2.3 2.3 0 0 0-.666.127s-5.477 1.859-5.672 1.92c-.185.105-.523.154-.523-.323v-2.001c0-.493.03-.584.367-.852.086-.064 4.678-2.521 4.678-2.521-.524-4.298-1.307-11.846-1.325-13.304 0 0-16.822 8.744-17.148 8.863-.217.143-.69.184-.69-.467V38.14a1.16 1.16 0 0 1 .473-1.152c.276-.231 17.365-15.666 17.365-15.666V10.986c0-1.71 1.403-4.228 3.141-4.241"/>
</svg>
