<svg xmlns="http://www.w3.org/2000/svg" width="10" height="10" data-name="图层 1" viewBox="0 0 8.206 3.81">
  <path d="M0 3.084V.34C0 .143.092 0 .309 0H7.89c.198 0 .315.11.315.288v2.796h-.534c-.03-.539-.368-.915-.925-.972-.637-.064-1.108.365-1.138.972H2.607c-.027-.539-.37-.915-.929-.972-.633-.064-1.111.365-1.14.972zm1.929-1.563H.351L.355.461c0-.066.04-.099.11-.099h1.464zM2.274.36h1.64v1.153h-1.64zm1.984 0h1.644v1.16H4.258zm1.986.003H7.74c.101 0 .147.015.147.108v1.042H6.244zm-4.672 2c.421 0 .765.327.765.726 0 .397-.344.721-.765.721-.42 0-.764-.324-.764-.72 0-.4.344-.726.764-.726m5.067 0c.42 0 .762.324.762.722 0 .401-.342.725-.762.725-.423 0-.766-.324-.766-.725 0-.398.343-.721.766-.721" style="fill:#231815;fill-rule:evenodd;stroke-width:0"/>
</svg>
