<svg xmlns="http://www.w3.org/2000/svg" width="10" height="10" data-name="图层 1" viewBox="0 0 8.206 3.784">
  <path d="M1.995 3.13a.646.646 0 0 1-.648.646.646.646 0 0 1-.65-.646c0-.855 1.298-.855 1.298 0m4.87-.646c.359 0 .647.29.647.65a.649.649 0 1 1-1.297 0 .65.65 0 0 1 .65-.65m-1.147.464v-.99H2.46v.986zm-1.78-.174v-.495c0-.103-.115-.108-.192-.114v.72c.096 0 .193.006.193-.111m-.257.112.003-.715-.153.005v-.132h-.388v.118h-.159v.72zm-.443-.783h.209v.062h-.209zm-.5.67V2.28c0-.108.094-.108.193-.114l-.004.72c-.106 0-.19.012-.19-.111m2.709 0V2.28c0-.103-.11-.108-.19-.114l.003.72c.086 0 .187.006.187-.111m-.249.11V2.17h-.16v-.13h-.385v.12h-.159l-.002.717zm-.45-.78h.209v.062h-.209zm-.5.67V2.28c0-.103.118-.108.19-.114v.72c-.092 0-.19.006-.19-.111m3.958.394V.424C8.206.123 8.21 0 7.889 0H.43C.232 0 0-.007 0 .267V3.16h.521c.072-.477.37-.84.848-.823.498.024.743.377.798.849H6.01c.084-.587.384-.897.965-.849.476.048.648.37.728.841zM6.22 1.375v-.94h1.584l.008.94zm-1.983.017V.435h1.62l-.009.957zm-1.947 0L2.28.435h1.622l.002.957zm-.338 0L.364 1.388.362.443 1.958.45z" style="fill:#231815;fill-rule:evenodd;stroke-width:0"/>
</svg>
