<svg xmlns="http://www.w3.org/2000/svg" width="12" height="12" data-name="图层 1" viewBox="0 0 10.82 10.82">
  <path d="M11.127 10.938a1.76 1.76 0 0 0-.973-.011l-.1.029a1.76 1.76 0 0 1-.886.013L8.9 10.9a1.76 1.76 0 0 0-.9.015l-.091.026a1.75 1.75 0 0 1-.946 0l-.1-.028a1.76 1.76 0 0 0-.918-.005l-.175.047a1.6 1.6 0 0 1-.877-.015 1.76 1.76 0 0 0-1.015 0l-.086.025a1.7 1.7 0 0 1-.718.062l-.359-.043v-.417l.359.043a1.7 1.7 0 0 0 .718-.062l.086-.026a1.76 1.76 0 0 1 1.015 0 1.6 1.6 0 0 0 .877.015l.175-.047a1.76 1.76 0 0 1 .918.005l.1.028a1.76 1.76 0 0 0 .946 0L8 10.5a1.76 1.76 0 0 1 .9-.015l.269.066a1.76 1.76 0 0 0 .886-.013l.1-.029a1.76 1.76 0 0 1 .973.011 1.76 1.76 0 0 0 .937.02l.133-.034v.417l-.133.034a1.75 1.75 0 0 1-.938-.019m.573-2.417a.18.18 0 0 1-.172-.138l-.138-.632a.18.18 0 0 0-.162-.138l-.255-.013a.044.044 0 0 1-.043-.049l.384-3.309a.044.044 0 0 0-.039-.049l-.133-.013a.044.044 0 0 0-.048.038l-.423 3.305a.09.09 0 0 1-.088.077h-.12a.09.09 0 0 1-.084-.063l-.222-.758a.11.11 0 0 0-.105-.079H8.995a.2.2 0 0 1-.2-.178l-.085-.836a.09.09 0 0 0-.067-.076L7.2 5.263a.055.055 0 0 0-.067.041L6.82 6.677h-.434l-.162-.552a.09.09 0 0 0-.085-.063h-.346a.044.044 0 0 1-.043-.049l.318-2.763a.043.043 0 0 0-.036-.05l-.155-.026a.066.066 0 0 0-.076.057l-.357 2.75a.065.065 0 0 1-.065.057h-.356a.09.09 0 0 0-.085.067l-.316 1.3a.22.22 0 0 1-.214.167L2.8 7.566l.794 2.546a.09.09 0 0 0 .1.061l.284-.055a1.76 1.76 0 0 1 .843.043l.051.015a1.76 1.76 0 0 0 .959.017l.134-.036a1.75 1.75 0 0 1 .918.005l.1.028a1.77 1.77 0 0 0 .946 0l.091-.026a1.76 1.76 0 0 1 .9-.015l.268.065a1.75 1.75 0 0 0 .887-.013l.151-.042a1.8 1.8 0 0 1 .881-.014l.509.123a.066.066 0 0 0 .076-.046l.509-1.7Zm-4.18-.637a.067.067 0 0 1-.066.066h-.673a.065.065 0 0 1-.063-.05l-.159-.548a.065.065 0 0 1 .063-.084h.834a.066.066 0 0 1 .066.065Zm1.207 0a.066.066 0 0 1-.066.066h-.81a.067.067 0 0 1-.066-.066v-.549a.066.066 0 0 1 .066-.065h.812a.065.065 0 0 1 .066.065ZM10 7.95h-.9a.067.067 0 0 1-.066-.066v-.549A.066.066 0 0 1 9.1 7.27h.721a.065.065 0 0 1 .062.045l.177.549a.066.066 0 0 1-.06.086m1.127 3.822a1.76 1.76 0 0 0-.973-.011l-.1.029a1.76 1.76 0 0 1-.886.013l-.268-.066a1.76 1.76 0 0 0-.9.016l-.091.025a1.75 1.75 0 0 1-.946 0l-.1-.028a1.75 1.75 0 0 0-.918 0l-.175.05a1.6 1.6 0 0 1-.877-.015 1.76 1.76 0 0 0-1.015 0l-.086.026a1.8 1.8 0 0 1-.718.062l-.359-.044v-.417l.359.044a1.8 1.8 0 0 0 .718-.062l.086-.026a1.76 1.76 0 0 1 1.015 0 1.6 1.6 0 0 0 .877.015l.175-.046a1.75 1.75 0 0 1 .918 0l.1.028a1.75 1.75 0 0 0 .946 0L8 11.336a1.76 1.76 0 0 1 .9-.016l.269.066a1.76 1.76 0 0 0 .886-.013l.1-.029a1.76 1.76 0 0 1 .973.011 1.75 1.75 0 0 0 .937.02l.133-.034v.417l-.133.034a1.74 1.74 0 0 1-.938-.02" style="fill:#342c2a" transform="translate(-2.09 -2.09)"/>
  <rect width="10.47" height="10.47" x=".175" y=".175" rx="2.18" style="fill:none;stroke:#342c2a;stroke-miterlimit:10;stroke-width:.35px"/>
</svg>
