<svg xmlns="http://www.w3.org/2000/svg" width="14" height="14" viewBox="0 0 2.692 2.692">
  <path d="M2.467 0H.226A.226.226 0 0 0 0 .226v2.241a.225.225 0 0 0 .226.225h2.241a.225.225 0 0 0 .225-.225V.226A.226.226 0 0 0 2.467 0" style="fill:#2d2a26"/>
  <path d="M1.973 2.126A.4.4 0 0 1 1.83 2.1a.4.4 0 0 0-.347 0 .37.37 0 0 1-.263 0 .4.4 0 0 0-.331 0 .44.44 0 0 1-.247.018C.592 2.1.565 2.088.52 2.077v.162l.057.019a.38.38 0 0 0 .309 0 .4.4 0 0 1 .315 0c.212.093.292-.032.462-.033a.4.4 0 0 1 .153.031.45.45 0 0 0 .357-.015v-.163a.6.6 0 0 1-.2.048" style="fill:#fff;fill-rule:evenodd"/>
  <path d="m.761 1.58.126.436a.3.3 0 0 1 .184-.05.5.5 0 0 1 .167.057.25.25 0 0 0 .117.028.2.2 0 0 0 .106-.031.33.33 0 0 1 .176-.056.4.4 0 0 1 .163.044l.148-.428.186-.238a.13.13 0 0 0 .007-.092.1.1 0 0 0-.055-.065L2 1.148V.863h-.179v-.2h-.284V.4h-.382v.261H.871v.2H.69v.286l-.085.038a.1.1 0 0 0-.054.065.13.13 0 0 0 .006.091ZM.787.959h.181v-.2h.757v.2h.18v.146L1.41.887a.16.16 0 0 0-.144 0l-.479.218Z" style="fill:#fff;fill-rule:evenodd"/>
</svg>
