<svg xmlns="http://www.w3.org/2000/svg" width="19" height="19" viewBox="-29.339 0 58.678 58.678">
  <path fill="#001f50" d="M-29.35 0h58.7v58.7h-58.7z"/>
  <path fill="#fff" d="M16.646 7.984a9.8 9.8 0 0 0-9.8 9.801 9.7 9.7 0 0 0 .342 2.582q.003.037.002.093a.32.32 0 0 1-.315.318 1 1 0 0 1-.128-.02 15.72 15.72 0 0 0-13.498 0 .6.6 0 0 1-.122.02.32.32 0 0 1-.322-.318v-.067a9.6 9.6 0 0 0 .357-2.608 9.803 9.803 0 1 0-9.797 9.8 10 10 0 0 0 2.308-.27h.054a.31.31 0 0 1 .315.317.3.3 0 0 1-.02.12 15.726 15.726 0 1 0 29.704 7.216 15.84 15.84 0 0 0-1.746-7.23.2.2 0 0 1-.028-.106.316.316 0 0 1 .32-.318h.058a10.2 10.2 0 0 0 2.316.271 9.8 9.8 0 0 0 0-19.6"/>
</svg>
