<?xml version="1.0" encoding="UTF-8"?>
<!-- Generated by Pixelmator Pro 3.3.2 -->
<svg width="25" height="25" viewBox="-29.33899 0 58.67798 58.67798" xmlns="http://www.w3.org/2000/svg"
    xmlns:xlink="http://www.w3.org/1999/xlink">
    <circle cx="0" cy="29.33899" r="29.33899" fill="grey" />
    <path
        fill="white"
        d="M45.6152,7.85015a9.80248,9.80248,0,0,0-9.79907,9.801,9.70059,9.70059,0,0,0,.342,2.582c.002.026.002.055.002.093a.31815.31815,0,0,1-.31494.318.67741.67741,0,0,1-.12806-.02,15.71521,15.71521,0,0,0-13.498,0,.61.61,0,0,1-.122.02.31841.31841,0,0,1-.322-.318v-.067a9.62553,9.62553,0,0,0,.35608-2.608,9.803,9.803,0,1,0-9.797,9.8,10.10364,10.10364,0,0,0,2.308-.271h.05493a.31113.31113,0,0,1,.31409.318.32433.32433,0,0,1-.019.12,15.72588,15.72588,0,1,0,29.703,7.216,15.83676,15.83676,0,0,0-1.746-7.23.18417.18417,0,0,1-.0271-.106.31612.31612,0,0,1,.32007-.318h.057a10.15953,10.15953,0,0,0,2.316.271,9.80051,9.80051,0,0,0,0-19.601"
        transform="translate(-28.9697 0.13398)"
    />
</svg>