<svg xmlns="http://www.w3.org/2000/svg" width="19" height="19" viewBox="-29.339 0 58.678 58.678">
  <path fill="#001f50" d="M-29.339 0h58.678v58.678h-58.678z"/>
  <path fill="#fff" d="M-28.657 40.339 24.74 9.309l.493.847-53.398 31.03z"/>
  <path fill="#fff" d="M-23.568 48.99c-2.174-3.894 2.57-10.526 4.85-13.725l.173-.248a83 83 0 0 1 7.393-9.285A97.4 97.4 0 0 1-.07 15.774C6.981 9.73 15.762 9.898 16.377 9.88l11.785-.957.276 17.42L16.911 36.93c-.36.394-5.553 5.863-18.102 11.035-6.752 2.783-11.877 4.146-15.66 4.146-3.301 0-5.561-1.049-6.717-3.12m51.682-19.377L3.087 58.31l3.156.199 22.002-28.076z"/>
  <path fill="#001f50" d="M19.708 11.63a1 1 0 0 0-.175-.227c-.752-.937-2.988-1.259-5.933-.793a26 26 0 0 0-9.996 3.032 98.5 98.5 0 0 0-12.22 10.072c-3.176 3.487-4.646 6.388-3.623 7.584 1.84 2.166 13.753.716 22.007-6.066 9.035-7.42 10.718-11.577 9.94-13.602"/>
  <path fill="#fff" d="M5.313 13.828c5.66-2.842 11.28-2.856 12.15-1.213.883 1.652-2.998 5.303-8.656 8.128-5.648 2.837-10.947 3.805-11.82 2.15-.873-1.64 2.668-6.237 8.326-9.065"/>
  <path fill="#001f50" d="M28.77 25.051C11.938 45.759-11.96 51.089-11.96 51.089c11-6.73 12.769-8.111 18.968-18.01 8.364-13.351 21.778-21.549 21.912-21.63 0 0-.068 13.5-.15 13.602"/>
  <path fill="#fff" d="m-2.152 26.712 9.705-2.814a6.23 6.23 0 0 1-1.994 2.759 25.6 25.6 0 0 1-6.697 3.405 11.8 11.8 0 0 1-5.5.783Zm-7.598-.719a18.4 18.4 0 0 1 3.891-3.976 6.7 6.7 0 0 0-.309 2.213l-4.39 4.83a6.2 6.2 0 0 1 .808-3.067m3.567 32.318 34.307-31.565-.067-.889-35.814 32.75zm37-45.935a68.7 68.7 0 0 0-12.602 9.542c-8.15 7.745-12.11 15.26-9.855 16.091 2.248.816 10.678-4.782 18.836-12.543a94 94 0 0 0 4.926-5.024Z"/>
  <path fill="#001f50" d="M33.737 11.843a40.9 40.9 0 0 0-10 7.096c-5.904 5.437-9.486 11.105-7.848 11.742 1.657.631 8.289-3.955 14.188-9.401a62 62 0 0 0 4.617-4.705ZM-16.66 42.956a9.87 9.87 0 0 0-5.754-1.895q-.17.33-.33.662a9.45 9.45 0 0 1 5.695 1.75 6.28 6.28 0 0 1 2.61 6.304 10.2 10.2 0 0 1-.598 2.228q.358-.035.725-.087c.783-2.249 1.394-6.184-2.348-8.962"/>
</svg>
