<?xml version="1.0" encoding="UTF-8"?>
<svg width="19" height="19" viewBox="-29.33899 0 58.67798 58.67798" xmlns="http://www.w3.org/2000/svg"
    xmlns:xlink="http://www.w3.org/1999/xlink">
    <clipPath id="hsr-clip-path" transform="translate(-0.00057 0.01643)">
        <path
            fill="none"
            d="M5.1606.89861a3.67176,3.67176,0,0,0-3.676,3.667v48.966a3.67842,3.67842,0,0,0,3.676,3.692h48.443a3.67892,3.67892,0,0,0,3.678-3.692V4.5656a3.67227,3.67227,0,0,0-3.678-3.667Z"
        />
    </clipPath>
    <rect x="-29.33899" width="58.67798" height="58.67798" />
    <g clipPath="url(#hsr-clip-path)" transform="translate(-29.33899,0)">
        <rect
            x="-3.25242"
            y="24.74141"
            width="61.75879"
            height="0.98008"
            transform="translate(-8.93747 17.31321) rotate(-30.16134)"
            fill="white"
        />
        <path
            d="M5.77169,48.97289c-2.17407-3.89294,2.56994-10.525,4.85-13.724l.173-.248a83.00826,83.00826,0,0,1,7.39294-9.285,97.384,97.384,0,0,1,11.082-9.958c7.051-6.045,15.832-5.876,16.447-5.894l11.785-.957.276,17.42-11.5271,10.586c-.36.39405-5.553,5.863-18.10193,11.035-6.752,2.783-11.877,4.146-15.66,4.146-3.301,0-5.561-1.049-6.71692-3.121"
            transform="translate(-0.00057 0.01643)"
            fill="white"
        />
        <polygon
            points="57.453 29.614 32.426 58.31 35.582 58.509 57.584 30.433 57.453 29.614"
            fill="white"
        />
        <path
            d="M49.04708,11.61364a.94277.94277,0,0,0-.17407-.227c-.752-.93695-2.988-1.259-5.933-.793a25.98382,25.98382,0,0,0-9.99695,3.032A98.52916,98.52916,0,0,0,20.723,23.69768c-3.1759,3.487-4.645,6.388-3.62292,7.584,1.84,2.166,13.7539.716,22.00793-6.066,9.035-7.42,10.718-11.577,9.93909-13.602"
            transform="translate(-0.00057 0.01643)"
        />
        <path
            d="M34.65255,13.81182c5.65991-2.842,11.28088-2.856,12.1499-1.213.88306,1.652-2.99792,5.303-8.656,8.128-5.648,2.837-10.9469,3.805-11.81994,2.15-.873-1.641,2.668-6.237,8.326-9.065"
            transform="translate(-0.00057 0.01643)"
            fill="white"
        />
        <path
            d="M58.10958,25.03454c-16.832,20.708-40.7301,26.038-40.7301,26.038,11-6.73,12.769-8.111,18.968-18.01,8.364-13.351,21.77808-21.549,21.912-21.63,0,0-.068,13.5-.1499,13.602"
            transform="translate(-0.00057 0.01643)"
        />
        <path
            d="M27.1877,26.69561l9.705-2.814a6.22768,6.22768,0,0,1-1.994,2.759,25.57277,25.57277,0,0,1-6.697,3.405,11.78221,11.78221,0,0,1-5.5.783Z"
            transform="translate(-0.00057 0.01643)"
            fill="white"
        />
        <path
            d="M19.59005,25.97692a18.37656,18.37656,0,0,1,3.891-3.976,6.66452,6.66452,0,0,0-.30908,2.213l-4.391,4.829a6.18212,6.18212,0,0,1,.80908-3.066"
            transform="translate(-0.00057 0.01643)"
            fill="white"
        />
        <polygon
            points="23.156 58.311 57.463 26.746 57.396 25.857 21.582 58.607 23.156 58.311"
            fill="white"
        />
        <path
            d="M60.15645,12.35973a68.6782,68.6782,0,0,0-12.602,9.542c-8.15,7.745-12.109,15.259-9.855,16.091,2.24793.816,10.678-4.782,18.83594-12.543,1.828-1.74,3.48-3.424,4.926-5.024Z"
            transform="translate(-0.00057 0.01643)"
            fill="white"
        />
        <path
            d="M63.07638,11.82653a40.86955,40.86955,0,0,0-10,7.096c-5.90406,5.437-9.48609,11.105-7.848,11.742,1.657.631,8.28894-3.955,14.188-9.401a61.76591,61.76591,0,0,0,4.61694-4.705Z"
            transform="translate(-0.00057 0.01643)"
        />
        <path
            d="M12.67989,42.93969a9.87,9.87,0,0,0-5.754-1.895c-.113.22-.223.439-.33008.662a9.45046,9.45046,0,0,1,5.69507,1.749,6.27885,6.27885,0,0,1,2.61,6.305,10.16524,10.16524,0,0,1-.598,2.228c.238-.023.481-.053.725-.087.78308-2.249,1.394-6.184-2.3479-8.962"
            transform="translate(-0.00057 0.01643)"
        />
    </g>
</svg>