<svg id="maglev" xmlns="http://www.w3.org/2000/svg" width="22.67" height="22.67" viewBox="0 0 22.67 22.67">
	<defs>
		<style>
			.cls-1{fill:#0e7572;}.cls-2{fill:#fff;}.cls-3{fill:none;stroke:#0e7572;stroke-miterlimit:10;stroke-width:0.67px;}
		</style>
	</defs>
	<path class="cls-1"
		d="M23.84,22.43a1.41,1.41,0,0,1-1.41,1.4H2.57a1.41,1.41,0,0,1-1.41-1.4V2.57a1.41,1.41,0,0,1,1.41-1.4H22.4a1.4,1.4,0,0,1,1.4,1.4V22.43Z"
		transform="translate(-1.16 -1.17)" />
	<path class="cls-2"
		d="M12.5,2.5l-1,1.67-4.27.5a2.65,2.65,0,0,0-2.4,2.66V13.5A1.66,1.66,0,0,0,6.5,15.17h12a1.66,1.66,0,0,0,1.67-1.67V7.3a2.69,2.69,0,0,0-2.4-2.67L13.5,4.17"
		transform="translate(-1.16 -1.17)" />
	<polyline class="cls-1" points="12 7.3 12 10.34 16.84 10.34 16.84 7 12 7" />
	<polyline class="cls-1" points="5.83 7.3 5.83 10.34 10.67 10.34 10.67 7 5.83 7" />
	<path class="cls-2"
		d="M4.83,12.5v6.67a2,2,0,0,0,2,2h2V19.5H6.5v-2a.31.31,0,0,1,.33-.33H18.17a.31.31,0,0,1,.33.33v2H16.17v1.67h2a2,2,0,0,0,2-2V12.5"
		transform="translate(-1.16 -1.17)" />
	<path class="cls-3"
		d="M20.5,13.5a2,2,0,0,1-2,2H6.5a2,2,0,0,1-2-2V3.83a2,2,0,0,1,2-2h12a2,2,0,0,1,2,2Z"
		transform="translate(-1.16 -1.17)" />
</svg>