<svg xmlns="http://www.w3.org/2000/svg" width="16" height="16" viewBox="0 0 4.666 2.724">
  <path d="M4.619 2.631H4.41a7.5 7.5 0 0 1-.186-2.2c.217 0 .391-.12.386-.266 0-.013 0-.044-.052-.042H3.9V0h-.414v.125H1.461V0h-.412v.125H.516a1.15 1.15 0 0 0-.5.084c-.058.046.051.116.24.154a4 4 0 0 0 .471.058c0 .114-.038 1.387-.14 2.21H.226a.047.047 0 1 0 0 .093h4.393a.047.047 0 1 0 0-.093M1.212.624a.034.034 0 0 1 .034-.033h.068a.033.033 0 0 1 .033.033v.068a.033.033 0 0 1-.033.033h-.068a.034.034 0 0 1-.034-.033ZM.845 2.631H.658C.749 1.885.787.768.8.483h.05Zm.335-.486a.033.033 0 0 1-.033.033h-.068a.034.034 0 0 1-.034-.033v-.068a.034.034 0 0 1 .034-.033h.068a.033.033 0 0 1 .033.033Zm.067-.928a.033.033 0 0 1-.033.033h-.068a.033.033 0 0 1-.033-.033v-.068a.033.033 0 0 1 .033-.033h.068a.033.033 0 0 1 .033.033Zm.167.675a.034.034 0 0 1-.033.034h-.068a.034.034 0 0 1-.033-.034v-.068a.033.033 0 0 1 .033-.033h.068a.033.033 0 0 1 .033.033Zm-.02-.911V.913A.033.033 0 0 1 1.427.88H1.5a.034.034 0 0 1 .034.033v.068a.034.034 0 0 1-.034.034h-.073a.034.034 0 0 1-.033-.034m.19.472a.033.033 0 0 1-.033.033h-.068a.034.034 0 0 1-.034-.033v-.068a.034.034 0 0 1 .034-.034h.068a.034.034 0 0 1 .033.034ZM1.7.433h.277c0 .157-.035 1.252-.121 2.049A7.4 7.4 0 0 1 1.7.433m.4 2.2h-.189C2 1.885 2.04.768 2.048.483H2.1Zm.326-1.414a.033.033 0 0 1-.033.033h-.07a.034.034 0 0 1-.034-.033v-.07a.034.034 0 0 1 .034-.033h.068a.033.033 0 0 1 .033.033Zm0-.236a.034.034 0 0 1-.033.034h-.07a.034.034 0 0 1-.034-.036V.913A.034.034 0 0 1 2.323.88h.068a.033.033 0 0 1 .033.033Zm.231 1.164a.033.033 0 0 1-.033.033h-.07a.033.033 0 0 1-.033-.033v-.07a.033.033 0 0 1 .033-.033h.068a.033.033 0 0 1 .033.033Zm0-.486a.034.034 0 0 1-.033.034h-.07a.034.034 0 0 1-.033-.034v-.07a.033.033 0 0 1 .033-.033h.068a.033.033 0 0 1 .033.033ZM2.641.692V.624a.033.033 0 0 1 .033-.033h.068a.033.033 0 0 1 .033.033v.068a.033.033 0 0 1-.033.033h-.068a.033.033 0 0 1-.033-.033m.2.761a.034.034 0 0 1-.034.033h-.066a.033.033 0 0 1-.033-.033v-.068a.034.034 0 0 1 .033-.034h.068a.034.034 0 0 1 .034.034Zm.153-1.02h.234c0 .148-.032 1.126-.107 1.905a7.2 7.2 0 0 1-.127-1.9m.353 2.2H3.18l-.013-.06c.086-.745.122-1.81.13-2.088h.05Zm.206-1.8v-.08a.033.033 0 0 1 .033-.033h.068a.034.034 0 0 1 .034.033v.068a.034.034 0 0 1-.034.034h-.068a.034.034 0 0 1-.033-.034m.2 1.252a.033.033 0 0 1-.033.033h-.066a.034.034 0 0 1-.034-.033V2.01a.034.034 0 0 1 .034-.034h.068a.034.034 0 0 1 .033.034Zm.145-.5a.033.033 0 0 1-.033.033H3.8a.034.034 0 0 1-.034-.033v-.067a.034.034 0 0 1 .034-.034h.068a.034.034 0 0 1 .033.034Zm.053-.429v-.067a.034.034 0 0 1 .033-.034h.068a.034.034 0 0 1 .034.034v.068a.034.034 0 0 1-.034.033h-.066a.033.033 0 0 1-.033-.033m.2.763a.033.033 0 0 1-.033.033h-.066a.034.034 0 0 1-.034-.033v-.068a.034.034 0 0 1 .034-.033h.068a.033.033 0 0 1 .033.033Z" style="fill:#2d2a26"/>
</svg>
