<svg xmlns="http://www.w3.org/2000/svg" width="19" height="19" viewBox="270.1 270.4 58.678 58.678">
  <path fill="#001f50" d="M270.1 270.4h58.7v58.7h-58.7z"/>
  <path fill="#fff" d="m277.2 274.7 20.2 5.4v-1.5l-20.2-5.4zm24.2 6.5 20.3 5.4v-1.5l-20.3-5.4z"/>
  <path fill="#fff" d="M312.4 326c0 .1-.2.2-.3.2H311q-.3 0-.3-.3v-.1l.8-2.4h-23.9l.8 2.4v.1q0 .3-.3.3H287c-.1 0-.3-.1-.3-.2l-3.8-13.9c-1-3.6-.3-8.2.4-10.5l4.7-14.9c.2-.8.5-.9.8-.9h1.2l-.4 1.2h8.7v-10.2c0-.2.2-.4.4-.4h1.8c.2 0 .4.2.4.4V287h8.7l-.4-1.2h1.2c.3 0 .6.1.8.9l4.7 14.9c.7 2.3 1.4 6.8.4 10.5z"/>
  <path fill="#001f50" d="M288.4 289.9v19c0 .3-.2.5-.5.5h-4c-.3-3.2.4-6 1-8.3zm22.1 0v19c0 .3.2.5.5.5h4c.3-3.2-.4-6-1-8.3zm-20.1 0h7.7c.3 0 .5.2.5.5v18.5c0 .3-.2.5-.5.5h-7.7c-.3 0-.5-.2-.5-.5v-18.5c0-.2.3-.5.5-.5m10.3 0h7.8c.3 0 .5.2.5.5v18.5c0 .3-.2.5-.5.5h-7.8c-.3 0-.5-.2-.5-.5v-18.5c0-.2.2-.5.5-.5"/>
</svg>
