<?xml version="1.0" encoding="UTF-8"?>
<svg width="19" height="19" viewBox="270.1 270.4 58.67798 58.67798"
    xmlns="http://www.w3.org/2000/svg" xmlns:xlink="http://www.w3.org/1999/xlink">
    <rect x="270.1" y="270.4" fill="#012639" width="58.7" height="58.7" />
    <polygon fill="#FFFFFF" points="277.2,274.7 297.4,280.1 297.4,278.6 277.2,273.2 " />
    <polygon fill="#FFFFFF" points="301.4,281.2 321.7,286.6 321.7,285.1 301.4,279.7 " />
    <path
        fill="#FFFFFF"
        d="M312.4,326c0,0.1-0.2,0.2-0.3,0.2h-1.1c-0.2,0-0.3-0.1-0.3-0.3c0,0,0-0.1,0-0.1l0.8-2.4h-23.9l0.8,2.4
     c0,0,0,0.1,0,0.1c0,0.2-0.1,0.3-0.3,0.3h-1.1c-0.1,0-0.3-0.1-0.3-0.2l-3.8-13.9c-1-3.6-0.3-8.2,0.4-10.5l4.7-14.9
     c0.2-0.8,0.5-0.9,0.8-0.9h1.2l-0.4,1.2h8.7v-10.2c0-0.2,0.2-0.4,0.4-0.4h1.8c0.2,0,0.4,0.2,0.4,0.4v10.2h8.7l-0.4-1.2h1.2
     c0.3,0,0.6,0.1,0.8,0.9l4.7,14.9c0.7,2.3,1.4,6.8,0.4,10.5L312.4,326z"
    />
    <path
        fill="#012639"
        d="M288.4,289.9v19c0,0.3-0.2,0.5-0.5,0.5h-4c-0.3-3.2,0.4-6,1-8.3L288.4,289.9z"
    />
    <path
        fill="#012639"
        d="M310.5,289.9v19c0,0.3,0.2,0.5,0.5,0.5h4c0.3-3.2-0.4-6-1-8.3L310.5,289.9z"
    />
    <path
        fill="#012639"
        d="M290.4,289.9h7.7c0.3,0,0.5,0.2,0.5,0.5v18.5c0,0.3-0.2,0.5-0.5,0.5h-7.7c-0.3,0-0.5-0.2-0.5-0.5v-18.5
     C289.9,290.2,290.2,289.9,290.4,289.9"
    />
    <path
        fill="#012639"
        d="M300.7,289.9h7.8c0.3,0,0.5,0.2,0.5,0.5v18.5c0,0.3-0.2,0.5-0.5,0.5h-7.8c-0.3,0-0.5-0.2-0.5-0.5v-18.5
     C300.2,290.2,300.4,289.9,300.7,289.9"
    />
</svg>