<svg xmlns="http://www.w3.org/2000/svg" width="12" height="12" data-name="图层 1" viewBox="0 0 10.82 10.82">
  <path d="M6.029 8.916A1.147 1.147 0 0 0 4.9 7.763 1.16 1.16 0 0 0 3.747 8.9h-.758V5.667a.406.406 0 0 1 .411-.406h8.33a.406.406 0 0 1 .406.406V8.9l-.724.011A1.153 1.153 0 0 0 9.1 8.9l-3 .011ZM3.417 5.847v1.236H5.14V5.667H3.6a.18.18 0 0 0-.183.18m2.173-.158v1.394H7.3V5.689Zm2.217 0v1.394H9.53V5.689Zm-1.119 2.03v.758a.13.13 0 0 0 .132.131h1.558a.13.13 0 0 0 .132-.131v-.758a.13.13 0 0 0-.132-.131h-.472v-.275h-.615v.275H6.82a.13.13 0 0 0-.132.131m4.857-2.03H10v1.394h1.723V5.869a.18.18 0 0 0-.178-.18" style="fill:#342c2a" transform="translate(-2.09 -2.09)"/>
  <path d="M5.3 5.322h.34v.176H5.3z" style="fill:#342c2a"/>
  <circle cx="2.809" cy="6.815" r=".845" style="fill:#342c2a"/>
  <circle cx="8.165" cy="6.815" r=".845" style="fill:#342c2a"/>
  <rect width="10.47" height="10.47" x=".175" y=".175" rx="2.18" style="fill:none;stroke:#342c2a;stroke-miterlimit:10;stroke-width:.35px"/>
</svg>
