<svg xmlns="http://www.w3.org/2000/svg" width="12" height="12" data-name="图层 1" viewBox="0 0 10.82 10.82">
  <path d="M11.907 6.632h-1.2a.023.023 0 0 1-.023-.022v-.293a.045.045 0 0 0-.045-.045h-.46a.023.023 0 0 1-.011-.042l1.411-.851a.112.112 0 0 0 0-.194l-1.87-1.068a.11.11 0 0 0-.113 0l-1.815 1.07a.113.113 0 0 0 0 .192l1.316.851a.023.023 0 0 1-.013.042h-.446a.045.045 0 0 0-.045.045v.293a.02.02 0 0 1-.022.022h-5.4a.315.315 0 0 0-.315.316v2.434a.675.675 0 0 0 .676.676h8.013a.676.676 0 0 0 .676-.676V6.948a.315.315 0 0 0-.314-.316M8.277 5.32a.045.045 0 0 1 0-.078l1.353-.761a.04.04 0 0 1 .045 0l1.289.76a.045.045 0 0 1 0 .077l-1.288.8a.04.04 0 0 1-.047 0ZM4.728 8.5a.12.12 0 0 1-.12.12H3.337a.12.12 0 0 1-.12-.12V7.2a.12.12 0 0 1 .12-.12h1.271a.12.12 0 0 1 .12.12Zm1.772 0a.12.12 0 0 1-.12.12H5.107a.12.12 0 0 1-.12-.12V7.2a.12.12 0 0 1 .12-.12h1.27a.12.12 0 0 1 .12.12Zm1.758 0a.12.12 0 0 1-.12.12H6.865a.12.12 0 0 1-.12-.12V7.2a.12.12 0 0 1 .12-.12h1.27a.12.12 0 0 1 .12.12Zm1.758 0a.12.12 0 0 1-.12.12H8.623A.12.12 0 0 1 8.5 8.5V7.2a.12.12 0 0 1 .12-.12h1.27a.12.12 0 0 1 .12.12Zm1.8 0a.12.12 0 0 1-.12.12h-1.27a.12.12 0 0 1-.12-.12V7.2a.12.12 0 0 1 .12-.12H11.7a.12.12 0 0 1 .12.12Z" style="fill:#342c2a" transform="translate(-2.09 -2.09)"/>
  <circle cx="7.98" cy="8.43" r=".361" style="fill:#342c2a"/>
  <circle cx="8.881" cy="8.43" r=".361" style="fill:#342c2a"/>
  <circle cx="2.908" cy="8.43" r=".361" style="fill:#342c2a"/>
  <circle cx="2.006" cy="8.43" r=".361" style="fill:#342c2a"/>
  <rect width="10.47" height="10.47" x=".175" y=".175" rx="2.18" style="fill:none;stroke:#342c2a;stroke-miterlimit:10;stroke-width:.35px"/>
</svg>
