<svg xmlns="http://www.w3.org/2000/svg" width="10" height="10" data-name="图层 1" viewBox="0 0 6.097 6.931">
  <path d="M2.684 6.087V4.053l.001-.01h-.35a.515.515 0 0 1-.515-.515v-.216c0-.284.23-.514.515-.514h1.317c.284 0 .514.23.514.514v.216c0 .284-.23.515-.514.515h-.35v2.03s.36.412 1.766.422v.435H.904v-.435s.743-.053 1.264-.17c.445-.1.516-.238.516-.238m-.991.003A3.06 3.06 0 0 1 2.364.372L2.361 0h1.37v.371a3.06 3.06 0 0 1 2.365 2.98c0 1.175-.66 2.194-1.629 2.706l-.3-.75a2.26 2.26 0 0 0 1.129-1.956 2.25 2.25 0 0 0-2.248-2.254A2.25 2.25 0 0 0 .8 3.35c0 .85.469 1.588 1.16 1.973z" style="fill:#231815;fill-rule:evenodd;stroke-width:0"/>
</svg>
