<svg xmlns="http://www.w3.org/2000/svg" width="14" height="14" viewBox="0 0 2.693 2.693">
  <path d="m2.032 1.727-.505.013.393.092.112-.1M.003 1.697 0 1.73v.05l.352.139-.019-.107zm1.352.053a.5.5 0 0 0-.141.026l1.479.374v-.082Z" style="fill:#2d2a26"/>
  <path d="m.591 1.437.4.07.323.052a5.4 5.4 0 0 0 .925-.022 1.6 1.6 0 0 1-.276.306l.73.172V.364A.343.343 0 0 0 2.381 0H.312A.34.34 0 0 0 0 .364v.127L.588.446l.25-.011.671.058a1 1 0 0 1 .218.1 1.2 1.2 0 0 1 .456.526h-.041l.083.233.022-.075s.053.02.018.212a4 4 0 0 1-.806.045l-.3-.035A37 37 0 0 1 0 1.294v.028l.215.042Zm.403.798a1 1 0 0 1-.141.037.5.5 0 0 1-.222-.025 2 2 0 0 1-.238-.107l-.031-.169L0 1.827v.5a.34.34 0 0 0 .312.364h1.879L1 2.222Zm.125-.383-.106.325 1.318.516h.05a.343.343 0 0 0 .312-.364V2.2l-1.539-.392a.1.1 0 0 0-.035.044" style="fill:#2d2a26"/>
  <path d="M1.459 1.539a4 4 0 0 0 .806-.045c.034-.192-.018-.213-.018-.213l-.023.076-.082-.233h.041A1.2 1.2 0 0 0 1.727.6a1 1 0 0 0-.218-.1L.838.435l-.25.011L0 .491v.8c.335.067.847.158 1.156.212ZM1.83.761a.07.07 0 0 1 .05.033l.2.347h-.24a4 4 0 0 0-.22-.38ZM1.314.756l.245-.005a1.8 1.8 0 0 1 .241.4h-.313L1.271.766a.1.1 0 0 1 .043-.01m.137.42.1.228a.6.6 0 0 1-.283-.233Zm-.842-.163L.41.991l.013-.32h.2Zm.353.031L.9 1.036.913.751l.063.056Zm.069.012a.03.03 0 0 1-.022-.02l.015-.2.12.188c.012.018.005.027.005.027Z" style="fill:#fff"/>
  <path d="m.41.991.199.023.014-.343h-.2zm1.39.163a1.8 1.8 0 0 0-.24-.4l-.246.002a.1.1 0 0 0-.043.01l.216.388Zm.282-.013L1.88.793a.07.07 0 0 0-.05-.032h-.21a4 4 0 0 1 .222.38Zm-.528.259-.1-.228h-.181a.6.6 0 0 0 .283.233m-.655-.369.061.008.014-.238L.913.751zm.123-.195-.015.2a.03.03 0 0 0 .022.02h.118s.008-.01-.005-.028Z" style="fill:#2d2a26"/>
  <path d="m0 1.7.33.115.019.107.66.258.107-.325a.1.1 0 0 1 .034-.045l-.069-.018.043-.035.087.022a.6.6 0 0 1 .14-.027l-.115-.027.03-.043.258.061.506-.013-.114.106.044.01a1.7 1.7 0 0 0 .276-.306 5.4 5.4 0 0 1-.925.022l-.32-.056-.4-.069-.376-.073L0 1.321v.409Zm.393.44a2 2 0 0 0 .238.108.5.5 0 0 0 .222.024 1 1 0 0 0 .14-.037L1 2.222l-.638-.251Z" style="fill:#fff"/>
  <path d="m.998 2.222 1.193.471h.14l-1.319-.516zm-.645-.304L0 1.781v.046l.362.144z" style="fill:#fff"/>
  <path d="m.362 1.97.636.252.014-.045-.66-.259zm.791-.163 1.54.393v-.05l-1.479-.374a.3.3 0 0 0-.061.031" style="fill:#fff"/>
  <path d="m1.084 1.79.07.017a.2.2 0 0 1 .06-.031l-.087-.022Zm.866.065-.041-.013.01-.009-.392-.093h-.085l-.088.008 1.339.319v-.052l-.73-.172z" style="fill:#fff"/>
  <path d="m1.95 1.855.013-.012-.044-.01-.01.009zm-.423-.115-.258-.061-.03.043.116.028.087-.007Z" style="fill:#fff"/>
</svg>
