<svg xmlns="http://www.w3.org/2000/svg" width="18" height="18" viewBox="0 0 2.589 3.289">
  <path d="M2.246 3.16h-.9v-.079h.688c.058 0 .106-.029.106-.065s-.048-.064-.106-.064h-.687v-.088h.476c.059 0 .107-.029.107-.065s-.048-.064-.107-.064h-.476v-.127a1.3 1.3 0 1 0-.1 0v.127h-.48c-.059 0-.107.029-.107.064s.048.065.107.065h.476v.088H.555c-.059 0-.107.029-.107.064s.048.065.107.065h.688v.079h-.9c-.059 0-.107.029-.107.065s.048.064.107.064h1.9c.059 0 .107-.029.107-.064s-.048-.065-.107-.065M.169 1.315A1.126 1.126 0 1 1 1.347 2.44V1.361a.047.047 0 0 0-.047-.046h-.011a.047.047 0 0 0-.046.046V2.44A1.13 1.13 0 0 1 .169 1.315" style="fill:#2d2a26"/>
</svg>
