<svg xmlns="http://www.w3.org/2000/svg" width="28" height="28">
  <rect width="25" height="25" x="1.5" y="1.5" fill="#fff" stroke="#003670" rx="2" ry="2"/>
  <path fill="#003670" d="M13.89 4.245c.738.006 1.341 1.092 1.341 1.828v4.456s7.373 6.653 7.482 6.753a.49.49 0 0 1 .21.496V19c0 .28-.194.263-.3.202-.143-.052-7.392-3.82-7.392-3.82-.002.628-.344 3.881-.572 5.734 0 0 1.988 1.059 2.026 1.086.144.116.152.155.152.368v.862c0 .206-.152.185-.22.14l-2.454-.828a1 1 0 0 0-.273-.055 1 1 0 0 0-.287.055s-2.36.801-2.445.828c-.08.045-.225.066-.225-.14v-.862c0-.213.012-.252.158-.368.037-.027 2.016-1.086 2.016-1.086-.226-1.853-.563-5.106-.57-5.735 0 0-7.252 3.77-7.392 3.82-.094.062-.298.08-.298-.2v-1.222a.5.5 0 0 1 .204-.496c.12-.1 7.485-6.753 7.485-6.753V6.073c0-.736.605-1.822 1.354-1.828"/>
</svg>
