<?xml version="1.0" encoding="UTF-8"?>
<svg width="19" height="19" viewBox="-29.33899 0 58.67798 58.67798"
    xmlns="http://www.w3.org/2000/svg" xmlns:xlink="http://www.w3.org/1999/xlink">
    <rect x="-29.35" fill="#012639" width="58.7" height="58.7" />
    <path
        id="airport"
        d="M28.9769,6.60134c1.711.013,3.111,2.53205,3.111,4.241v10.337s17.106,15.435,17.358,15.666a1.145,1.145,0,0,1,.488,1.152v2.833c0,.651-.451.61-.695.467-.334-.119-17.151-8.863-17.151-8.863-.004,1.458-.797,9.006-1.326,13.304,0,0,4.61,2.457,4.699,2.521.334.268.352.359.352.852v2.001c0,.477-.352.428-.51.324-.183-.062-5.693-1.921-5.693-1.921a2.56018,2.56018,0,0,0-.633-.127,2.31654,2.31654,0,0,0-.666.127s-5.477,1.859-5.672,1.921c-.185.104-.523.153-.523-.324v-2.001c0-.493.029-.584.367-.852.086-.064,4.678-2.521,4.678-2.521-.524-4.298-1.307-11.846-1.325-13.304,0,0-16.822,8.744-17.148,8.863-.217.143-.69.184-.69-.467v-2.833a1.16206,1.16206,0,0,1,.473-1.152c.276-.231,17.365-15.666,17.365-15.666v-10.337c0-1.709,1.403-4.228,3.14105-4.241"
        transform="translate(-28.9697,0.14347)"
        fill="white"
    />
</svg>