<?xml version="1.0" encoding="UTF-8"?>
<svg xmlns="http://www.w3.org/2000/svg" width="25" height="25" viewBox="0 0 25 25">
  <defs>
    <style>
      .cls-1 {
        fill: #898989;
      }

      .cls-2 {
        fill: #fff;
        stroke: #898989;
        stroke-width: .62px;
      }
    </style>
  </defs>
  <path id="path510402-9" class="cls-2" d="M23.75,12.51c0,6.21-5.03,11.24-11.24,11.24S1.25,18.72,1.25,12.51,6.29,1.25,12.51,1.25s11.24,5.03,11.24,11.26"/>
  <path id="path510404-2" class="cls-1" d="M14.17,14.63l7.37,2.47v-2.19l-7.91-4.64s-.06-5.79-.22-6.33c-.12-.4-.57-.53-.82-.58h0s-.04-.01-.08-.01h-.08c-.25.06-.7.2-.82.59-.17.54-.21,6.33-.21,6.33l-7.93,4.64v2.19l7.37-2.47s.49-.31.65.22c.17.54.05,3.77.05,3.77l-1.68,1.15-.06,1.91,2.71-1.01,2.71,1.01-.05-1.91-1.71-1.15s-.1-3.23.07-3.77c.15-.54.65-.22.65-.22"/>
</svg>
