<svg id="图层_1" data-name="图层 1" xmlns="http://www.w3.org/2000/svg" viewBox="0 0 2.692 2.692"><defs><style>.cls-1{fill:#2d2a26;}.cls-2{fill:#fff;fill-rule:evenodd;}</style></defs><path class="cls-1" d="M2.467,0H.226A.226.226,0,0,0,0,.226V2.467a.225.225,0,0,0,.226.225H2.467a.225.225,0,0,0,.225-.225V.226A.226.226,0,0,0,2.467,0"/><path class="cls-2" d="M1.5.746v.3l.73.642a.077.077,0,0,1,.022.05v.12c0,.017-.012.025-.027.018L1.5,1.529l-.06.541.2.113a.029.029,0,0,1,.013.023V2.3a.011.011,0,0,1-.014.011L1.346,2.22l-.286.087A.011.011,0,0,1,1.046,2.3v-.09a.026.026,0,0,1,.013-.023l.2-.113L1.2,1.529l-.724.348a.018.018,0,0,1-.028-.018v-.12a.073.073,0,0,1,.023-.05l.73-.642v-.3c0-.482.3-.482.3,0"/></svg>