<?xml version="1.0" encoding="utf-8"?>
<!-- Generator: Adobe Illustrator 26.0.1, SVG Export Plug-In . SVG Version: 6.00 Build 0)  -->
<svg version="1.1" id="airport" xmlns="http://www.w3.org/2000/svg"
	xmlns:xlink="http://www.w3.org/1999/xlink"
	width="25" height="25" viewBox="0 0 25 25" style="enable-background:new 0 0 25 25;"
	xml:space="preserve">
<style type="text/css">
	.st0{fill:#828282;}
	.st1{fill:#FFFFFF;}
	.st2{fill:none;stroke:#FFFFFF;stroke-width:2;stroke-linecap:round;stroke-miterlimit:10;}
</style>
<circle class="st0" cx="12.5" cy="12.5" r="11.5"/>
<polyline class="st1" points="11.5,9.8 3.2,14.8 3.2,17.2 11.5,14.5 "/>
<polyline class="st1" points="13.5,9.8 21.8,14.8 21.8,17.2 13.5,14.5 "/>
<polyline class="st1" points="11.7,18.5 9.7,19.8 9.7,21.8 12.3,20.8 12.7,20.8 15.3,21.8 15.3,19.8 13.3,18.5 "/>
<line class="st2" x1="12.5" y1="4.3" x2="12.5" y2="4"/>
<path class="st1" d="M11.5,4.2l-0.2,8.3l0,0c0.1,1.6,0.2,3.1,0.2,4.7v1.7h2v-1.7c0-1.6,0.1-3.1,0.2-4.7l0,0l-0.2-8.3"/>
</svg>