<?xml version="1.0" encoding="UTF-8"?>
<!-- Generated by Pixelmator Pro 3.3.2 -->
<svg width="28" height="28" viewBox="0 0 28 28" xmlns="http://www.w3.org/2000/svg" xmlns:xlink="http://www.w3.org/1999/xlink">
    <rect id="Frame" width="25" height="25" x="1.5" y="1.5" rx="2" ry="2" stroke="#003670" stroke-width="1" fill="white"/>
    <path id="airport" fill="#003670" d="M 13.890043 4.245405 C 14.627543 4.251009 15.23099 5.336807 15.23099 6.073421 L 15.23099 10.529026 C 15.23099 10.529026 22.604267 17.182045 22.712889 17.281612 C 22.875227 17.390806 22.957735 17.585585 22.923233 17.778164 L 22.923233 18.999285 C 22.923233 19.279888 22.728836 19.262215 22.623663 19.200577 C 22.479698 19.149284 15.23099 15.38032 15.23099 15.38032 C 15.229267 16.008768 14.887458 19.262215 14.65944 21.114801 C 14.65944 21.114801 16.646507 22.173853 16.68487 22.201439 C 16.828836 22.316957 16.836596 22.35618 16.836596 22.56868 L 16.836596 23.431181 C 16.836596 23.636784 16.68487 23.615664 16.616766 23.570837 C 16.537888 23.544113 14.162888 22.742819 14.162888 22.742819 C 14.074614 22.713131 13.982937 22.694738 13.890043 22.688078 C 13.792187 22.692146 13.695461 22.71059 13.602974 22.742819 C 13.602974 22.742819 11.242199 23.544113 11.158147 23.570837 C 11.078405 23.615664 10.932715 23.636784 10.932715 23.431181 L 10.932715 22.56868 C 10.932715 22.35618 10.945215 22.316957 11.090905 22.201439 C 11.127974 22.173853 13.107285 21.114801 13.107285 21.114801 C 12.881422 19.262215 12.543922 16.008768 12.536163 15.38032 C 12.536163 15.38032 5.285302 19.149284 5.144784 19.200577 C 5.05125 19.262215 4.847371 19.279888 4.847371 18.999285 L 4.847371 17.778164 C 4.81342 17.587128 4.892852 17.393671 5.05125 17.281612 C 5.170215 17.182045 12.536163 10.529026 12.536163 10.529026 L 12.536163 6.073421 C 12.536163 5.336784 13.140904 4.251009 13.890064 4.245405"/>
</svg>