<svg xmlns="http://www.w3.org/2000/svg" width="12" height="12" data-name="图层 1" viewBox="0 0 10.82 10.82">
  <path d="M7.544 3.166a.574.574 0 0 1 .571.614v2.349c0 .1.021.109.022.11.109.065 3.461 1.929 3.511 1.975.076.051.066.022.066.11v.79c0 .066-.022.044-.087.022s-3.309-.984-3.311-.985l-.2-.047a21 21 0 0 1-.067 2.396s1.123.7 1.141.713c.067.054.066.044.066.143v.395c0 .1 0 .164-.044.154s-1.6-.461-1.6-.461a.4.4 0 0 0-.11-.022.3.3 0 0 0-.11.022s-1.563.448-1.6.461-.044-.058-.044-.154v-.395c0-.1 0-.089.066-.143l1.141-.713a21 21 0 0 1-.07-2.4S3.439 9.134 3.373 9.158s-.082.041-.087-.044v-.79c0-.066.022-.066.087-.11.11-.066 3.486-1.973 3.49-1.975.022-.012.022-.022.022-.11V3.8a.59.59 0 0 1 .571-.636" style="fill:#342c2a" transform="translate(-2.09 -2.09)"/>
  <rect width="10.47" height="10.47" x=".175" y=".175" rx="2.18" style="fill:none;stroke:#342c2a;stroke-miterlimit:10;stroke-width:.35px"/>
</svg>
