<?xml version="1.0" encoding="UTF-8"?>
<svg id="_图层_1" data-name="图层 1" width="10" height="10" xmlns="http://www.w3.org/2000/svg" version="1.1" viewBox="0 0 8.2062992 3.8097638">
  <defs>
    <style>
      .cls-1 {
        fill: #231815;
        fill-rule: evenodd;
        stroke-width: 0px;
      }
    </style>
  </defs>
  <path class="cls-1" d="M0,3.084404V.338501c0-.1955948.0916138-.338501.3087158-.338501h7.5823975c.197937,0,.3146362.1100006.3146362.2875061v2.7968979h-.5337524c-.0297852-.5391006-.3676758-.915802-.9254761-.9725037-.6361084-.0640945-1.1077881.365303-1.1370239.9725037h-3.0021973c-.0274658-.5391006-.3695679-.915802-.9291992-.9725037-.6326904-.0640945-1.1113892.365303-1.1408691.9725037h-.5372314ZM1.9290161,1.5211029H.350708l.0039062-1.0600967c0-.0658035.0402832-.0987015.109436-.0987015h1.4649658v1.1587982ZM2.274353.3586044h1.6400757v1.1533966h-1.6400757V.3586044ZM4.2582397.3586044h1.6437988v1.1624985h-1.6437988V.3586044ZM6.2436523.3623047h1.4974976c.1009521,0,.1465454.0144958.1465454.107399v1.0426025h-1.644043V.3623047ZM1.5724487,2.3627014c.4206543,0,.7641602.3265991.7641602.7257004,0,.3968048-.3435059.7206039-.7641602.7206039-.4207153,0-.7642212-.3237991-.7642212-.7206039,0-.3991013.3435059-.7257004.7642212-.7257004ZM6.6390381,2.3627014c.4204102,0,.7622681.323204.7622681.7217026,0,.4008026-.3418579.7246017-.7622681.7246017-.4226074,0-.7662354-.3237991-.7662354-.7246017,0-.3984985.3436279-.7217026.7662354-.7217026Z"/>
</svg>
