<svg xmlns="http://www.w3.org/2000/svg" width="14" height="14" viewBox="0 0 2.693 2.724">
  <path d="M2.393 2.724H.3a.3.3 0 0 1-.3-.3V.331a.3.3 0 0 1 .3-.3h2.093a.3.3 0 0 1 .3.3v2.093a.3.3 0 0 1-.3.3" style="fill:#93d500"/>
  <path d="M2.233.905h-.094v-.03L2.121.55A.126.126 0 0 0 2 .432H.7A.127.127 0 0 0 .572.55L.555.875v.03H.46A.06.06 0 0 0 .4.964v.178a.4.4 0 0 0 .008.058l.015.061a.04.04 0 0 0 .037.028h.089v.739a.12.12 0 0 0 .118.119H.7v.147a.03.03 0 0 0 .029.03H.9a.03.03 0 0 0 .029-.03v-.147h.831v.147a.03.03 0 0 0 .029.03h.178A.03.03 0 0 0 2 2.294v-.147h.029a.12.12 0 0 0 .118-.119v-.739h.089a.04.04 0 0 0 .036-.028l.013-.061a.3.3 0 0 0 .007-.058V.964a.06.06 0 0 0-.059-.059M.815.55A.03.03 0 0 1 .844.52h1a.03.03 0 0 1 .029.03v.059a.03.03 0 0 1-.029.03h-1a.03.03 0 0 1-.029-.03Zm.236 1.389a.03.03 0 0 1-.029.03H.785A.04.04 0 0 1 .75 1.94l-.018-.09a.023.023 0 0 1 .024-.029h.266a.03.03 0 0 1 .029.03Zm.91-.089-.018.09a.04.04 0 0 1-.035.029h-.237a.03.03 0 0 1-.029-.03v-.088a.03.03 0 0 1 .029-.03h.266a.023.023 0 0 1 .024.029m.065-.321c0 .056-.059.148-.679.148s-.68-.092-.68-.148V.787a.06.06 0 0 1 .059-.06h1.241a.06.06 0 0 1 .059.06Z" style="fill:#393b35"/>
</svg>
