<svg id="图层_1" data-name="图层 1" xmlns="http://www.w3.org/2000/svg" viewBox="0 0 2.693 2.724"><defs><style>.cls-1{fill:#93d500;}.cls-2{fill:#393b35;}</style></defs><path class="cls-1" d="M2.393,2.724H.3a.3.3,0,0,1-.3-.3V.331a.3.3,0,0,1,.3-.3H2.393a.3.3,0,0,1,.3.3V2.424a.3.3,0,0,1-.3.3"/><path class="cls-2" d="M2.233.905H2.139V.875L2.121.55A.126.126,0,0,0,2,.432H.7A.127.127,0,0,0,.572.55L.555.875l0,.03H.46A.059.059,0,0,0,.4.964v.178A.383.383,0,0,0,.408,1.2l.015.061a.041.041,0,0,0,.037.028H.549v.739a.119.119,0,0,0,.118.119H.7v.147a.029.029,0,0,0,.029.03H.9a.03.03,0,0,0,.029-.03V2.147H1.76v.147a.029.029,0,0,0,.029.03h.178A.03.03,0,0,0,2,2.294V2.147h.029a.119.119,0,0,0,.118-.119V1.289h.089a.039.039,0,0,0,.036-.028L2.285,1.2a.287.287,0,0,0,.007-.058V.964A.059.059,0,0,0,2.233.905M.815.55A.03.03,0,0,1,.844.52h1a.03.03,0,0,1,.029.03V.609a.029.029,0,0,1-.029.03h-1A.029.029,0,0,1,.815.609Zm.236,1.389a.029.029,0,0,1-.029.03H.785A.037.037,0,0,1,.75,1.94L.732,1.85a.023.023,0,0,1,.024-.029h.266a.029.029,0,0,1,.029.03Zm.91-.089-.018.09a.037.037,0,0,1-.035.029H1.671a.029.029,0,0,1-.029-.03V1.851a.029.029,0,0,1,.029-.03h.266a.023.023,0,0,1,.024.029m.065-.321c0,.056-.059.148-.679.148s-.68-.092-.68-.148V.787A.059.059,0,0,1,.726.727H1.967a.06.06,0,0,1,.059.06Z"/></svg>