<svg xmlns="http://www.w3.org/2000/svg" width="25" height="8.32" viewBox="0 0 64 21.3">
  <path fill="#003888" d="M5.6-.2s-2.8 0-3.4.5c-1 .9-1.1 3.2-1.1 3.2v5.2L-.3 10v8.7h10s-1-5.5 4.2-5.5c5.1 0 4.3 5.5 4.3 5.5h23.6s-1.2-5.5 4-5.5c5.5 0 4.3 5.5 4.3 5.5s13.5-2.7 13.5-3V3.5s-.1-.9-1.1-2.2C61.3-.2 60.1-.2 60.1-.2z"/>
  <path fill="#003888" d="M10.6 17.9c0 1.8 1.4 3.2 3.2 3.2s3.2-1.4 3.2-3.2-1.4-3.2-3.2-3.2c-1.7-.1-3.2 1.4-3.2 3.2m31.9 0c0 1.8 1.4 3.2 3.2 3.2s3.2-1.4 3.2-3.2-1.4-3.2-3.2-3.2c-1.7-.1-3.2 1.4-3.2 3.2"/>
  <path d="M12.3 17.9c0 .9.7 1.6 1.6 1.6s1.6-.7 1.6-1.6-.7-1.6-1.6-1.6-1.6.7-1.6 1.6m31.9 0c0 .9.7 1.6 1.6 1.6s1.6-.7 1.6-1.6-.7-1.6-1.6-1.6-1.6.7-1.6 1.6M3.6 3.5h4v12.7h-4zm7 0h11v5.2h-11zm12.8 0h11v5.2h-11zm12.9 0h11v5.2h-11zm12.8 0v5.2h11.6V5.3s.1-.5-.5-1.2c-.7-.7-1.7-.7-1.7-.7h-9.4z" style="fill:#fff"/>
</svg>
