<svg xmlns="http://www.w3.org/2000/svg" xmlns:xlink="http://www.w3.org/1999/xlink"
    width="25" height="8.32" viewBox="0 0 64 21.3">
<style type="text/css">
    .st0{fill:#FFFFFF;}
</style>
<path fill="#003888" d="M5.6-0.2c0,0-2.8,0-3.4,0.5C1.2,1.2,1.1,3.5,1.1,3.5v5.2l-1.4,1.3v8.7H9.7c0,0-1-5.5,4.2-5.5c5.1,0,4.3,5.5,4.3,5.5h23.6
    c0,0-1.2-5.5,4-5.5c5.5,0,4.3,5.5,4.3,5.5c0,0,13.5-2.7,13.5-3V3.5c0,0-0.1-0.9-1.1-2.2c-1.2-1.5-2.4-1.5-2.4-1.5H5.6z"/>
<path fill="#003888" d="M10.6,17.9c0,1.8,1.4,3.2,3.2,3.2c1.8,0,3.2-1.4,3.2-3.2c0-1.8-1.4-3.2-3.2-3.2C12.1,14.6,10.6,16.1,10.6,17.9"/>
<path fill="#003888" d="M42.5,17.9c0,1.8,1.4,3.2,3.2,3.2c1.8,0,3.2-1.4,3.2-3.2c0-1.8-1.4-3.2-3.2-3.2C44,14.6,42.5,16.1,42.5,17.9"/>
<path class="st0" d="M12.3,17.9c0,0.9,0.7,1.6,1.6,1.6s1.6-0.7,1.6-1.6c0-0.9-0.7-1.6-1.6-1.6S12.3,17,12.3,17.9"/>
<path class="st0" d="M44.2,17.9c0,0.9,0.7,1.6,1.6,1.6s1.6-0.7,1.6-1.6c0-0.9-0.7-1.6-1.6-1.6S44.2,17,44.2,17.9"/>
<rect x="3.6" y="3.5" class="st0" width="4" height="12.7"/>
<rect x="10.6" y="3.5" class="st0" width="11" height="5.2"/>
<rect x="23.4" y="3.5" class="st0" width="11" height="5.2"/>
<rect x="36.3" y="3.5" class="st0" width="11" height="5.2"/>
<path class="st0" d="M49.1,3.5v5.2h11.6V5.3c0,0,0.1-0.5-0.5-1.2c-0.7-0.7-1.7-0.7-1.7-0.7H49.1z"/>
</svg>
