<svg id="图层_1" data-name="图层 1" xmlns="http://www.w3.org/2000/svg" viewBox="0 0 2.692 2.692"><defs><style>.cls-1{fill:#2d2a26;}.cls-2{fill:#fff;fill-rule:evenodd;}</style></defs><path class="cls-1" d="M2.467,0H.226A.226.226,0,0,0,0,.226V2.467a.225.225,0,0,0,.226.225H2.467a.225.225,0,0,0,.225-.225V.226A.226.226,0,0,0,2.467,0"/><path class="cls-2" d="M1.973,2.126A.356.356,0,0,1,1.83,2.1a.409.409,0,0,0-.347,0,.37.37,0,0,1-.263,0A.4.4,0,0,0,.889,2.1a.44.44,0,0,1-.247.018C.592,2.1.565,2.088.52,2.077v.162l.057.019a.378.378,0,0,0,.309,0,.405.405,0,0,1,.315,0c.212.093.292-.032.462-.033a.417.417,0,0,1,.153.031.449.449,0,0,0,.357-.015V2.078a.593.593,0,0,1-.2.048"/><path class="cls-2" d="M.761,1.58l.126.436a.3.3,0,0,1,.184-.05.5.5,0,0,1,.167.057.248.248,0,0,0,.117.028.205.205,0,0,0,.106-.031.328.328,0,0,1,.176-.056.388.388,0,0,1,.163.044l.148-.428.186-.238a.126.126,0,0,0,.007-.092.1.1,0,0,0-.055-.065L2,1.148V.863H1.821v-.2H1.537V.4H1.155V.661H.871v.2H.69v.286l-.085.038a.1.1,0,0,0-.054.065.13.13,0,0,0,.006.091ZM.787.959H.968v-.2h.757v.2h.18v.146L1.41.887a.162.162,0,0,0-.144,0l-.479.218Z"/></svg>