<svg id="图层_1" data-name="图层 1" xmlns="http://www.w3.org/2000/svg" viewBox="0 0 4.903 1.844" height="15"><defs><style>.cls-1{fill:#2d2a26;}</style></defs><path class="cls-1" d="M4.854,1.744H4.638l.041-.233-1.818.056V1.54l1.845-.183.046-.265c-.058,0-.295.022-.648.066-.374.046-.959.131-1.618.273L2.469,1.35c.662-.143,1.25-.228,1.626-.275l.1-.012a.737.737,0,0,0-.6-.753L3.476.277,3.325.321,3.356.252A1.854,1.854,0,0,0,3.1.227c.014.014.029.029.043.045L3.161.3V.253l.155.071-.1.036c.02.027.039.054.057.083L3.321.327,3.477.4l-.2.058a.192.192,0,0,1,.018.031L3.411.54,3.336.565c.012.025.024.052.035.078l.046-.1.156.071L3.382.67,3.4.705l.113.052L3.421.782c.011.037.021.076.03.115L3.369.915A1.258,1.258,0,0,0,3.077.328,1.014,1.014,0,0,0,2.856.143a1.028,1.028,0,0,0-.44-.125c-.087,0-.175-.009-.263-.012l.055.025L1.9.121,1.955,0c-.113,0-.223,0-.328.006l.029.013-.309.09.037-.08a1.632,1.632,0,0,0-.169.033l.118.054-.308.09.045-.1c-.021.008-.041.017-.06.026L.929.175l.082.038L.753.288.711.32.918.415.609.505.684.341A1.876,1.876,0,0,0,.532.482L.6.512.474.547C.442.584.412.622.384.659L.5.714.308.77C.292.8.276.822.261.848L.41.916.192.979C.181,1,.17,1.024.161,1.046l.156.072-.21.061c-.029.079-.047.143-.058.185l.468-.052.039-.084.14.064L.81,1.279l.068-.148.221.1-.083.024.38-.042L1.43,1.14l.124.056.135-.015.064-.138.221.1-.03.009.341-.038.027-.059.1.045.168-.019L2.634.959l.205.094L3.46.984l.009.083-1.545.172.228.228.179-.179.039.04-.19.19v.226H2.124V1.518L1.86,1.253l.008-.008-.409.046.195.2.163-.163.039.039-.175.175v.207H1.626V1.537L1.388,1.3l-.357.039.17.17.143-.143.04.039-.155.155v.183H1.173V1.559L.961,1.346l-.313.035-.019,0,.141.141L.9,1.392l.039.039L.8,1.574v.17H.742v-.17L.559,1.391l-.286.032.13.13.108-.107.039.039L.431,1.6v.14H.376V1.6L.225,1.453v.291H.05a.05.05,0,0,0-.05.05.05.05,0,0,0,.05.05h4.8a.05.05,0,0,0,.049-.05.049.049,0,0,0-.049-.05M2.487.646l-.309.09L2.266.545ZM1.069.716,1.157.524l.221.1Zm.216.112L.976.918,1.064.726Zm.1-.2.221.1L1.3.821ZM1.391.619,1.479.428l.221.1ZM1.709.533l.221.1-.309.09Zm0-.011L1.8.331l.221.1Zm.225.116.221.1L1.851.83Zm0-.01L2.031.436l.221.1Zm.4-.292-.309.09L2.124.234ZM2.115.23,1.807.32,1.9.129ZM1.665.023l.221.1-.309.09Zm.128.3-.309.09L1.572.225ZM1.342.12l.221.1-.309.09Zm.128.3L1.162.513,1.249.322ZM1.02.217l.221.1L.932.408Zm-.093.2.221.1L.839.61Zm.128.3L.746.812.834.621ZM.6.516l.221.1L.516.707Zm-.092.2.221.1L.424.909Zm-.274.6.088-.191.221.1Zm.093-.2L.419.92l.221.1Zm.23.106.087-.192.221.1Zm.092-.2L.741.823l.221.1Zm.23.105L.971.929l.221.1Zm.23.1L1.2,1.034l.221.1Zm.093-.2L1.294.832l.221.1Zm.229.106L1.523.937l.221.1Zm.093-.2L1.616.735l.221.1Zm.23.1L1.846.841l.221.1Zm.235.108L2.081.949l.221.1Zm.092-.2L2.173.747l.221.1Zm.232.109L2.4.855l.221.1Zm1.3-.075L3.68.838l.155.071ZM3.9.764,3.685.827,3.747.693ZM3.421.536,3.483.4l.155.071Zm.161.083.156.072L3.521.754ZM3.455.9,3.517.761l.155.072Z"/></svg>