<svg xmlns="http://www.w3.org/2000/svg" width="12" height="12" viewBox="0 0 4.903 1.844">
  <path d="M4.854 1.744h-.216l.041-.233-1.818.056V1.54l1.845-.183.046-.265c-.058 0-.295.022-.648.066-.374.046-.959.131-1.618.273l-.017-.081c.662-.143 1.25-.228 1.626-.275l.1-.012a.74.74 0 0 0-.6-.753L3.476.277l-.151.044.031-.069A2 2 0 0 0 3.1.227l.043.045.018.028V.253l.155.071-.1.036q.03.04.057.083l.048-.116.156.073-.2.058.018.031.116.051-.075.025.035.078.046-.1.156.071-.191.056.018.035.113.052-.092.025q.017.056.03.115l-.082.018a1.26 1.26 0 0 0-.292-.587 1 1 0 0 0-.221-.185 1 1 0 0 0-.44-.125c-.087 0-.175-.009-.263-.012l.055.025-.308.09L1.955 0q-.17-.001-.328.006l.029.013-.309.09.037-.08a2 2 0 0 0-.169.033l.118.054-.308.09.045-.1-.06.026-.081.043.082.038-.258.075L.711.32l.207.095-.309.09.075-.164a2 2 0 0 0-.152.141L.6.512.474.547a2 2 0 0 0-.09.112L.5.714.308.77C.292.8.276.822.261.848L.41.916.192.979l-.031.067.156.072-.21.061a2 2 0 0 0-.058.185l.468-.052.039-.084.14.064.114-.013.068-.148.221.1-.083.024.38-.042.034-.073.124.056.135-.015.064-.138.221.1-.03.009.341-.038.027-.059.1.045.168-.019.054-.122.205.094.621-.069.009.083-1.545.172.228.228.179-.179.039.04-.19.19v.226h-.056v-.226l-.264-.265.008-.008-.409.046.195.2.163-.163.039.039-.175.175v.207h-.055v-.212L1.388 1.3l-.357.039.17.17.143-.143.04.039-.155.155v.183h-.056v-.184l-.212-.213-.313.035H.629l.141.141.13-.13.039.039-.139.143v.17H.742v-.17l-.183-.183-.286.032.13.13.108-.107.039.039-.119.115v.14H.376V1.6l-.151-.147v.291H.05a.05.05 0 0 0-.05.05.05.05 0 0 0 .05.05h4.8a.05.05 0 0 0 .049-.05.05.05 0 0 0-.049-.05M2.487.646l-.309.09.088-.191Zm-1.418.07.088-.192.221.1Zm.216.112-.309.09.088-.192Zm.1-.2.221.1L1.3.821Zm.006-.009.088-.191.221.1Zm.318-.086.221.1-.309.09Zm0-.011L1.8.331l.221.1Zm.225.116.221.1-.304.092Zm0-.01.097-.192.221.1Zm.4-.292-.309.09.099-.192ZM2.115.23l-.308.09L1.9.129Zm-.45-.207.221.1-.309.09Zm.128.3-.309.09.088-.188ZM1.342.12l.221.1-.309.09Zm.128.3-.308.093.087-.191ZM1.02.217l.221.1-.309.091Zm-.093.2.221.1L.839.61Zm.128.3L.746.812.834.621ZM.6.516l.221.1-.305.091Zm-.092.2.221.1-.305.093Zm-.274.6.088-.191.221.1Zm.093-.2L.419.92l.221.1Zm.23.106.087-.192.221.1Zm.092-.2L.741.823l.221.1Zm.23.105L.971.929l.221.1Zm.23.1.091-.193.221.1Zm.093-.2.092-.195.221.1Zm.229.106.092-.196.221.1Zm.093-.2.092-.198.221.1Zm.23.1.092-.192.221.1Zm.235.108.092-.192.221.1Zm.092-.2.092-.194.221.1Zm.232.109L2.4.855l.221.1Zm1.3-.075L3.68.838l.155.071ZM3.9.764l-.215.063.062-.134ZM3.421.536 3.483.4l.155.071Zm.161.083.156.072-.217.063ZM3.455.9l.062-.139.155.072Z" style="fill:#2d2a26"/>
</svg>
