<svg xmlns="http://www.w3.org/2000/svg" width="20" height="20" fill="none" viewBox="0 0 80 80">
  <rect width="80" height="80" fill="#666" rx="8"/>
  <path fill="#fff" d="M48 45h7l1 3h-8zm-8 0h6v3h-6zm-9 0h7v3h-6zm5-15 11 3 1 7H34z"/>
  <path fill="rgba(255, 255, 255, 1)" d="m7.042 52.287-1.5-5L6.5 46H19v1l-.958-.287 3-10L22 36h4v2h-4v-1l.958.287-3 10L19 48H6.5v-1l.958-.287 1.5 5zm60.53.084-2-5L66.5 47v1H64v-2h2.5l.928.629 2 5zM26 36h4l.97.758 1 4L31 41v-1h26.5l.923.615 2.5 6L60 47v-1h4v2h-4l-.923-.615-2.5-6L57.5 41v1H31l-.97-.758-1-4L30 37v1h-4zm-.994.895 2-19 1.988.21-2 19zm38.002 9.981 3-24 1.984.248-3 24zM6.5 46v1l-.958.287L5.156 46zM19 48v-1l.958.287-.214.713zm3-12v1l-.958-.287.214-.713zm8.97.758L30 37v-1h.78zm-.94 4.484L31 41v1h-.78zm28.393-.627L57.5 41v-1h.667zm.654 6.77L60 47v1h-.667zm8.352-.756L66.5 47v-1h.677zm-60.1 6.616-.287-.958 1.916-.574.287.957zm60.614.055-.371-.929 1.856-.742.372.928zm.173-31.168-.124.992-1.984-.248.124-.992zM29.1 17.11l-.105.995-1.988-.21.104-.994z"/>
  <path fill="#fff" d="M7 52h67l-3 11H10z"/>
</svg>
