<svg id="图层_1" data-name="图层 1" xmlns="http://www.w3.org/2000/svg" viewBox="0 0 5.338 2.724" height="16"><defs><style>.cls-1{fill:#2d2a26;}</style></defs><path class="cls-1" d="M5.188,2.655h-.6c-.015-.564-.083-1.106.079-1.274A7.125,7.125,0,0,1,5.338.8s-.047-.009-.13-.02a4,4,0,0,0-.664.593,1.711,1.711,0,0,0-.082.847c.006.131.012.278.013.434H4.439c0-.155-.007-.3-.013-.432a1.742,1.742,0,0,1,.086-.866A3.7,3.7,0,0,1,5.158.774C5.076.763,4.969.751,4.843.741a5,5,0,0,0-.361.5,2.426,2.426,0,0,0-.1,1.042c0,.122.006.248.006.376H4.356c0-.127,0-.253-.006-.375a2.43,2.43,0,0,1,.1-1.06A4.543,4.543,0,0,1,4.8.738C4.661.728,4.5.721,4.331.723S4,.728,3.864.738a4.543,4.543,0,0,1,.348.482,2.43,2.43,0,0,1,.1,1.06c0,.122-.006.248-.007.375H4.271c0-.128,0-.254.006-.376a2.426,2.426,0,0,0-.1-1.042,5,5,0,0,0-.361-.5c-.126.01-.233.022-.315.033a3.735,3.735,0,0,1,.646.583,1.742,1.742,0,0,1,.086.866c-.006.13-.012.277-.013.432H4.188c0-.156.007-.3.013-.434a1.723,1.723,0,0,0-.082-.847A4.036,4.036,0,0,0,3.455.781c-.083.011-.13.02-.13.02s.193.146.4.322l-.07-.01,0,0s-.25.307-.342.438a1.39,1.39,0,0,0-.069.822c.007.09.014.183.019.278H3.221c0-.094-.012-.186-.019-.275a1.41,1.41,0,0,1,.075-.845c.082-.117.284-.367.333-.428a3.865,3.865,0,0,0-.452-.024,3.891,3.891,0,0,0-.452.024c.05.061.252.311.333.428a1.409,1.409,0,0,1,.076.845c-.007.089-.014.181-.02.275H3.059c.006-.095.013-.188.02-.278a1.4,1.4,0,0,0-.069-.822c-.092-.131-.34-.435-.342-.438l0,0-.053.007a.441.441,0,0,1,.1-.2A9.459,9.459,0,0,1,3.617.143S3.555.127,3.443.106a5.547,5.547,0,0,0-.9.807,2.332,2.332,0,0,0-.111,1.146c.008.179.017.382.017.6H2.41c0-.214-.009-.416-.017-.595A2.34,2.34,0,0,1,2.509.9,5.178,5.178,0,0,1,3.4.1C3.285.077,3.138.054,2.963.035L2.952.048a6.914,6.914,0,0,0-.5.68,3.276,3.276,0,0,0-.131,1.408c0,.169.009.343.009.519H2.3c0-.175,0-.349-.009-.518A3.271,3.271,0,0,1,2.426.71,6.657,6.657,0,0,1,2.92.031,6.244,6.244,0,0,0,2.259,0,6.225,6.225,0,0,0,1.6.031,6.657,6.657,0,0,1,2.093.71a3.258,3.258,0,0,1,.135,1.427c0,.169-.008.343-.008.518H2.184c0-.176,0-.35.008-.519A3.26,3.26,0,0,0,2.061.728a7.13,7.13,0,0,0-.494-.68L1.556.035C1.381.054,1.234.077,1.123.1A5.216,5.216,0,0,1,2.01.9,2.34,2.34,0,0,1,2.126,2.06c-.008.179-.017.381-.018.595H2.072c0-.214.01-.417.018-.6A2.332,2.332,0,0,0,1.979.913a5.553,5.553,0,0,0-.9-.807C.964.127.9.143.9.143s.415.313.748.624L1.586.758l0,0s-.306.377-.419.537a1.715,1.715,0,0,0-.085,1.009c.009.113.018.229.024.348H1.067c-.006-.118-.015-.233-.024-.345a1.725,1.725,0,0,1,.092-1.032c.1-.144.352-.455.409-.525A4.585,4.585,0,0,0,.986.722,4.573,4.573,0,0,0,.428.753c.057.07.308.381.409.525A1.719,1.719,0,0,1,.928,2.31C.92,2.422.911,2.537.9,2.655H.868c.007-.119.016-.235.025-.348A1.713,1.713,0,0,0,.807,1.3C.694,1.138.391.765.388.761l0,0A1.828,1.828,0,0,0,0,.841a4.451,4.451,0,0,1,.707.476c.171.165.135.777.085,1.338H.184a.034.034,0,0,0-.034.034.035.035,0,0,0,.034.035h5a.035.035,0,0,0,.034-.035.034.034,0,0,0-.034-.034m-1.8-1.087a2.936,2.936,0,0,1,.469-.326c.051.046.1.094.143.139.162.168.094.71.08,1.274H3.316c-.041-.456-.069-.952.07-1.087m-.808-.256a2.352,2.352,0,0,1,.353.256c.138.135.11.631.07,1.087H2.6c-.013-.506-.058-1-.024-1.343m-1.314,0A3.437,3.437,0,0,1,1.815.931c.213.234.121.965.1,1.724H1.18c-.051-.561-.086-1.173.084-1.338"/></svg>