<svg xmlns="http://www.w3.org/2000/svg" width="12" height="12" viewBox="0 0 5.338 2.724">
  <path d="M5.188 2.655h-.6c-.015-.564-.083-1.106.079-1.274A7 7 0 0 1 5.338.8s-.047-.009-.13-.02a4 4 0 0 0-.664.593 1.7 1.7 0 0 0-.082.847q.01.198.013.434h-.036q-.002-.233-.013-.432a1.74 1.74 0 0 1 .086-.866 3.7 3.7 0 0 1 .646-.582 6 6 0 0 0-.315-.033 5 5 0 0 0-.361.5 2.4 2.4 0 0 0-.1 1.042c0 .122.006.248.006.376h-.032q.002-.191-.006-.375a2.4 2.4 0 0 1 .1-1.06A5 5 0 0 1 4.8.738c-.139-.01-.3-.017-.469-.015S4 .728 3.864.738a5 5 0 0 1 .348.482 2.4 2.4 0 0 1 .1 1.06c0 .122-.006.248-.007.375h-.034q-.002-.192.006-.376a2.4 2.4 0 0 0-.1-1.042 5 5 0 0 0-.361-.5 6 6 0 0 0-.315.033 3.7 3.7 0 0 1 .646.583 1.74 1.74 0 0 1 .086.866c-.006.13-.012.277-.013.432h-.032q.002-.234.013-.434a1.7 1.7 0 0 0-.082-.847 4 4 0 0 0-.664-.589c-.083.011-.13.02-.13.02s.193.146.4.322l-.07-.01s-.25.307-.342.438a1.4 1.4 0 0 0-.069.822q.011.135.019.278h-.042c0-.094-.012-.186-.019-.275a1.4 1.4 0 0 1 .075-.845c.082-.117.284-.367.333-.428a4 4 0 0 0-.452-.024 4 4 0 0 0-.452.024c.05.061.252.311.333.428a1.4 1.4 0 0 1 .076.845l-.02.275h-.036l.02-.278a1.4 1.4 0 0 0-.069-.822c-.092-.131-.34-.435-.342-.438l-.053.007a.44.44 0 0 1 .1-.2 10 10 0 0 1 .902-.777S3.555.127 3.443.106a5.6 5.6 0 0 0-.9.807 2.3 2.3 0 0 0-.111 1.146c.008.179.017.382.017.6H2.41c0-.214-.009-.416-.017-.595A2.34 2.34 0 0 1 2.509.9 5.2 5.2 0 0 1 3.4.1a5 5 0 0 0-.437-.065l-.011.013a7 7 0 0 0-.5.68 3.3 3.3 0 0 0-.131 1.408c0 .169.009.343.009.519H2.3c0-.175 0-.349-.009-.518A3.3 3.3 0 0 1 2.426.71 7 7 0 0 1 2.92.031 6 6 0 0 0 2.259 0 6 6 0 0 0 1.6.031a7 7 0 0 1 .493.679 3.3 3.3 0 0 1 .135 1.427c0 .169-.008.343-.008.518h-.036c0-.176 0-.35.008-.519A3.3 3.3 0 0 0 2.061.728a7 7 0 0 0-.494-.68L1.556.035A5 5 0 0 0 1.123.1a5.2 5.2 0 0 1 .887.8 2.34 2.34 0 0 1 .116 1.16c-.008.179-.017.381-.018.595h-.036c0-.214.01-.417.018-.6A2.3 2.3 0 0 0 1.979.913a5.6 5.6 0 0 0-.9-.807C.964.127.9.143.9.143s.415.313.748.624L1.586.758s-.306.377-.419.537a1.7 1.7 0 0 0-.085 1.009q.014.17.024.348h-.039a12 12 0 0 0-.024-.345 1.73 1.73 0 0 1 .092-1.032c.1-.144.352-.455.409-.525A5 5 0 0 0 .986.722a5 5 0 0 0-.558.031c.057.07.308.381.409.525A1.7 1.7 0 0 1 .928 2.31q-.012.168-.028.345H.868q.011-.179.025-.348A1.7 1.7 0 0 0 .807 1.3C.694 1.138.391.765.388.761A2 2 0 0 0 0 .841a4.5 4.5 0 0 1 .707.476c.171.165.135.777.085 1.338H.184a.034.034 0 0 0-.034.034.035.035 0 0 0 .034.035h5a.035.035 0 0 0 .034-.035.034.034 0 0 0-.034-.034m-1.8-1.087a3 3 0 0 1 .469-.326q.078.07.143.139c.162.168.094.71.08 1.274h-.76c-.041-.456-.069-.952.07-1.087m-.808-.256a2.4 2.4 0 0 1 .353.256c.138.135.11.631.07 1.087H2.6c-.013-.506-.058-1-.024-1.343m-1.314 0a3.4 3.4 0 0 1 .553-.381c.213.234.121.965.1 1.724H1.18c-.051-.561-.086-1.173.084-1.338" style="fill:#2d2a26"/>
</svg>
