<svg xmlns="http://www.w3.org/2000/svg" width="25" height="25" viewBox="0 0 50 50">
  <path fill="#585858" d="M50.006 46.67a3.33 3.33 0 0 1-3.333 3.329H3.334A3.326 3.326 0 0 1 0 46.67V3.332A3.33 3.33 0 0 1 3.334 0h43.338a3.33 3.33 0 0 1 3.333 3.332z"/>
  <path fill="#fff" d="M49.91 4.992c-6.31-.353-9.046-.341-11.634-.164-6.026.431-8.806 1.661-11.117 2.597 2.82-.297 6.772-.227 7.979-.12 1.456.12 4.052.588 2.319 2.313-1.36 1.348-6.435 4.574-6.435 4.574-2.868 1.705-4.958 2.357-7.064 2.732-1.517 0-6.503.279-6.928-.498-3.213 2.995-8.232 8.04-9.52 11.995v.005c0 .048-.012.071-.052.12-.056.2-.072.373-.128.55-.052.368-.028.85.297 1.255.465.554 2.202 1.669 8.091-.027 9.737-2.889 23.505-8.274 27.473-12.184.208-.25.349-.913.525-1.215a.92.92 0 0 1 .521-.375c.06-.028 5.672-1.458 5.672-1.458zM0 42.927l49.906-21.282v1.063L0 46.077v-1.012z"/>
  <path fill="#fff" d="m49.91 16.618-2.949.953s-.979 2.409-1.071 2.555c-.101.227-.197.363-.49.501 0 0-1.139.458-1.163.469-5.801 2.419-18.711 7.648-27.753 10.313-4.971 1.484-8.228 1.432-9.083.072.096.248.172.465.341.814.048.116.245.36.514.545L0 35.486v2.109l10.755-4.02c1.561.116 3.807-.137 6.968-1.188 2.467-.818 20.055-7.504 32.186-12.767z"/>
  <path fill="#db5425" d="M49.91 15.953s-10.246 2.896-18.911 5.608c-6.098 1.96-10.635 3.627-12.119 4.928-6.158 5.49-11.161 4.961-11.161 2.771 0-1.275 1.231-3.707 1.147-3.606-.229.365-4.477 6.6 2.219 5.993 5.688-.525 17.162-5.087 20.103-6.322 1.753-.728 8.248-3.151 9.592-3.857.072-.054.518-.247.79-.497.421-.439.718-1.372 1.131-1.795.121-.157.345-.305.578-.379.177-.076 6.631-2.176 6.631-2.176z"/>
  <path fill="585858" d="M7.221 29.592c.008-1.701 1.436-3.787 1.557-3.972 0-.012.02-.034.02-.034l.072-.032c.052 0 .096.016.104.099 0 0 0 .026-.008.026h.008c-.008.016-.008.023-.016.04-.16.385-1.135 2.417-1.135 3.536.004.854.814 1.464 2.299 1.464 2.01 0 5.147-1.159 8.693-4.294 1.513-1.348 6.042-2.999 12.151-4.951 8.662-2.732 18.916-5.619 18.916-5.619h.008l.125-.046v.879l-.072.026c-.008 0-6.451 2.121-6.631 2.168a1.7 1.7 0 0 0-.538.341c-.389.415-.682 1.352-1.135 1.833-.285.257-.746.456-.794.492-1.372.724-7.863 3.143-9.616 3.861-2.953 1.261-14.414 5.815-20.135 6.336-.317.036-.605.04-.871.04-2.247.002-2.994-.993-3.002-2.193m.209 0c.004 1.104.598 1.978 2.792 1.978.265 0 .534 0 .847-.016 5.665-.538 17.138-5.087 20.087-6.333 1.749-.726 8.252-3.137 9.568-3.845.092-.063.509-.239.774-.468.405-.399.698-1.34 1.127-1.811.148-.175.373-.317.626-.395.168-.07 5.849-1.936 6.559-2.161v-.457c-1.224.341-10.688 3.041-18.775 5.584-6.098 1.934-10.639 3.635-12.087 4.913-3.563 3.163-6.744 4.335-8.826 4.335-1.521 0-2.507-.654-2.511-1.661.004-.59.252-1.384.518-2.106-.362.742-.699 1.661-.699 2.443"/>
</svg>
