<svg xmlns="http://www.w3.org/2000/svg" width="25" height="25" viewBox="0 0 50 50">
  <path fill="#585858" d="M50.006,46.67c0,1.841-1.492,3.329-3.333,3.329H3.334C1.488,50,0,48.511,0,46.67V3.332 C0,1.492,1.488,0,3.334,0h43.338c1.841,0,3.333,1.492,3.333,3.332V46.67z"/>
  <path fill="FFFFFF" d="M49.91,4.992c-6.31-0.353-9.046-0.341-11.634-0.164C32.25,5.259,29.47,6.489,27.159,7.425 c2.82-0.297,6.772-0.227,7.979-0.12c1.456,0.12,4.052,0.588,2.319,2.313c-1.36,1.348-6.435,4.574-6.435,4.574 c-2.868,1.705-4.958,2.357-7.064,2.732c-1.517,0-6.503,0.279-6.928-0.498c-3.213,2.995-8.232,8.04-9.52,11.995v0.005 c0,0.048-0.012,0.071-0.052,0.12c-0.056,0.2-0.072,0.373-0.128,0.55c-0.052,0.368-0.028,0.85,0.297,1.255 c0.465,0.554,2.202,1.669,8.091-0.027c9.737-2.889,23.505-8.274,27.473-12.184c0.208-0.25,0.349-0.913,0.525-1.215 c0.112-0.161,0.252-0.289,0.521-0.375c0.06-0.028,5.672-1.458,5.672-1.458V4.992z" />
  <polygon fill="#FFFFFF" points="0,42.927 49.906,21.645 49.906,22.708 0,46.077 0,45.065" />
  <path fill="FFFFFF" d="M49.91,16.618l-2.949,0.953c0,0-0.979,2.409-1.071,2.555c-0.101,0.227-0.197,0.363-0.49,0.501 c0,0-1.139,0.458-1.163,0.469c-5.801,2.419-18.711,7.648-27.753,10.313c-4.971,1.484-8.228,1.432-9.083,0.072 c0.096,0.248,0.172,0.465,0.341,0.814c0.048,0.116,0.245,0.36,0.514,0.545L0,35.486v2.109l10.755-4.02 c1.561,0.116,3.807-0.137,6.968-1.188c2.467-0.818,20.055-7.504,32.186-12.767V16.618z" />
  <path fill="#DB5425" d="M49.91,15.953c0,0-10.246,2.896-18.911,5.608c-6.098,1.96-10.635,3.627-12.119,4.928 c-6.158,5.49-11.161,4.961-11.161,2.771c0-1.275,1.231-3.707,1.147-3.606c-0.229,0.365-4.477,6.6,2.219,5.993 c5.688-0.525,17.162-5.087,20.103-6.322c1.753-0.728,8.248-3.151,9.592-3.857c0.072-0.054,0.518-0.247,0.79-0.497 c0.421-0.439,0.718-1.372,1.131-1.795c0.121-0.157,0.345-0.305,0.578-0.379c0.177-0.076,6.631-2.176,6.631-2.176V15.953z" />
  <path fill="585858" d="M7.221,29.592c0.008-1.701,1.436-3.787,1.557-3.972c0-0.012,0.02-0.034,0.02-0.034l0.072-0.032 c0.052,0,0.096,0.016,0.104,0.099c0,0,0,0.026-0.008,0.026h0.008c-0.008,0.016-0.008,0.023-0.016,0.04 c-0.16,0.385-1.135,2.417-1.135,3.536c0.004,0.854,0.814,1.464,2.299,1.464c2.01,0,5.147-1.159,8.693-4.294 c1.513-1.348,6.042-2.999,12.151-4.951c8.662-2.732,18.916-5.619,18.916-5.619h0.008l0.125-0.046v0.145v0.734l-0.072,0.026 c-0.008,0-6.451,2.121-6.631,2.168c-0.208,0.074-0.413,0.223-0.538,0.341c-0.389,0.415-0.682,1.352-1.135,1.833 c-0.285,0.257-0.746,0.456-0.794,0.492c-1.372,0.724-7.863,3.143-9.616,3.861c-2.953,1.261-14.414,5.815-20.135,6.336 c-0.317,0.036-0.605,0.04-0.871,0.04C7.976,31.787,7.229,30.792,7.221,29.592 M7.43,29.592c0.004,1.104,0.598,1.978,2.792,1.978 c0.265,0,0.534,0,0.847-0.016c5.665-0.538,17.138-5.087,20.087-6.333c1.749-0.726,8.252-3.137,9.568-3.845 c0.092-0.063,0.509-0.239,0.774-0.468c0.405-0.399,0.698-1.34,1.127-1.811c0.148-0.175,0.373-0.317,0.626-0.395 c0.168-0.07,5.849-1.936,6.559-2.161v-0.457c-1.224,0.341-10.688,3.041-18.775,5.584c-6.098,1.934-10.639,3.635-12.087,4.913 c-3.563,3.163-6.744,4.335-8.826,4.335c-1.521,0-2.507-0.654-2.511-1.661c0.004-0.59,0.252-1.384,0.518-2.106 C7.767,27.891,7.43,28.81,7.43,29.592" />
</svg>
