<svg xmlns="http://www.w3.org/2000/svg" xmlns:xlink="http://www.w3.org/1999/xlink" width="80" height="80" viewBox="0 0 80 80" fill="none"><g transform="scale(0.25)"><rect  x="0" y="0" width="80" height="80" rx="8"    fill="#666666" ></rect><rect x="64" y="26" width="2" height="9"   fill="#FFFFFF" ></rect><rect x="47" y="26" width="2" height="9"   fill="#FFFFFF" ></rect><rect x="31" y="26" width="2" height="9"   fill="#FFFFFF" ></rect><path     fill="#FFFFFF"  d="M32.3137 22L73 22L73 26L28 26L19 35L73 35L73 39L12 39L26.6569 24.3431C28.1571 22.8429 30.192 22 32.3137 22Z"></path><path d="M8.9978 41.9975C8.9978 45.9991 13 49.9975 24.9978 49.9975L72.9978 49.9975L72.9978 39.9975L9.9978 39.9975C9.9978 39.9975 8.9978 39.9975 8.9978 41.9975Z"   fill="#FFFFFF" ></path><rect x="7" y="51" width="66" height="7"   fill="#FFFFFF" ></rect></g></svg>