<?xml version="1.0" encoding="UTF-8"?>
<!-- Generator: Adobe Illustrator 26.0.1, SVG Export Plug-In . SVG Version: 6.00 Build 0)  -->
<svg version="1.1" width="25" height="25" xmlns="http://www.w3.org/2000/svg"
	xmlns:xlink="http://www.w3.org/1999/xlink" x="0px" y="0px" viewBox="0 0 25 25" style=""
	xml:space="preserve">
<style type="text/css">
	.st0{fill:#10716F;}
	.st1{fill:#FFFFFF;}
</style>
<g>
	<path class="st0" d="M23.8,22.4c0,0.8-0.6,1.4-1.4,1.4H2.6c-0.8,0-1.4-0.6-1.4-1.4V2.6c0-0.8,0.6-1.4,1.4-1.4h19.8   c0.8,0,1.4,0.6,1.4,1.4V22.4L23.8,22.4z"/>
</g>
<path class="st1" d="M12.5,2.8l-1,1.7L7.2,5C5.9,5.1,4.8,6.2,4.8,7.6v6.2c0,0.9,0.7,1.7,1.7,1.7h12c0.9,0,1.7-0.7,1.7-1.7V7.6  c0-1.4-1-2.5-2.4-2.7l-4.3-0.4"/>
<polyline class="st0" points="13.2,8.8 13.2,11.8 18,11.8 18,8.5 13.2,8.5 "/>
<polyline class="st0" points="7,8.8 7,11.8 11.8,11.8 11.8,8.5 7,8.5 "/>
<path class="st1" d="M4.8,15.3v4c0,1.1,0.7,2,1.8,2h2v-1.7H6.5v-2.3h12v2.3h-2.2v1.7h2c1.1,0,1.8-0.7,1.8-1.8v-4.3v0.2  c-0.3,0.4-0.8,0.7-1.3,0.7H6.2C5.7,16,5.2,15.8,4.8,15.3L4.8,15.3z"/>
</svg>