<?xml version="1.0" encoding="UTF-8"?>
<svg xmlns="http://www.w3.org/2000/svg" width="22.67" height="22.67" viewBox="0 0 25 25">
  <defs>
    <style>
      .cls-1 {
        fill: #0c7573;
      }

      .cls-2 {
        fill: #fff;
      }
    </style>
  </defs>
  <path id="path476312" class="cls-1" d="M24,21.72c0,1.25-1.02,2.28-2.29,2.28H3.27c-1.25,0-2.27-1.03-2.27-2.28V3.28c0-1.25,1.02-2.28,2.27-2.28h18.44c1.26,0,2.29,1.03,2.29,2.28v18.44Z"/>
  <path id="path476314" class="cls-2" d="M18.18,11.54h-5.01v-3.61h5.01v3.61ZM11.84,11.54h-5.02v-3.61h5.02v3.61ZM19.97,6.25c-.38-.59-.75-1.11-2.04-1.5-1.1-.32-2.53-.4-2.53-.4l-1.62-.04h-.26s-1.01-1.87-1.01-1.87h0s0,0,0,0h0s-1,1.87-1,1.87h-.27s-1.61.05-1.61.05c0,0-1.43.08-2.53.4-1.39.41-1.67.96-2.05,1.5-.31.44-.42,1.32-.42,1.32v6.56s.28.58.8.86c.52.28,1.03.32,1.03.32h12.13s.5-.04,1.02-.32c.52-.28.79-.86.79-.86v-6.56s-.1-.87-.41-1.32M18.98,15.93H6.02s-.58-.12-.84-.28c-.26-.15-.49-.31-.49-.31v3.87s.23,1,.78,1.46c.55.47,1.11.66,1.11.66h2.06v-1.76h-2.23v-2s0-.23.25-.34h11.68c.24.12.24.34.24.34v2h-2.22v1.76h2.05s.57-.19,1.11-.66c.55-.46.78-1.46.78-1.46v-3.87s-.23.14-.5.31c-.28.16-.85.28-.85.28"/>
</svg>
