<svg xmlns="http://www.w3.org/2000/svg" width="22.67" height="22.67" viewBox="0 0 25 25">
  <path d="M24 21.72c0 1.25-1.02 2.28-2.29 2.28H3.27C2.02 24 1 22.97 1 21.72V3.28C1 2.03 2.02 1 3.27 1h18.44C22.97 1 24 2.03 24 3.28z" style="fill:#0c7573"/>
  <path d="M18.18 11.54h-5.01V7.93h5.01zm-6.34 0H6.82V7.93h5.02zm8.13-5.29c-.38-.59-.75-1.11-2.04-1.5-1.1-.32-2.53-.4-2.53-.4l-1.62-.04h-.26l-1.01-1.87-1 1.87h-.27l-1.61.05s-1.43.08-2.53.4c-1.39.41-1.67.96-2.05 1.5-.31.44-.42 1.32-.42 1.32v6.56s.28.58.8.86a2.9 2.9 0 0 0 1.03.32h12.13s.5-.04 1.02-.32.79-.86.79-.86V7.58s-.1-.87-.41-1.32m-1.01 9.67H6.02s-.58-.12-.84-.28c-.26-.15-.49-.31-.49-.31v3.87s.23 1 .78 1.46c.55.47 1.11.66 1.11.66h2.06v-1.76H6.41v-2s0-.23.25-.34h11.68c.24.12.24.34.24.34v2h-2.22v1.76h2.05s.57-.19 1.11-.66c.55-.46.78-1.46.78-1.46v-3.87s-.23.14-.5.31c-.28.16-.85.28-.85.28" style="fill:#fff"/>
</svg>
