<svg id="图层_1" data-name="图层 1" xmlns="http://www.w3.org/2000/svg" viewBox="0 0 4.666 2.724"><defs><style>.cls-1{fill:#2d2a26;}</style></defs><path class="cls-1" d="M4.619,2.631H4.41a7.458,7.458,0,0,1-.186-2.2c.217,0,.391-.12.386-.266,0-.013,0-.044-.052-.042H3.9V0H3.486V.125H1.461V0H1.049V.125H.516a1.145,1.145,0,0,0-.5.084c-.058.046.051.116.24.154A4.116,4.116,0,0,0,.727.421c0,.114-.038,1.387-.14,2.21H.226a.047.047,0,1,0,0,.093H4.619a.047.047,0,1,0,0-.093M1.212.624A.034.034,0,0,1,1.246.591h.068a.033.033,0,0,1,.033.033V.692a.033.033,0,0,1-.033.033H1.246A.034.034,0,0,1,1.212.692ZM.845,2.631H.658C.749,1.885.787.768.8.483h.05Zm.335-.486a.033.033,0,0,1-.033.033H1.079a.034.034,0,0,1-.034-.033V2.077a.034.034,0,0,1,.034-.033h.068a.033.033,0,0,1,.033.033Zm.067-.928a.033.033,0,0,1-.033.033H1.146a.033.033,0,0,1-.033-.033V1.149a.033.033,0,0,1,.033-.033h.068a.033.033,0,0,1,.033.033Zm.167.675a.034.034,0,0,1-.033.034H1.313a.034.034,0,0,1-.033-.034V1.824a.033.033,0,0,1,.033-.033h.068a.033.033,0,0,1,.033.033ZM1.394.981V.913A.033.033,0,0,1,1.427.88H1.5a.034.034,0,0,1,.034.033V.981a.034.034,0,0,1-.034.034H1.427A.034.034,0,0,1,1.394.981m.19.472a.033.033,0,0,1-.033.033H1.483a.034.034,0,0,1-.034-.033V1.385a.034.034,0,0,1,.034-.034h.068a.034.034,0,0,1,.033.034ZM1.7.433h.277c0,.157-.035,1.252-.121,2.049A7.367,7.367,0,0,1,1.7.433m.4,2.2H1.911C2,1.885,2.04.768,2.048.483H2.1Zm.326-1.414a.033.033,0,0,1-.033.033H2.323a.034.034,0,0,1-.034-.033V1.149a.034.034,0,0,1,.034-.033h.068a.033.033,0,0,1,.033.033Zm0-.236a.034.034,0,0,1-.033.034H2.323A.034.034,0,0,1,2.289.981V.913A.034.034,0,0,1,2.323.88h.068a.033.033,0,0,1,.033.033Zm.231,1.164a.033.033,0,0,1-.033.033H2.554a.033.033,0,0,1-.033-.033V2.077a.033.033,0,0,1,.033-.033h.068a.033.033,0,0,1,.033.033Zm0-.486a.034.034,0,0,1-.033.034H2.554a.034.034,0,0,1-.033-.034V1.591a.033.033,0,0,1,.033-.033h.068a.033.033,0,0,1,.033.033ZM2.641.692V.624A.033.033,0,0,1,2.674.591h.068a.033.033,0,0,1,.033.033V.692a.033.033,0,0,1-.033.033H2.674A.033.033,0,0,1,2.641.692m.2.761a.034.034,0,0,1-.034.033H2.741a.033.033,0,0,1-.033-.033V1.385a.034.034,0,0,1,.033-.034h.068a.034.034,0,0,1,.034.034ZM2.994.433h.234c0,.148-.032,1.126-.107,1.905a7.156,7.156,0,0,1-.127-1.9m.353,2.2H3.18c-.005-.02-.009-.04-.013-.06.086-.745.122-1.81.13-2.088h.05Zm.206-1.8V.758A.033.033,0,0,1,3.586.725h.068a.034.034,0,0,1,.034.033V.826A.034.034,0,0,1,3.654.86H3.586A.034.034,0,0,1,3.553.826m.2,1.252a.033.033,0,0,1-.033.033H3.654a.034.034,0,0,1-.034-.033V2.01a.034.034,0,0,1,.034-.034h.068a.034.034,0,0,1,.033.034Zm.145-.5a.033.033,0,0,1-.033.033H3.8a.034.034,0,0,1-.034-.033V1.511A.034.034,0,0,1,3.8,1.477h.068a.034.034,0,0,1,.033.034Zm.053-.429V1.082a.034.034,0,0,1,.033-.034h.068a.034.034,0,0,1,.034.034V1.15a.034.034,0,0,1-.034.033H3.986a.033.033,0,0,1-.033-.033m.2.763a.033.033,0,0,1-.033.033H4.054a.034.034,0,0,1-.034-.033V1.845a.034.034,0,0,1,.034-.033h.068a.033.033,0,0,1,.033.033Z"/></svg>