<svg id="图层_1" data-name="图层 1" xmlns="http://www.w3.org/2000/svg" viewBox="0 0 2.984 3.814" height="20"><defs><style>.cls-1{fill:#2d2a26;}.cls-2{fill:#93a8ae;}</style></defs><path class="cls-1" d="M1.95,1.74a.527.527,0,0,0-.218.012l-.024.01a.423.423,0,0,0-.059.031.661.661,0,0,0-.078.052c-.025.02-.049.04-.071.061s-.043.042-.065.067-.039.048-.058.073-.034.049-.051.078a1.288,1.288,0,0,0-.084.166.035.035,0,0,1-.027.022s-.147.029-.227.051-.157.046-.22.07a1.412,1.412,0,0,0-.206.1c-.032.019-.03.022-.013.02.059,0,.069-.006.126-.008s.115,0,.175,0a1.693,1.693,0,0,1,.175.02.94.94,0,0,1,.171.047.61.61,0,0,1,.158.085.488.488,0,0,1,.066.062.4.4,0,0,1,.09.189.225.225,0,0,1,.007.058.229.229,0,1,1-.229-.23.22.22,0,0,1,.095.021.7.7,0,0,0-.417-.175,1.787,1.787,0,0,0-.288-.006c-.056,0-.112.008-.169.015S.4,2.645.342,2.656a.039.039,0,0,1-.03-.006A.041.041,0,0,1,.3,2.624.037.037,0,0,1,.3,2.592a.662.662,0,0,1,.19-.161,1.342,1.342,0,0,1,.22-.1,2.081,2.081,0,0,1,.229-.07c.075-.019.145-.033.214-.044a1.227,1.227,0,0,1,.088-.154,1.067,1.067,0,0,1,.124-.153.953.953,0,0,1,.152-.125c.027-.016.054-.032.082-.045-.01-.045-.049-.219-.08-.3a1.357,1.357,0,0,0-.1-.223L1.41,1.191l.022,0c.06.006.219.009.241-.045a.08.08,0,0,0-.016-.1l-.005,0V.985L1.633.994,1.566,1,1.555.968a.135.135,0,0,1-.071.024H1.478A.27.27,0,0,1,1.272.921.112.112,0,0,1,1.241.812a.144.144,0,0,1,.092-.1.338.338,0,0,1,.314.072l0,0,.009.03A.1.1,0,0,1,1.712.8.134.134,0,0,1,1.771.8c.005,0,.023-.014.041-.062a.173.173,0,0,0,.015-.1l0-.026A.205.205,0,0,1,1.84.525.109.109,0,0,0,1.771.414.91.91,0,0,0,1.549.373H1.533L1.54.357A.051.051,0,0,0,1.534.314C1.519.287,1.5.266,1.406.229A.238.238,0,0,1,1.322.158.433.433,0,0,0,1.128.02,1.056,1.056,0,0,0,.569.1L.564.1l0,0A.153.153,0,0,0,.48.082a.359.359,0,0,1-.1-.005A.337.337,0,0,0,.347.072.712.712,0,0,0,.38.177l0,.009L.376.191A.422.422,0,0,0,.268.3.817.817,0,0,0,.151.687a1.047,1.047,0,0,1-.072.339.112.112,0,0,0,.052-.013L.166,1,.234.971.351.926C.356.878.363.828.371.772L.391.644.4.6A.476.476,0,0,1,.422.511.289.289,0,0,1,.468.426.248.248,0,0,1,.542.363.28.28,0,0,1,.585.344L.629.333.69.323.637.354.6.377A.209.209,0,0,0,.569.4a.227.227,0,0,0-.048.06A.426.426,0,0,0,.477.613L.471.657.465.7.45.785C.438.846.425.9.41.955l0,.019L.4.976l-.174.051c-.009.037-.023.093-.04.165-.034.14-.118.4-.138.453l0,.01A.053.053,0,0,0,.069,1.65c.028-.012.058-.025.093-.042l.092-.046.04-.021.05-.028.073-.039c.007-.034.013-.069.021-.1s.018-.085.028-.124S.487,1.162.5,1.124.522,1.046.539,1L.562.943v.064c0,.046-.005.092-.008.127s-.006.057-.011.09l.264-.107C.8,1.079.8,1.04.8,1s0-.094,0-.142S.8.762.8.714s.01-.1.016-.141l.022,0c0,.041-.007.09-.007.139s0,.1,0,.14S.84.949.845.993s.013.1.021.137l0,.022-.341.165c0,.025-.008.047-.011.068C.509,1.43.5,1.471.493,1.509l0,.02-.018.009-.094.043c-.029.012-.063.027-.1.04l-.075.024c-.008.038-.027.115-.06.228a.926.926,0,0,1-.1.22.309.309,0,0,0-.031.058c0,.007.008.015.027.024a.685.685,0,0,0,.116.019.774.774,0,0,0,.118,0,.86.86,0,0,0,.115-.014.871.871,0,0,0,.1-.026L.5,2.143l.011-.028c.006-.014.011-.028.017-.041l.006-.017.043-.119c.016-.046.03-.084.043-.12C.624,1.8.631,1.78.64,1.758s.016-.04.026-.06L.69,1.646l0,.057c0,.022,0,.044-.005.065s-.005.039-.008.057v.008c0,.019-.007.038-.011.058L.72,1.882a.966.966,0,0,0,.118-.031A.968.968,0,0,0,.95,1.807a.684.684,0,0,0,.086-.05c-.014-.027-.027-.056-.042-.09S.961,1.589.947,1.553a1.147,1.147,0,0,1-.036-.119.907.907,0,0,1-.023-.121l.022,0a.951.951,0,0,0,.03.116.916.916,0,0,0,.043.112c.015.035.033.071.052.109s.04.076.058.1l.012.02-.018.015a.759.759,0,0,1-.108.073,1.077,1.077,0,0,1-.118.056,1.124,1.124,0,0,1-.124.039l-.064.014-.031.006a1.127,1.127,0,0,1-.034.11c-.007.02-.015.041-.024.062s-.01.022-.015.031l-.008.015L.556,2.2l0,0,0,0-.008.011-.012,0a1.01,1.01,0,0,1-.124.026.775.775,0,0,1-.127.005L.2,2.248a1.075,1.075,0,0,0-.164.8.951.951,0,0,0,.444.6l.046.021H.036A.036.036,0,0,0,0,3.7v.116H1.935V3.7A.036.036,0,0,0,1.9,3.662H1.388L1.44,3.64a.7.7,0,0,0,.3-.246A.568.568,0,0,0,1.835,3,.659.659,0,0,0,1.7,2.664.41.41,0,0,1,1.608,2.4a1,1,0,0,1,.3-.6.156.156,0,0,1,.023-.022c.02-.011.055-.018.017-.029M1.7.464A.05.05,0,0,1,1.729.442c.016,0,.027.011.039.024l.007.007a.1.1,0,0,1,.009.1A.017.017,0,0,1,1.77.589h0c-.008,0-.025-.006-.075-.113l0-.006Zm-.464-.1A.158.158,0,0,1,1.353.354c.035.008.055.02.062.036a.026.026,0,0,1,0,.024l0,0h0a.464.464,0,0,1-.089.013H1.31A.281.281,0,0,1,1.2.4L1.178.39Z"/><path class="cls-2" d="M2.635,1.354a.07.07,0,0,1-.049-.019A1.159,1.159,0,0,0,2.022,1.1a.073.073,0,0,1-.064-.08A.077.077,0,0,1,2.037.956a1.289,1.289,0,0,1,.647.273.072.072,0,0,1-.049.125"/><path class="cls-2" d="M2.721,1.979a.072.072,0,0,1-.068-.05,1.92,1.92,0,0,0-.664-.842.072.072,0,0,1-.019-.1.073.073,0,0,1,.1-.019,2.026,2.026,0,0,1,.718.917.071.071,0,0,1-.068.094"/><path class="cls-2" d="M2.912,1.6a.067.067,0,0,1-.049-.02L2.8,1.519a.071.071,0,0,1,.1-.1l.063.058a.072.072,0,0,1-.049.125"/></svg>