<svg xmlns="http://www.w3.org/2000/svg" width="16" height="16" viewBox="0 0 2.984 3.814">
  <path d="M1.95 1.74a.5.5 0 0 0-.218.012l-.024.01a.4.4 0 0 0-.059.031 1 1 0 0 0-.078.052 1 1 0 0 0-.136.128q-.031.037-.058.073c-.027.036-.034.049-.051.078a1 1 0 0 0-.084.166.04.04 0 0 1-.027.022s-.147.029-.227.051-.157.046-.22.07a1.4 1.4 0 0 0-.206.1c-.032.019-.03.022-.013.02.059 0 .069-.006.126-.008s.115 0 .175 0a2 2 0 0 1 .175.02 1 1 0 0 1 .171.047.6.6 0 0 1 .158.085.5.5 0 0 1 .066.062.4.4 0 0 1 .09.189.2.2 0 0 1 .007.058.229.229 0 1 1-.229-.23.2.2 0 0 1 .095.021.7.7 0 0 0-.417-.175 2 2 0 0 0-.288-.006c-.056 0-.112.008-.169.015s-.109.014-.167.025a.04.04 0 0 1-.03-.006.04.04 0 0 1-.012-.026.04.04 0 0 1 0-.032.7.7 0 0 1 .19-.161 1.3 1.3 0 0 1 .22-.1 2 2 0 0 1 .229-.07 2 2 0 0 1 .214-.044 1 1 0 0 1 .088-.154 1 1 0 0 1 .124-.153 1 1 0 0 1 .152-.125q.04-.025.082-.045a3 3 0 0 0-.08-.3 1.4 1.4 0 0 0-.1-.223l-.009-.026h.022c.06.006.219.009.241-.045a.08.08 0 0 0-.016-.1h-.005V.985l-.019.009L1.566 1 1.555.968a.14.14 0 0 1-.071.024h-.006a.27.27 0 0 1-.206-.071.11.11 0 0 1-.031-.109.14.14 0 0 1 .092-.1.34.34 0 0 1 .314.072l.009.03A.1.1 0 0 1 1.712.8a.13.13 0 0 1 .059 0c.005 0 .023-.014.041-.062a.17.17 0 0 0 .015-.1V.612A.2.2 0 0 1 1.84.525a.11.11 0 0 0-.069-.111 1 1 0 0 0-.222-.041h-.016L1.54.357a.05.05 0 0 0-.006-.043C1.519.287 1.5.266 1.406.229a.24.24 0 0 1-.084-.071.43.43 0 0 0-.194-.138A1.06 1.06 0 0 0 .569.1H.564A.15.15 0 0 0 .48.082a.4.4 0 0 1-.1-.005L.347.072A1 1 0 0 0 .38.177v.009L.376.191A.4.4 0 0 0 .268.3a.8.8 0 0 0-.117.387 1 1 0 0 1-.072.339.1.1 0 0 0 .052-.013L.166 1 .234.971.351.926Q.359.855.371.772l.02-.128L.4.6A.5.5 0 0 1 .422.511.3.3 0 0 1 .468.426.3.3 0 0 1 .542.363L.585.344.629.333.69.323.637.354.6.377.569.4a.2.2 0 0 0-.048.06.4.4 0 0 0-.044.153L.471.657.465.7.45.785a2 2 0 0 1-.04.17v.019L.4.976l-.174.051-.04.165c-.034.14-.118.4-.138.453v.01l.021-.005q.041-.017.093-.042l.092-.046.04-.021.05-.028.073-.039.021-.1c.011-.048.018-.085.028-.124s.021-.088.034-.126S.522 1.046.539 1L.562.943v.064c0 .046-.005.092-.008.127s-.006.057-.011.09l.264-.107Q.798 1.06.8 1C.802.94.8.906.8.858V.714c0-.048.01-.1.016-.141h.022c0 .041-.007.09-.007.139v.14c0 .04.009.097.014.141s.013.1.021.137v.022l-.341.165c0 .025-.008.047-.011.068q-.009.067-.021.124v.02l-.018.009-.094.043q-.044.02-.1.04l-.075.024a3 3 0 0 1-.06.228 1 1 0 0 1-.1.22.3.3 0 0 0-.031.058q0 .01.027.024a1 1 0 0 0 .116.019 1 1 0 0 0 .118 0 1 1 0 0 0 .115-.014 1 1 0 0 0 .1-.026L.5 2.143l.011-.028.017-.041.006-.017.043-.119.043-.12q.006-.027.02-.06c.014-.033.016-.04.026-.06l.024-.052v.057q.001.033-.005.065c-.006.032-.005.039-.008.057v.008c0 .019-.007.038-.011.058l.054-.009a1 1 0 0 0 .118-.031 1 1 0 0 0 .112-.044 1 1 0 0 0 .086-.05q-.02-.04-.042-.09l-.047-.114a1 1 0 0 1-.036-.119 1 1 0 0 1-.023-.121H.91a1 1 0 0 0 .03.116 1 1 0 0 0 .043.112q.023.052.052.109c.029.057.04.076.058.1l.012.02-.018.015a1 1 0 0 1-.108.073 1 1 0 0 1-.118.056 1 1 0 0 1-.124.039l-.064.014-.031.006a1 1 0 0 1-.034.11l-.024.062c-.009.021-.01.022-.015.031l-.008.015-.005.009-.008.011H.536a1 1 0 0 1-.124.026 1 1 0 0 1-.127.005L.2 2.248a1.08 1.08 0 0 0-.164.8.95.95 0 0 0 .444.6l.046.021h-.49A.036.036 0 0 0 0 3.7v.116h1.935V3.7a.036.036 0 0 0-.035-.038h-.512l.052-.022a.7.7 0 0 0 .3-.246A.57.57 0 0 0 1.835 3a.66.66 0 0 0-.135-.336.4.4 0 0 1-.092-.264 1 1 0 0 1 .3-.6l.023-.022c.02-.011.055-.018.017-.029M1.7.464a.05.05 0 0 1 .029-.022c.016 0 .027.011.039.024l.007.007a.1.1 0 0 1 .009.1.02.02 0 0 1-.014.016c-.008 0-.025-.006-.075-.113V.47Zm-.464-.1a.16.16 0 0 1 .117-.01q.052.012.062.036a.03.03 0 0 1 0 .024.5.5 0 0 1-.089.013H1.31A.3.3 0 0 1 1.2.4L1.178.39Z" style="fill:#2d2a26"/>
  <path d="M2.635 1.354a.07.07 0 0 1-.049-.019 1.16 1.16 0 0 0-.564-.235.073.073 0 0 1-.064-.08.08.08 0 0 1 .079-.064 1.3 1.3 0 0 1 .647.273.072.072 0 0 1-.049.125" style="fill:#93a8ae"/>
  <path d="M2.721 1.979a.07.07 0 0 1-.068-.05 1.9 1.9 0 0 0-.664-.842.07.07 0 0 1-.019-.1.073.073 0 0 1 .1-.019 2.03 2.03 0 0 1 .718.917.07.07 0 0 1-.068.094m.192-.379a.07.07 0 0 1-.049-.02L2.8 1.519a.071.071 0 0 1 .1-.1l.063.058a.072.072 0 0 1-.049.125" style="fill:#93a8ae"/>
</svg>
