<svg id="图层_1" data-name="图层 1" xmlns="http://www.w3.org/2000/svg" viewBox="0 0 10.82 10.82" width="12" height="12">
  <defs>
    <style>
      .cls-1 {
        fill: #342c2a;
      }

      .cls-2 {
        fill: none;
        stroke: #342c2a;
        stroke-miterlimit: 10;
        stroke-width: 0.35px;
      }
    </style>
  </defs>
  <title>Cruise_Terminal_Qingdao-24.6.23</title>
  <path class="cls-1" d="M11.127,10.938h0a1.759,1.759,0,0,0-.973-.011l-.1.029a1.761,1.761,0,0,1-.886.013L8.9,10.9a1.756,1.756,0,0,0-.9.015l-.091.026a1.747,1.747,0,0,1-.946,0l-.1-.028a1.764,1.764,0,0,0-.918-.005l-.175.047a1.613,1.613,0,0,1-.877-.015h0a1.755,1.755,0,0,0-1.015,0l-.086.025a1.728,1.728,0,0,1-.718.062l-.359-.043v-.417l.359.043a1.728,1.728,0,0,0,.718-.062l.086-.026a1.763,1.763,0,0,1,1.015,0h0a1.613,1.613,0,0,0,.877.015l.175-.047a1.764,1.764,0,0,1,.918.005l.1.028a1.757,1.757,0,0,0,.946,0L8,10.5a1.756,1.756,0,0,1,.9-.015l.269.066a1.761,1.761,0,0,0,.886-.013l.1-.029a1.759,1.759,0,0,1,.973.011h0a1.763,1.763,0,0,0,.937.02l.133-.034v.417l-.133.034A1.753,1.753,0,0,1,11.127,10.938Z" transform="translate(-2.09 -2.09)"/>
  <path class="cls-1" d="M11.7,8.521a.177.177,0,0,1-.172-.138l-.138-.632a.177.177,0,0,0-.162-.138L10.973,7.6a.044.044,0,0,1-.043-.049l.384-3.309a.044.044,0,0,0-.039-.049l-.133-.013a.044.044,0,0,0-.048.038l-.423,3.305a.089.089,0,0,1-.088.077h-.12a.088.088,0,0,1-.084-.063l-.222-.758a.11.11,0,0,0-.105-.079H8.995a.2.2,0,0,1-.2-.178l-.085-.836a.087.087,0,0,0-.067-.076L7.2,5.263a.055.055,0,0,0-.067.041L6.82,6.677H6.386l-.162-.552a.089.089,0,0,0-.085-.063H5.793a.044.044,0,0,1-.043-.049L6.068,3.25A.043.043,0,0,0,6.032,3.2l-.155-.026a.066.066,0,0,0-.076.057l-.357,2.75a.065.065,0,0,1-.065.057H5.023a.087.087,0,0,0-.085.067l-.316,1.3a.22.22,0,0,1-.214.167L2.8,7.566l.794,2.546a.089.089,0,0,0,.1.061l.284-.055a1.756,1.756,0,0,1,.843.043l.051.015a1.756,1.756,0,0,0,.959.017l.134-.036a1.754,1.754,0,0,1,.918.005l.1.028a1.767,1.767,0,0,0,.946,0l.091-.026a1.756,1.756,0,0,1,.9-.015l.268.065a1.754,1.754,0,0,0,.887-.013l.151-.042a1.765,1.765,0,0,1,.881-.014l.509.123a.066.066,0,0,0,.076-.046l.509-1.7Zm-4.18-.637a.067.067,0,0,1-.066.066H6.781A.065.065,0,0,1,6.718,7.9l-.159-.548a.065.065,0,0,1,.063-.084h.834a.066.066,0,0,1,.066.065Zm1.207,0a.066.066,0,0,1-.066.066H7.851a.067.067,0,0,1-.066-.066V7.335a.066.066,0,0,1,.066-.065h.812a.065.065,0,0,1,.066.065ZM10,7.95H9.1a.067.067,0,0,1-.066-.066V7.335A.066.066,0,0,1,9.1,7.27h.721a.065.065,0,0,1,.062.045l.177.549A.066.066,0,0,1,10,7.95Z" transform="translate(-2.09 -2.09)"/>
  <path class="cls-1" d="M11.127,11.772h0a1.759,1.759,0,0,0-.973-.011l-.1.029a1.761,1.761,0,0,1-.886.013L8.9,11.737a1.756,1.756,0,0,0-.9.016l-.091.025a1.747,1.747,0,0,1-.946,0l-.1-.028a1.754,1.754,0,0,0-.918,0L5.77,11.8a1.613,1.613,0,0,1-.877-.015h0a1.755,1.755,0,0,0-1.015,0l-.086.026a1.762,1.762,0,0,1-.718.062l-.359-.044v-.417l.359.044a1.762,1.762,0,0,0,.718-.062l.086-.026a1.755,1.755,0,0,1,1.015,0h0a1.613,1.613,0,0,0,.877.015l.175-.046a1.754,1.754,0,0,1,.918,0l.1.028a1.747,1.747,0,0,0,.946,0L8,11.336a1.756,1.756,0,0,1,.9-.016l.269.066a1.761,1.761,0,0,0,.886-.013l.1-.029a1.759,1.759,0,0,1,.973.011h0a1.753,1.753,0,0,0,.937.02l.133-.034v.417l-.133.034A1.744,1.744,0,0,1,11.127,11.772Z" transform="translate(-2.09 -2.09)"/>
  <rect class="cls-2" x="0.175" y="0.175" width="10.47" height="10.47" rx="2.18"/>
</svg>
