<svg id="图层_1" data-name="图层 1" xmlns="http://www.w3.org/2000/svg" viewBox="0 0 10.82 10.82" width="12" height="12">
  <defs>
    <style>
      .cls-1 {
        fill: #342c2a;
      }

      .cls-2 {
        fill: none;
        stroke: #342c2a;
        stroke-miterlimit: 10;
        stroke-width: 0.35px;
      }
    </style>
  </defs>
  <title>Railway_Qingdao-24.5.30</title>
  <g id="misc_node_4MFKxkGPBN">
    <g id="railway">
      <path class="cls-1" d="M6.139,7.094c0-.242.361-.548.648-.571s.421-.011.713-.011.45-.01.735.011c.264.022.626.242.626.571v.658l-.428.088c-.22.044-.582.318-.593.571v2.041c.011.253.39.561.659.615l1.514.373c.074.015.236.056.242.11v.417H4.767V11.55c0-.076.168-.1.242-.11l1.514-.373c.282-.065.631-.361.637-.615V8.415c.007-.289-.34-.542-.571-.575l-.45-.088ZM8.29,3.461c0-.018,0-.08,0-.1,0-.212-.24-.373-.448-.382-.124-.011-.228-.013-.353-.013a3.792,3.792,0,0,0-.395.013.429.429,0,0,0-.406.4.484.484,0,0,0,0,.066A3.88,3.88,0,0,0,3.538,7.3a3.941,3.941,0,0,0,1.778,3.283L5.777,9.9a3.194,3.194,0,0,1-1.4-2.6,3.093,3.093,0,1,1,6.186,0A3.026,3.026,0,0,1,9.179,9.86c.2.307.3.472.45.691A3.711,3.711,0,0,0,11.385,7.3,3.83,3.83,0,0,0,8.29,3.461Z" transform="translate(-2.09 -2.09)"/>
    </g>
  </g>
  <rect class="cls-2" x="0.175" y="0.175" width="10.47" height="10.47" rx="2.18"/>
</svg>
