<svg id="图层_1" data-name="图层 1" xmlns="http://www.w3.org/2000/svg" viewBox="0 0 10.82 10.82" width="12" height="12">
  <defs>
    <style>
      .cls-1 {
        fill: #342c2a;
      }

      .cls-2 {
        fill: none;
        stroke: #342c2a;
        stroke-miterlimit: 10;
        stroke-width: 0.35px;
      }
    </style>
  </defs>
  <title>Airport_Qingdao-24.5.30</title>
  <path id="airport" class="cls-1" d="M7.544,3.166a.574.574,0,0,1,.571.614V6.129c0,.1.021.109.022.11.109.065,3.461,1.929,3.511,1.975.076.051.066.022.066.11v.79c0,.066-.022.044-.087.022s-3.309-.984-3.311-.985l-.2-.047A20.974,20.974,0,0,1,8.049,10.5s1.123.7,1.141.713c.067.054.066.044.066.143v.395c0,.1,0,.164-.044.154s-1.6-.461-1.6-.461a.377.377,0,0,0-.11-.022.317.317,0,0,0-.11.022s-1.563.448-1.6.461-.044-.058-.044-.154v-.395c0-.1,0-.089.066-.143.017-.013,1.141-.713,1.141-.713A21.186,21.186,0,0,1,6.885,8.1S3.439,9.134,3.373,9.158s-.082.041-.087-.044v-.79c0-.066.022-.066.087-.11.11-.066,3.486-1.973,3.49-1.975.022-.012.022-.022.022-.11V3.8a.59.59,0,0,1,.571-.636" transform="translate(-2.09 -2.09)"/>
  <rect class="cls-2" x="0.175" y="0.175" width="10.47" height="10.47" rx="2.18"/>
</svg>
