<svg id="图层_1" data-name="图层 1" xmlns="http://www.w3.org/2000/svg" viewBox="0 0 10.82 10.82" width="12" height="12">
  <defs>
    <style>
      .cls-1 {
        fill: #342c2a;
      }

      .cls-2 {
        fill: none;
        stroke: #342c2a;
        stroke-miterlimit: 10;
        stroke-width: 0.35px;
      }
    </style>
  </defs>
  <title>Tram_Qingdao-24.6.23</title>
  <g>
    <path class="cls-1" d="M11.907,6.632h-1.2a.023.023,0,0,1-.023-.022V6.317a.045.045,0,0,0-.045-.045h-.46a.023.023,0,0,1-.011-.042l1.411-.851a.112.112,0,0,0,0-.194L9.709,4.117a.114.114,0,0,0-.113,0L7.781,5.187a.113.113,0,0,0,0,.192l1.316.851a.023.023,0,0,1-.013.042H8.638a.045.045,0,0,0-.045.045V6.61a.022.022,0,0,1-.022.022h-5.4a.315.315,0,0,0-.315.316V9.382a.675.675,0,0,0,.676.676h8.013a.676.676,0,0,0,.676-.676V6.948A.315.315,0,0,0,11.907,6.632ZM8.277,5.32a.045.045,0,0,1,0-.078L9.63,4.481a.043.043,0,0,1,.045,0l1.289.76a.045.045,0,0,1,0,.077l-1.288.8a.044.044,0,0,1-.047,0ZM4.728,8.5a.12.12,0,0,1-.12.12H3.337a.12.12,0,0,1-.12-.12V7.2a.12.12,0,0,1,.12-.12H4.608a.12.12,0,0,1,.12.12ZM6.5,8.5a.12.12,0,0,1-.12.12H5.107a.12.12,0,0,1-.12-.12V7.2a.12.12,0,0,1,.12-.12h1.27a.12.12,0,0,1,.12.12Zm1.758,0a.12.12,0,0,1-.12.12H6.865a.12.12,0,0,1-.12-.12V7.2a.12.12,0,0,1,.12-.12h1.27a.12.12,0,0,1,.12.12Zm1.758,0a.12.12,0,0,1-.12.12H8.623A.12.12,0,0,1,8.5,8.5V7.2a.12.12,0,0,1,.12-.12h1.27a.12.12,0,0,1,.12.12Zm1.8,0a.12.12,0,0,1-.12.12h-1.27a.12.12,0,0,1-.12-.12V7.2a.12.12,0,0,1,.12-.12H11.7a.12.12,0,0,1,.12.12Z" transform="translate(-2.09 -2.09)"/>
    <circle class="cls-1" cx="7.98" cy="8.43" r="0.361"/>
    <circle class="cls-1" cx="8.881" cy="8.43" r="0.361"/>
    <circle class="cls-1" cx="2.908" cy="8.43" r="0.361"/>
    <circle class="cls-1" cx="2.006" cy="8.43" r="0.361"/>
    <rect class="cls-2" x="0.175" y="0.175" width="10.47" height="10.47" rx="2.18"/>
  </g>
</svg>
