<?xml version="1.0" encoding="utf-8"?>
<!-- Generator: Adobe Illustrator 26.0.1, SVG Export Plug-In . SVG Version: 6.00 Build 0)  -->
<svg version="1.1" width="25" height="25" viewBox="0 0 25 25"
	xmlns="http://www.w3.org/2000/svg" xmlns:xlink="http://www.w3.org/1999/xlink" x="0px" y="0px"
	style="enable-background:new 0 0 25 25;" xml:space="preserve">
<style type="text/css">
	.st0{fill:#807F80;}
	.st1{fill:none;}
	.st2{fill:#FFFFFF;}
	.st3{fill:none;stroke:#FFFFFF;stroke-width:2;stroke-miterlimit:10;}
</style>
<circle class="st0" cx="12.5" cy="12.5" r="11.5"/>
<line class="st1" x1="10.8" y1="3.8" x2="10.8" y2="4.8"/>
<polyline class="st2" points="10.8,5 10.8,3.8 14.2,3.8 14.2,5 "/>
<path class="st2" d="M13.8,14.1h-2.7c-0.8,0-1.5-0.7-1.5-1.5v-0.2c0-0.8,0.7-1.5,1.5-1.5h2.7c0.8,0,1.5,0.7,1.5,1.5v0.2
	C15.3,13.4,14.7,14.1,13.8,14.1z"/>
<circle class="st3" cx="12.5" cy="12.5" r="6.7"/>
<polyline class="st0" points="10.2,17.3 8.8,20 12.5,21 16.2,19.7 14.8,17.3 "/>
<path class="st2" d="M13.1,13.8h-1.5v5.6c0,0.2-0.1,0.3-0.3,0.3l-4.1,0.9v1.2h10.3v-1.2l-4.1-0.9c-0.2,0-0.3-0.2-0.3-0.3L13.1,13.8"
	/>
</svg>