<?xml version="1.0" encoding="UTF-8"?>
<svg xmlns="http://www.w3.org/2000/svg" width="25" height="25" viewBox="0 0 25 25">
  <defs>
    <style>
      .cls-1 {
        fill: #fff;
        stroke: #898989;
        stroke-width: .62px;
      }

      .cls-2 {
        fill: #898989;
        fill-rule: evenodd;
      }
    </style>
  </defs>
  <path id="path510878-6" class="cls-1" d="M23.75,12.5c0,6.22-5.03,11.25-11.25,11.25S1.25,18.72,1.25,12.5,6.28,1.25,12.5,1.25s11.25,5.04,11.25,11.25"/>
  <path id="path510880-8" class="cls-2" d="M14.15,4.91l.3.07.31.09.3.12.29.1.28.13.28.13.27.15.28.17.26.17.26.18.23.19.24.21.23.2.21.23.21.22.19.23.2.25.18.26.18.26.16.25.14.29.13.28.13.28.12.3.1.29.09.3.08.31.06.32.04.33.03.33.03.33v.6l-.02.26-.03.26-.03.25-.04.26-.05.25-.06.25-.07.25-.08.23-.08.24-.09.23-.1.24-.1.23-.11.23-.13.22-.13.22-.13.21-.15.21-.14.2-.15.2-.16.19-.17.19-.16.18-.19.17-.18.17-.18.16-.19.16-.2.15-.21.15-.2.13-.21.13-.23.13-.79-1.83.16-.08.15-.1.14-.1.15-.1.13-.12.14-.12.13-.13.13-.13.12-.12.13-.13.12-.13.12-.14.11-.13.1-.14.09-.14.1-.16.09-.16.08-.16.09-.15.08-.18.07-.18.06-.16.07-.17.05-.18.03-.18.05-.18.03-.18.02-.18.03-.18v-.19s.03-.18.03-.18v-.19s0-.28,0-.28l-.02-.28-.03-.27-.05-.28-.08-.27-.06-.26-.08-.25-.09-.24-.12-.26-.12-.24-.13-.23-.14-.22-.15-.22-.17-.21-.18-.19-.18-.19-.19-.18-.21-.18-.22-.17-.21-.15-.23-.15-.23-.13-.24-.13-.24-.12-.24-.1-.26-.08-.26-.07-.27-.07-.28-.05-.28-.04h-.28s-.28-.03-.28-.03l-.28.02h-.28s-.28.05-.28.05l-.28.05-.26.07-.28.07-.25.08-.25.1-.23.12-.25.13-.23.13-.23.15-.21.15-.22.17-.21.18-.18.18-.18.19-.18.19-.16.21-.16.22-.14.22-.13.23-.13.24-.11.25-.1.24-.09.25-.08.26-.06.27-.05.28-.04.27v.28s-.03.28-.03.28v.19l.02.18v.19s.04.18.04.18l.04.18.03.19.05.18.04.18.05.18.06.17.07.18.07.18.07.16.09.16.08.17.1.16.09.15.11.16.1.14.11.15.13.13.13.14.12.13.13.13.14.13.13.12.13.13.15.11.15.11.15.09.15.1.15.1-.69,1.86-.23-.12-.23-.13-.22-.14-.21-.13-.19-.15-.2-.15-.2-.17-.2-.18-.18-.17-.18-.18-.18-.19-.17-.18-.16-.21-.16-.2-.14-.22-.15-.21-.13-.23-.12-.22-.12-.23-.13-.23-.09-.24-.1-.24-.09-.24-.07-.24-.08-.26-.07-.25-.05-.26-.04-.27-.03-.25-.02-.28-.02-.27v-.27s0-.34,0-.34l.03-.33.03-.33.06-.33.05-.32.08-.31.08-.31.11-.3.11-.29.13-.28.14-.28.14-.29.17-.25.18-.26.18-.26.19-.25.19-.23.21-.22.22-.23.22-.2.24-.21.24-.19.26-.18.25-.17.28-.17.28-.15.28-.13.28-.13.3-.1.3-.12.3-.09.31-.07v-.93h3.3v.94h0ZM10.85,10.86h3.24s.08.02.08.02l.08.02.05.02.07.03.06.03.07.02.05.02.06.03.06.03.05.03.06.04.04.03.06.05.04.04.04.04.04.04.03.05.03.05.03.05.03.05.02.07.03.05.02.05.03.07v.06s.03.05.03.05v.07s0,.05,0,.05v.89s-.03.06-.03.06v.07s-.03.05-.03.05l-.02.06-.03.05-.02.06-.03.05-.03.05-.03.05-.03.04-.04.05-.04.04-.04.04-.06.05-.04.03-.06.03-.05.03-.06.03-.06.03-.05.02-.07.03-.06.02-.07.02-.05.02-.08.02h-.13s-.07.02-.07.02h-.82v4.78l.03.05v.05s.03.05.03.05l.03.06.04.05.05.04.05.06.06.05.07.06.08.04.08.06.1.03.09.05.11.05.12.04.13.05.13.04.13.05.16.04.18.03.18.03.18.04.18.03.19.03.22.03.21.03.23.03.24.03.25.02h.25l.28.02h.28v1.14H7.28v-1.13l.4-.04.41-.03.4-.04.38-.05.19-.02.18-.03.18-.02.18-.03.18-.03.17-.03.16-.03.16-.03.15-.03.14-.03.13-.03.13-.05.13-.04.13-.04.1-.05.09-.04.08-.05.08-.05.07-.06.05-.06.03-.05.03-.06.03-.08v-4.89h-.92s-.07-.02-.07-.02h-.07l-.06-.02-.06-.02-.07-.02-.05-.02-.06-.03-.05-.02-.06-.03-.05-.03-.06-.03-.05-.03-.05-.03-.04-.05-.05-.04-.03-.04-.04-.05-.03-.04-.03-.05-.03-.05-.03-.05-.03-.06-.02-.05v-.06s-.03-.05-.03-.05v-.07s-.03-.06-.03-.06v-.05s0-.06,0-.06v-.89s.03-.05.03-.05v-.06s.03-.07.03-.07v-.05s.03-.05.03-.05l.03-.07.03-.05.03-.05.03-.05.03-.05.04-.04.03-.04.05-.04.04-.05.05-.03.05-.04.06-.03.05-.03.06-.03.05-.02.06-.02.05-.03.07-.03.06-.02.06-.02h.07s.07-.02.07-.02h.14v-.03Z"/>
</svg>
