<svg xmlns="http://www.w3.org/2000/svg" width="20" height="20" viewBox="0 0 18 18">
  <rect width="18" height="18" rx="3" style="fill:#618fb4"/>
  <path d="M51.216 44.081a6.043 6.043 0 0 1 2.4 10.762l-.873-1.168a4.56 4.56 0 0 0 1.827-4.068 4.583 4.583 0 1 0-7.288 4.082l-.867 1.172a6.042 6.042 0 0 1 2.441-10.794v-.4a.334.334 0 0 1 .334-.334h1.7a.333.333 0 0 1 .333.334Z" style="fill:#b52522" transform="translate(-41 -41)"/>
  <path d="M54.167 55.542v1.125h-8.334v-1.125l3.212-.68a.42.42 0 0 0 .33-.408v-3.621h-1.042a.416.416 0 0 1-.416-.416v-1.25a.417.417 0 0 1 .416-.417h3.334a.417.417 0 0 1 .416.417v1.25a.416.416 0 0 1-.416.416h-1.042v3.621a.42.42 0 0 0 .33.408Z" style="fill:#b52522" transform="translate(-41 -41)"/>
</svg>
