<svg xmlns="http://www.w3.org/2000/svg" xml:space="preserve" width="25" height="25">
  <circle cx="12.5" cy="12.5" r="11.5" style="fill:#828282"/>
  <path d="M10.8 3.8v1" style="fill:none"/>
  <path d="M10.8 5V3.8h3.4V5" style="fill:#fff"/>
  <circle cx="12.5" cy="12.5" r="6.7" style="fill:none;stroke:#fff;stroke-width:2;stroke-miterlimit:10"/>
  <path d="M10.2 17.3 8.8 20l3.7 1 3.7-1.3-1.4-2.4" style="fill:#828282"/>
  <path d="M15.3 12.9c0 .7-.6 1.3-1.3 1.3h-3c-.7 0-1.3-.6-1.3-1.3v-.5c0-.7.6-1.3 1.3-1.3h3c.7 0 1.3.6 1.3 1.3z" style="fill:#fff"/>
  <path d="M11.7 13.2v5.4c0 .5-.3 1-.8 1.2l-3.7.4v1.2h10.7v-1.2l-3.7-.4c-.5-.2-.8-.7-.8-1.2v-5.4z" style="fill:#fff"/>
</svg>
