<svg xmlns="http://www.w3.org/2000/svg" xml:space="preserve" width="13.333" height="13.333">
  <defs>
    <clipPath id="a" clipPathUnits="userSpaceOnUse">
      <path d="M0 10h10V0H0Z"/>
    </clipPath>
  </defs>
  <g clip-path="url(#a)" transform="matrix(1.33333 0 0 -1.33333 0 13.333)">
    <path d="M0 0a.134.134 0 0 0 .113-.128v-.198h-4.725v.198c0 .062.047.116.113.128l1.576.278a.466.466 0 0 1 .393.449v1.511a.33.33 0 0 1-.253.315l-.691.184v.945a.47.47 0 0 0 .451.456 10.5 10.5 0 0 0 1.547 0 .47.47 0 0 0 .451-.456v-.945l-.691-.184a.33.33 0 0 1-.254-.315V.727c0-.218.165-.406.394-.449zm-1.028 1.267C.298 1.897.827 3.414.152 4.654c-.674 1.24-2.296 1.735-3.623 1.104-1.326-.631-1.855-2.147-1.18-3.387a2.6 2.6 0 0 1 1.18-1.104l-.495-.606c-1.684.887-2.281 2.882-1.333 4.456.504.837 1.376 1.425 2.385 1.608-.027.179.106.169.297.195l.017.001q.35.03.7 0c.193-.016.335 0 .317-.18l-.002-.016c1.897-.344 3.138-2.06 2.771-3.834C.991 1.948.362 1.133-.533.661Z" style="fill:#c7113c;fill-opacity:1;fill-rule:nonzero;stroke:none" transform="translate(7.25 1.695)"/>
  </g>
</svg>
