<?xml version="1.0" encoding="utf-8"?>
<!-- Generator: Adobe Illustrator 26.0.1, SVG Export Plug-In . SVG Version: 6.00 Build 0)  -->
<svg version="1.1" id="railway" xmlns="http://www.w3.org/2000/svg"
	xmlns:xlink="http://www.w3.org/1999/xlink" x="0px" y="0px"
	width="25" height="25" viewBox="0 0 25 25" style="enable-background:new 0 0 25 25;"
	xml:space="preserve">
<style type="text/css">
	.st0{fill:#828282;}
	.st1{fill:none;}
	.st2{fill:#FFFFFF;}
	.st3{fill:none;stroke:#FFFFFF;stroke-width:2;stroke-miterlimit:10;}
</style>
<circle class="st0" cx="12.5" cy="12.5" r="11.5"/>
<line class="st1" x1="10.8" y1="3.8" x2="10.8" y2="4.8"/>
<polyline class="st2" points="10.8,5 10.8,3.8 14.2,3.8 14.2,5 "/>
<circle class="st3" cx="12.5" cy="12.5" r="6.7"/>
<polyline class="st0" points="10.2,17.3 8.8,20 12.5,21 16.2,19.7 14.8,17.3 "/>
<g>
	<path class="st2" d="M15.3,12.9c0,0.7-0.6,1.3-1.3,1.3h-3c-0.7,0-1.3-0.6-1.3-1.3v-0.5c0-0.7,0.6-1.3,1.3-1.3h3
		c0.7,0,1.3,0.6,1.3,1.3V12.9z"/>
</g>
<path class="st2" d="M11.7,14.2"/>
<path class="st2" d="M11.7,13.2v5.4c0,0.5-0.3,1-0.8,1.2l0,0l-3.7,0.4v1.2h10.7v-1.2l-3.7-0.4l0,0c-0.5-0.2-0.8-0.7-0.8-1.2v-5.4
	H11.7z"/>
</svg>