<svg xmlns="http://www.w3.org/2000/svg" width="23.33" height="23.33">
  <path fill="#090980" d="M12.58 9.995h10.395l-.055-.365A11.53 11.53 0 0 0 12.95.04L12.58 0v2.105l.335.04a9.44 9.44 0 0 1 7.25 5.505l.13.31H12.58v-.71l.005-.1c.03-.3.225-.58.49-.72l.095-.04 1.81-.71V3.605l-.005-.075a.47.47 0 0 0-.265-.35l-.07-.025-.355-.095c-1.8-.435-3.68-.44-5.48 0l-.355.095-.07.025c-.14.06-.245.2-.265.35l-.005.075V5.68l1.81.71.09.04c.3.155.5.485.495.82v.71h-7.73l.13-.31a9.43 9.43 0 0 1 7.25-5.505l.335-.04V0l-.365.04a11.53 11.53 0 0 0-9.97 9.59L.1 9.995h10.39v1.495H0l.005.37.02.37A11.54 11.54 0 0 0 11.17 23.02l.37.005.37-.005a11.53 11.53 0 0 0 11.14-10.79l.02-.37.005-.37H12.58zm8.17 3.575-.08.325-.09.32a9.45 9.45 0 0 1-8.71 6.71l-.335.005-.335-.005a9.44 9.44 0 0 1-8.705-6.71l-.095-.32-.08-.325h8.165v1.105l-.005.1c-.05.39-.32.7-.705.8l-4.49 1.075-.065.02a.47.47 0 0 0-.29.365l-.005.07v1.01H18.13v-1.01l-.005-.07a.46.46 0 0 0-.29-.365l-.065-.02-4.49-1.075-.1-.03a.92.92 0 0 1-.605-.77l-.005-.1V13.57z"/>
</svg>
