<svg xmlns="http://www.w3.org/2000/svg" width="12" height="12" data-name="图层 1" viewBox="0 0 10.82 10.82">
  <path d="M6.139 7.094c0-.242.361-.548.648-.571s.421-.011.713-.011.45-.01.735.011c.264.022.626.242.626.571v.658l-.428.088c-.22.044-.582.318-.593.571v2.041c.011.253.39.561.659.615l1.514.373c.074.015.236.056.242.11v.417H4.767v-.417c0-.076.168-.1.242-.11l1.514-.373c.282-.065.631-.361.637-.615V8.415c.007-.289-.34-.542-.571-.575l-.45-.088ZM8.29 3.461v-.1c0-.212-.24-.373-.448-.382a4 4 0 0 0-.353-.013 4 4 0 0 0-.395.013.43.43 0 0 0-.406.4v.066A3.88 3.88 0 0 0 3.538 7.3a3.94 3.94 0 0 0 1.778 3.283l.461-.683a3.2 3.2 0 0 1-1.4-2.6 3.093 3.093 0 1 1 6.186 0 3.03 3.03 0 0 1-1.384 2.56c.2.307.3.472.45.691A3.71 3.71 0 0 0 11.385 7.3 3.83 3.83 0 0 0 8.29 3.461" style="fill:#342c2a" transform="translate(-2.09 -2.09)"/>
  <rect width="10.47" height="10.47" x=".175" y=".175" rx="2.18" style="fill:none;stroke:#342c2a;stroke-miterlimit:10;stroke-width:.35px"/>
</svg>
