<?xml version="1.0" encoding="UTF-8"?>
<svg id="_图层_1" data-name="图层 1" width="10" height="10" xmlns="http://www.w3.org/2000/svg" version="1.1" viewBox="0 0 6.0973228 6.9307087">
  <defs>
    <style>
      .cls-1 {
        fill: #231815;
        fill-rule: evenodd;
        stroke-width: 0px;
      }
    </style>
  </defs>
  <path class="cls-1" d="M2.6844036,6.0865091v-2.0335999l.0006104-.0103989h-.3504028c-.2839966,0-.5145264-.2302017-.5145264-.5145035v-.2160034c0-.2840958.2305298-.5144958.5145264-.5144958h1.3169556c.2840576,0,.5145264.2304001.5145264.5144958v.2160034c0,.2843018-.2304688.5145035-.5145264.5145035h-.3500977l.0003052.0038986v2.0264969s.3600464.4115982,1.7662354.4217987v.4356995H.9044964v-.4356995s.7426758-.0523987,1.2631226-.1700974c.4453735-.1003036.5167847-.2380981.5167847-.2380981M1.6925213,6.0899042C.6894085,5.5896067.0000164,4.5510095.0000164,3.3511041.0000164,1.9000086,1.0113689.6851038,2.3634808.3722071l-.001709-.3719025h1.3699951v.3707047c1.3547363.310997,2.3655396,1.527298,2.3655396,2.9800949,0,1.1744003-.6605225,2.1943054-1.6293335,2.7061996l-.3004761-.7502975c.6749268-.3891983,1.1292725-1.1191025,1.1292725-1.9559021,0-1.2449951-1.0065918-2.2543945-2.2481689-2.2543945C1.8070843,1.0967096.8004925,2.106109.8004925,3.3511041c0,.8490067.4680176,1.5882034,1.1594238,1.9729004l-.267395.7658997Z"/>
</svg>
