<svg xmlns="http://www.w3.org/2000/svg" xmlns:xlink="http://www.w3.org/1999/xlink"
    width="12.5" height="6.1057" viewBox="0 0 56.3 27.5">
<path fill="#003888" d="M9.9,26.3c2.4-0.6,5.8-1.6,11.5-0.4c2.9,0.6,5.6,1.3,8.3,1.3c3.5,0,5.4-0.6,8.1-1.2c2.4-0.6,5.2-1.2,7.4-1.1
    c3.8,0.1,6.6,0.7,8.2,1.4l-1.2-3.1c-3.1-1.1-8.3-1.7-14.4,0.1c-2.6,0.7-5.2,1.3-7.9,1.2c-2.5,0-4.8-0.4-7.2-1
    C15.1,21.7,12.2,23,8.3,24L9.9,26.3z"/>
<path fill="#003888" d="M51.9,11.7h-4.1L46,6.9c0,0-0.1-0.6-1-1.3c-0.6-0.5-1.6-0.5-1.6-0.5H32.1v-2h-6.9l-1.1-1.5l0.8-1.9l-1.9,0l-1.5,3.5h-2.6v2
    h-5.8c0,0-0.8,0.1-1.2,0.3c-0.4,0.3-0.6,0.5-0.6,0.5l-4.4,5.8h-7.3l7.3,10c1.6-0.7,6.6-2,9.7-1.9c4.1,0.1,9.5,1.9,13.1,1.9
    c6.6,0,8.8-2,14.6-2.3c7.1-0.4,11.6,2.3,11.6,2.3L51.9,11.7z M17,11.7H9.9l1.9-2.5c0,0,0.8-1.1,1.2-1.3c0.7-0.4,1.2-0.5,1.2-0.5H17
    V11.7z M18.9,11.7V7.4h7.4l0,4.4L18.9,11.7z M35.5,11.7h-7.4V7.4h7.4V11.7z M37.4,11.7V7.4h5.1c0,0,0.4,0,0.8,0.4
    c0.3,0.2,0.5,0.7,0.5,0.7l1.2,3.3L37.4,11.7z"/>
</svg>
