<svg xmlns="http://www.w3.org/2000/svg" width="12.5" height="6.106" viewBox="0 0 56.3 27.5">
  <path fill="#003888" d="M9.9 26.3c2.4-.6 5.8-1.6 11.5-.4 2.9.6 5.6 1.3 8.3 1.3 3.5 0 5.4-.6 8.1-1.2 2.4-.6 5.2-1.2 7.4-1.1 3.8.1 6.6.7 8.2 1.4l-1.2-3.1c-3.1-1.1-8.3-1.7-14.4.1-2.6.7-5.2 1.3-7.9 1.2-2.5 0-4.8-.4-7.2-1-7.6-1.8-10.5-.5-14.4.5z"/>
  <path fill="#003888" d="M51.9 11.7h-4.1L46 6.9s-.1-.6-1-1.3c-.6-.5-1.6-.5-1.6-.5H32.1v-2h-6.9l-1.1-1.5.8-1.9H23l-1.5 3.5h-2.6v2h-5.8s-.8.1-1.2.3c-.4.3-.6.5-.6.5l-4.4 5.8H-.4l7.3 10c1.6-.7 6.6-2 9.7-1.9 4.1.1 9.5 1.9 13.1 1.9 6.6 0 8.8-2 14.6-2.3 7.1-.4 11.6 2.3 11.6 2.3zm-34.9 0H9.9l1.9-2.5s.8-1.1 1.2-1.3c.7-.4 1.2-.5 1.2-.5H17zm1.9 0V7.4h7.4v4.4zm16.6 0h-7.4V7.4h7.4zm1.9 0V7.4h5.1s.4 0 .8.4c.3.2.5.7.5.7l1.2 3.3z"/>
</svg>
