<svg id="图层_1" data-name="图层 1" xmlns="http://www.w3.org/2000/svg" viewBox="0 0 2.693 2.693" width="15"><defs><style>.cls-1{fill:#2d2a26;}.cls-2{fill:#fff;}</style></defs><path class="cls-1" d="M2.032,1.727l-.505.013.393.092.112-.1"/><polygon class="cls-1" points="0.003 1.697 0 1.73 0 1.78 0.352 1.919 0.333 1.812 0.003 1.697"/><path class="cls-1" d="M1.355,1.75a.514.514,0,0,0-.141.026l1.479.374V2.068Z"/><path class="cls-1" d="M.591,1.437l.4.07.323.052a5.427,5.427,0,0,0,.925-.022,1.615,1.615,0,0,1-.276.306l.73.172V.364A.343.343,0,0,0,2.381,0H.312A.342.342,0,0,0,0,.364V.491L.588.446.838.435l.671.058a.913.913,0,0,1,.218.1,1.191,1.191,0,0,1,.456.526H2.142l.083.233.022-.075s.053.02.018.212a3.886,3.886,0,0,1-.806.045l-.3-.035C.848,1.45.335,1.36,0,1.294v.028l.215.042Z"/><path class="cls-1" d="M.994,2.235a.926.926,0,0,1-.141.037.477.477,0,0,1-.222-.025A1.69,1.69,0,0,1,.393,2.14L.362,1.971,0,1.827v.5a.342.342,0,0,0,.312.364H2.191L1,2.222Z"/><path class="cls-1" d="M1.119,1.852l-.106.325,1.318.516h.05a.343.343,0,0,0,.312-.364V2.2L1.154,1.808a.123.123,0,0,0-.035.044"/><path class="cls-2" d="M1.459,1.539a3.886,3.886,0,0,0,.806-.045c.034-.192-.018-.213-.018-.213l-.023.076-.082-.233h.041A1.185,1.185,0,0,0,1.727.6a.963.963,0,0,0-.218-.1L.838.435.588.446,0,.491v.8c.335.067.847.158,1.156.212ZM1.83.761a.07.07,0,0,1,.05.033l.2.347h-.24A4.284,4.284,0,0,0,1.62.761ZM1.314.756,1.559.751a1.817,1.817,0,0,1,.241.4H1.487L1.271.766a.091.091,0,0,1,.043-.01m.137.42.1.228a.619.619,0,0,1-.283-.233ZM.609,1.013.41.991.423.671h.2Zm.353.031L.9,1.036.913.751.976.807Zm.069.012a.034.034,0,0,1-.022-.02l.015-.2.12.188c.012.018.005.027.005.027Z"/><polygon class="cls-1" points="0.41 0.991 0.609 1.014 0.623 0.671 0.423 0.671 0.41 0.991"/><path class="cls-1" d="M1.8,1.154a1.805,1.805,0,0,0-.24-.4L1.314.756a.091.091,0,0,0-.043.01l.216.388Z"/><path class="cls-1" d="M2.082,1.141,1.88.793A.069.069,0,0,0,1.83.761H1.62a4.284,4.284,0,0,1,.222.38Z"/><path class="cls-1" d="M1.554,1.4l-.1-.228-.181,0a.619.619,0,0,0,.283.233"/><polygon class="cls-1" points="0.901 1.036 0.962 1.044 0.976 0.806 0.913 0.751 0.901 1.036"/><path class="cls-1" d="M1.024.841l-.015.2a.034.034,0,0,0,.022.02h.118s.008-.01-.005-.028Z"/><path class="cls-2" d="M0,1.7l.33.115.019.107.66.258.107-.325a.125.125,0,0,1,.034-.045l-.069-.018.043-.035.087.022a.548.548,0,0,1,.14-.027l-.115-.027.03-.043.258.061.506-.013s-.081.074-.114.106l.044.01a1.647,1.647,0,0,0,.276-.306,5.427,5.427,0,0,1-.925.022L.991,1.506l-.4-.069L.215,1.364,0,1.321V1.73Z"/><path class="cls-2" d="M.393,2.14a1.789,1.789,0,0,0,.238.108.485.485,0,0,0,.222.024.886.886,0,0,0,.14-.037L1,2.222.362,1.971Z"/><polygon class="cls-2" points="0.998 2.222 2.191 2.693 2.331 2.693 1.012 2.177 0.998 2.222"/><polygon class="cls-2" points="0.353 1.918 0 1.781 0 1.827 0.362 1.971 0.353 1.918"/><polygon class="cls-2" points="0.362 1.97 0.998 2.222 1.012 2.177 0.352 1.918 0.362 1.97"/><path class="cls-2" d="M1.153,1.807l1.54.393V2.15L1.214,1.776a.262.262,0,0,0-.061.031"/><path class="cls-2" d="M1.084,1.79l.07.017a.233.233,0,0,1,.06-.031l-.087-.022Z"/><path class="cls-2" d="M1.95,1.855l-.041-.013.01-.009L1.527,1.74l-.085,0a.717.717,0,0,0-.088.008l1.339.319V2.015l-.73-.172-.013.012"/><polygon class="cls-2" points="1.95 1.855 1.963 1.843 1.919 1.833 1.909 1.842 1.95 1.855"/><path class="cls-2" d="M1.527,1.74l-.258-.061-.03.043.116.028a.537.537,0,0,1,.087-.007Z"/></svg>