<svg xmlns="http://www.w3.org/2000/svg" width="10" height="10" data-name="图层 1" viewBox="0 0 8.008 5.309">
  <path d="M0 3.388.636 5.31h6.955l.416-1.313h-.58l-.202-.61h-.307l.26-2.782h-.17l-.296 2.783H6.41l-.23-.717H4.949l-.128-.88-1.284-.23-.212 1.11h-.278l-.185-.536h-.36L2.675.01 2.483 0l-.19 2.135H1.92l-.31 1.253zm7.198.543H.44l-.15-.408h1.48l.325-1.247h.627l.16.549h3.13l.227.698h.84zm-2.601-.893v.392h.95l-.133-.392zm-1.019.392h.763v-.392h-.763zm-1.022-.392.125.392h.647v-.392zm574.483 688.335.636 1.922h6.955l.416-1.312h-.58l-.202-.61h-.307l.26-2.782h-.17l-.297 2.782h-.3l-.23-.716h-1.233l-.128-.88-1.284-.23-.212 1.11h-.278l-.185-.536h-.36l.174-2.126-.192-.01-.19 2.136h-.373l-.31 1.252zm7.198.544h-6.759l-.15-.408h1.48l.326-1.247h.627l.16.549h3.13l.227.698h.84zm-2.601-.893v.391h.95l-.134-.39zm-1.019.391h.763v-.39h-.763zm-1.022-.39.125.39h.647v-.39z" style="fill:#231815;fill-rule:evenodd;stroke-width:0"/>
</svg>
