<?xml version="1.0" encoding="UTF-8"?>
<svg id="_图层_1" data-name="图层 1" width="10" height="10" xmlns="http://www.w3.org/2000/svg" version="1.1" viewBox="0 0 8.007874 5.3092913">
  <defs>
    <style>
      .cls-1 {
        fill: #231815;
        fill-rule: evenodd;
        stroke-width: 0px;
      }
    </style>
  </defs>
  <path class="cls-1" d="M0,3.3876038l.6360474,1.9218979h6.9551392l.4155884-1.3126984h-.5797119l-.2015991-.6091995h-.3070068l.2597046-2.7827072h-.1694946l-.2971191,2.7827072h-.3009644l-.2288208-.716301h-1.2338867l-.1281128-.8797989-1.2838745-.2302017-.2120361,1.1100006h-.2774658l-.1851196-.5360031h-.3599854L2.6748047.0090027l-.1919556-.0090027-.1898804,2.1352997h-.3731079l-.3106689,1.2523041H0ZM7.1983032,3.9308014H.4390869l-.1502075-.407402h1.4810791l.3251343-1.2474976h.6272583l.1593018.5490952h3.1300049l.2271118.6984024h.8410034l.1185303.407402ZM4.5969849,3.0383987v.3912048h.9506836l-.1340942-.3912048h-.8165894ZM3.578186,3.4296036h.7625122v-.3912048h-.7625122v.3912048ZM2.5559692,3.0383987l.1246948.3912048h.6472168v-.3912048h-.7719116Z"/>
  <path class="cls-1" d="M577.0389252,691.3734207l.6360474,1.9218979h6.9551392l.4155884-1.3126984h-.5797119l-.2015991-.6091995h-.3070068l.2597046-2.7827072h-.1694946l-.2971191,2.7827072h-.3009644l-.2288208-.716301h-1.2338867l-.1281128-.8797989-1.2838745-.2302017-.2120361,1.1100006h-.2774658l-.1851196-.5360031h-.3599854l.1735229-2.126297-.1919556-.0090027-.1898804,2.1352997h-.3731079l-.3106689,1.2523041h-1.6091919ZM584.2372284,691.9166183h-6.7592163l-.1502075-.407402h1.4810791l.3251343-1.2474976h.6272583l.1593018.5490952h3.1300049l.2271118.6984024h.8410034l.1185303.407402ZM581.63591,691.0242157v.3912048h.9506836l-.1340942-.3912048h-.8165894ZM580.6171112,691.4154205h.7625122v-.3912048h-.7625122v.3912048ZM579.5948944,691.0242157l.1246948.3912048h.6472168v-.3912048h-.7719116Z"/>
</svg>
