<svg id="图层_1" data-name="图层 1" xmlns="http://www.w3.org/2000/svg" viewBox="0 0 2.589 3.289" height="18"><defs><style>.cls-1{fill:#2d2a26;}</style></defs><path class="cls-1" d="M2.246,3.16h-.9V3.081h.688c.058,0,.106-.029.106-.065s-.048-.064-.106-.064H1.347V2.864h.476c.059,0,.107-.029.107-.065s-.048-.064-.107-.064H1.347V2.608a1.3,1.3,0,1,0-.1,0v.127H.767c-.059,0-.107.029-.107.064s.048.065.107.065h.476v.088H.555c-.059,0-.107.029-.107.064s.048.065.107.065h.688V3.16h-.9c-.059,0-.107.029-.107.065s.048.064.107.064h1.9c.059,0,.107-.029.107-.064s-.048-.065-.107-.065M.169,1.315A1.126,1.126,0,1,1,1.347,2.44V1.361A.047.047,0,0,0,1.3,1.315H1.289a.047.047,0,0,0-.046.046V2.44A1.128,1.128,0,0,1,.169,1.315"/></svg>