<svg xmlns="http://www.w3.org/2000/svg" width="49" height="16">
  <path fill="#da2031" fill-rule="evenodd" d="M1.71 9.003c7.294-.002 7.294-.002 7.286.015a.5.5 0 0 0-.028.1 15 15 0 0 0-.005.745c0 .612 0 .718.005.744a.5.5 0 0 0 .029.102.5.5 0 0 0 .064.098.4.4 0 0 0 .096.073.4.4 0 0 0 .055.02c.03.007.03.007 3.197.007 3.166 0 3.166 0 3.197-.008a.4.4 0 0 0 .054-.019.4.4 0 0 0 .095-.072.4.4 0 0 0 .083-.145l.012-.056c.004-.026.004-.142.004-.818V9h7.81v.788c0 .677 0 .793.005.818a.5.5 0 0 0 .029.103.5.5 0 0 0 .064.097.4.4 0 0 0 .096.073.4.4 0 0 0 .055.02c.03.008.03.008.646.008.583 0 .617 0 .644-.007l.051-.017a.4.4 0 0 0 .05-.03.4.4 0 0 0 .096-.103.5.5 0 0 0 .046-.115c.009-.034.009-.034.01-.835V9h7.81v.803c.002.804.002.804.009.833a.6.6 0 0 0 .049.118.4.4 0 0 0 .067.08.4.4 0 0 0 .085.052.4.4 0 0 0 .058.017c.03.005.278.005 3.193.004 3.16-.001 3.16-.001 3.19-.01a.4.4 0 0 0 .054-.023l.048-.03a.4.4 0 0 0 .116-.167l.015-.059c.005-.03.006-.07.006-.758 0-.726 0-.726-.007-.761l-.02-.068L40.117 9h3.586l3.586.002.087.352L49 15.99c.003.008.003.008-6.572.008h-6.574v-.903c0-.794-.001-.905-.005-.924l-.017-.049a.2.2 0 0 0-.037-.056.2.2 0 0 0-.049-.042l-.042-.019a7 7 0 0 0-.527-.005c-.45 0-.51 0-.527.006l-.038.016-.038.027a.23.23 0 0 0-.07.132c-.004.025-.004.12-.004.923v.894h-3.547v-1.13c0-1.025 0-1.133-.005-1.157a.4.4 0 0 0-.044-.106.3.3 0 0 0-.036-.043.3.3 0 0 0-.046-.034.3.3 0 0 0-.052-.021c-.027-.008-.032-.008-.663-.007-.635.002-.635.002-.66.012a.3.3 0 0 0-.048.025.3.3 0 0 0-.11.16c-.007.028-.007.028-.007 1.165L29.28 16h-3.546v-1.762c-.002-1.761-.002-1.761-.01-1.796a.6.6 0 0 0-.048-.122.5.5 0 0 0-.086-.103.4.4 0 0 0-.154-.075c-.025-.005-.125-.006-.876-.006s-.851.001-.876.006a.4.4 0 0 0-.109.042.4.4 0 0 0-.087.074.5.5 0 0 0-.064.102.6.6 0 0 0-.034.11c-.004.022-.005.176-.006 1.777V16H19.84v-1.12c0-.991 0-1.126-.005-1.154a.4.4 0 0 0-.014-.058.3.3 0 0 0-.058-.094l-.034-.03a.3.3 0 0 0-.078-.037 11 11 0 0 0-.648-.006c-.561 0-.63.001-.65.006a.3.3 0 0 0-.099.054.3.3 0 0 0-.063.09l-.018.055c-.007.028-.007.028-.008 1.161V16H14.62v-.906c-.002-.906-.002-.906-.01-.935a.3.3 0 0 0-.022-.052.22.22 0 0 0-.12-.099c-.018-.005-.087-.006-.527-.006-.442 0-.509 0-.525.006l-.043.018a.2.2 0 0 0-.049.042.23.23 0 0 0-.054.102c-.005.02-.005.065-.006.926l-.001.905H6.63c-6.633 0-6.633 0-6.63-.008l1.623-6.638z"/>
  <path fill="#da2031" fill-rule="evenodd" d="M12.132 9c.001-1.657 0-1.978-.002-2l-.01-.057a.4.4 0 0 0-.05-.11.4.4 0 0 0-.15-.128.4.4 0 0 0-.127-.034 26 26 0 0 0-.606-.003h-.569V5.444l.778-.001c.778-.001.778-.001.805-.009a.4.4 0 0 0 .094-.043.33.33 0 0 0 .104-.13l.015-.05a10 10 0 0 0 .004-.566c0-.454 0-.546-.004-.566a.4.4 0 0 0-.038-.097.3.3 0 0 0-.117-.105.4.4 0 0 0-.056-.022c-.026-.007-.028-.007-.335-.008l-.31-.001.002-.45v-.449h.697l.696-.002.839-1.164.838-1.165V0h.665c.633 0 .665 0 .663.006a.5.5 0 0 0-.016.155c0 .046.002.092.004.107a.5.5 0 0 0 .077.183.5.5 0 0 0 .1.095.5.5 0 0 0 .11.052c.016.004.041.01.057.012.023.004 1.608.004 8.273.004 7.815 0 8.247 0 8.278-.006a.5.5 0 0 0 .11-.035.5.5 0 0 0 .097-.066.5.5 0 0 0 .102-.145.5.5 0 0 0 .03-.124 1 1 0 0 0-.007-.195l-.009-.037C33.162 0 33.162 0 33.766 0h.603v.615l.839 1.165.839 1.164.696.001h.696v.45l.002.45h-.248c-.243.002-.247.002-.273.009a.4.4 0 0 0-.113.057.4.4 0 0 0-.041.043.4.4 0 0 0-.054.108c-.006.023-.006.058-.006.583 0 .56 0 .56.008.585a.4.4 0 0 0 .05.1c.01.013.028.032.041.043a.4.4 0 0 0 .102.056l.05.01c.018.002.27.003.726.003h.698v1.225h-.506c-.3 0-.522.001-.544.003l-.068.011a.4.4 0 0 0-.115.053.4.4 0 0 0-.12.142.4.4 0 0 0-.034.12c-.003.021-.004.35-.003 1.018v.985h-1.846l.013-.027a.4.4 0 0 0 .02-.055c.007-.029.007-.033.007-.201 0-.13 0-.177-.004-.193a.4.4 0 0 0-.043-.105.4.4 0 0 0-.09-.095.5.5 0 0 0-.108-.05c-.027-.007-.027-.007-4.742-.008h-4.715V7.228c0-.896-.001-1.04-.005-1.063a.4.4 0 0 0-.032-.096.4.4 0 0 0-.075-.096.4.4 0 0 0-.166-.077 66 66 0 0 0-1.016-.003c-.281.002-.281.002-.31.011a.4.4 0 0 0-.151.092.4.4 0 0 0-.062.095l-.017.048c-.007.025-.007.025-.008 1.075v1.05h-4.705c-4.705.001-4.705.001-4.738.008a.4.4 0 0 0-.059.017.4.4 0 0 0-.1.063.4.4 0 0 0-.085.13l-.013.047a3 3 0 0 0-.005.316.4.4 0 0 0 .031.133l.011.023h-1.846Zm2.846-1.185c.324 0 .367 0 .383-.005l.032-.015a.1.1 0 0 0 .026-.021l.018-.028a.2.2 0 0 0 .011-.04 43 43 0 0 0 .003-.871c-.002-.846-.002-.846-.01-.865a.14.14 0 0 0-.06-.065c-.02-.01-.02-.01-.4-.01-.37 0-.382 0-.398.007a.1.1 0 0 0-.037.027.1.1 0 0 0-.03.04c-.007.02-.007.02-.007.882 0 .83 0 .863.006.88a.1.1 0 0 0 .043.059l.035.018c.019.006.032.006.385.007m2.478 0c.299 0 .31 0 .335-.007a.2.2 0 0 0 .094-.053.2.2 0 0 0 .055-.088c.007-.02.007-.02.008-.795 0-.521 0-.784-.002-.8l-.01-.044-.018-.037a.3.3 0 0 0-.032-.04.2.2 0 0 0-.047-.034.3.3 0 0 0-.047-.019 3 3 0 0 0-.337-.005c-.271 0-.319.001-.335.005a.2.2 0 0 0-.086.046l-.032.037-.02.034-.012.036c-.004.016-.004.136-.004.802 0 .763 0 .783.006.807l.014.04a.22.22 0 0 0 .1.096l.04.014c.016.003.087.004.33.004Zm2.15 0c.443 0 .453 0 .478-.007a.3.3 0 0 0 .047-.017.2.2 0 0 0 .077-.07.3.3 0 0 0 .022-.046c.01-.027.01-.027.01-.802.002-.507 0-.784-.001-.802a.2.2 0 0 0-.113-.158l-.04-.015a6 6 0 0 0-.48-.005c-.4 0-.462.001-.479.005l-.043.017a.2.2 0 0 0-.051.038.2.2 0 0 0-.038.05l-.018.043c-.005.016-.005.074-.006.772-.001.488 0 .77.002.797q.002.043.011.064l.022.043c.008.012.023.03.034.04a.24.24 0 0 0 .092.047c.018.004.1.005.474.005Zm2.272 0a8 8 0 0 0 .535-.005.3.3 0 0 0 .05-.019.2.2 0 0 0 .052-.038.2.2 0 0 0 .037-.049.3.3 0 0 0 .017-.047c.006-.021.006-.072.006-.802 0-.631 0-.783-.004-.8a.24.24 0 0 0-.07-.117.2.2 0 0 0-.082-.04 8 8 0 0 0-.54-.005 8 8 0 0 0-.54.005.2.2 0 0 0-.08.04.2.2 0 0 0-.056.07l-.014.04c-.005.02-.005.073-.005.802 0 .622 0 .786.004.802a.2.2 0 0 0 .055.101c.02.02.031.028.053.038a.3.3 0 0 0 .048.018c.018.004.108.005.534.005Zm5.364-.001c.438 0 .516 0 .535-.005a.3.3 0 0 0 .05-.018.2.2 0 0 0 .053-.038.2.2 0 0 0 .036-.05.3.3 0 0 0 .018-.046c.005-.021.006-.07.006-.802 0-.631-.001-.783-.005-.8l-.014-.044a.2.2 0 0 0-.056-.073.2.2 0 0 0-.082-.04 9 9 0 0 0-.54-.005c-.447 0-.523 0-.54.005a.2.2 0 0 0-.08.04.2.2 0 0 0-.055.07l-.014.04c-.006.019-.006.072-.006.802 0 .622.001.785.004.802.003.012.01.033.018.048.01.021.019.034.038.053s.03.028.052.038a.3.3 0 0 0 .049.018c.017.004.108.005.533.005m2.272 0c.388 0 .456 0 .475-.005a.3.3 0 0 0 .086-.04.2.2 0 0 0 .055-.07.2.2 0 0 0 .015-.041c.004-.018.005-.126.005-.806 0-.692 0-.788-.005-.805l-.017-.044a.2.2 0 0 0-.038-.05.2.2 0 0 0-.05-.039l-.046-.016c-.018-.005-.076-.005-.486-.005-.466.001-.466.001-.49.01a.3.3 0 0 0-.046.024.3.3 0 0 0-.039.034.2.2 0 0 0-.047.096c-.004.022-.005.118-.004.81.001.783.001.783.01.806l.019.041a.3.3 0 0 0 .069.07.2.2 0 0 0 .069.027zm2.16-.001c.32 0 .32 0 .344-.01l.041-.019a.3.3 0 0 0 .069-.068l.02-.042c.008-.024.008-.024.009-.808 0-.7 0-.787-.004-.81a.2.2 0 0 0-.047-.096.24.24 0 0 0-.088-.058c-.024-.008-.024-.008-.352-.008s-.327 0-.35.008a.2.2 0 0 0-.049.024.3.3 0 0 0-.04.034.2.2 0 0 0-.047.096c-.005.023-.006.118-.005.809.001.782.001.782.009.805l.02.044a.24.24 0 0 0 .082.077l.045.017c.022.005.045.005.343.005m2.469 0c.324 0 .367 0 .382-.004l.033-.015.025-.021.019-.028a.2.2 0 0 0 .011-.04c.002-.018.003-.296.002-.871 0-.846 0-.846-.008-.865a.14.14 0 0 0-.063-.065c-.02-.01-.02-.01-.4-.01-.366 0-.38 0-.396.006a.1.1 0 0 0-.037.028.1.1 0 0 0-.03.04c-.007.02-.007.02-.007.882 0 .83 0 .863.006.88a.1.1 0 0 0 .043.059l.035.018c.019.006.032.006.385.007ZM24.558 5.32c.485 0 .698 0 .714-.003a.3.3 0 0 0 .091-.033.3.3 0 0 0 .08-.076l.021-.04.013-.046c.005-.022.006-.097.006-.702s-.001-.68-.006-.702l-.013-.046-.021-.04a.3.3 0 0 0-.074-.073.3.3 0 0 0-.099-.036 23 23 0 0 0-.709-.004c-.459 0-.691.001-.708.004l-.048.011a.3.3 0 0 0-.046.022.3.3 0 0 0-.083.08.3.3 0 0 0-.031.08 14 14 0 0 0-.005.704c0 .576.001.685.005.704a.3.3 0 0 0 .032.079.3.3 0 0 0 .068.073c.012.008.033.02.046.025a.3.3 0 0 0 .05.015c.02.003.135.004.717.004"/>
</svg>
